 0
SECTION
 2
ENTITIES
  0
LINE
 8
EXHAUST_SIDE
10
0.0
20
2.143
30
5.551115123125783e-16
11
5.204000000000001
21
2.143
31
5.551115123125783e-16
  0
LINE
 8
EXHAUST_SIDE
10
1.0182851652177192
20
0.8189313932376807
30
0.06250000000000205
11
1.0182851652177192
21
0.8189313932376807
31
2.7755575615628914e-16
  0
LINE
 8
EXHAUST_SIDE
10
1.0182851652177192
20
0.8189313932376807
30
2.7755575615628914e-16
11
0.9992282158936447
21
0.852236738578001
31
2.7755575615628914e-16
  0
LINE
 8
EXHAUST_SIDE
10
0.9992282158936447
20
0.852236738578001
30
0.06250000000000205
11
0.9992282158936447
21
0.852236738578001
31
2.7755575615628914e-16
  0
LINE
 8
EXHAUST_SIDE
10
2.294214834782281
20
0.7124102685721958
30
0.062500000000002
11
2.294214834782281
21
0.7124102685721958
31
1.9984014443252818e-15
  0
LINE
 8
EXHAUST_SIDE
10
2.294214834782281
20
0.7124102685721958
30
1.9984014443252818e-15
11
2.2749000342977865
21
0.6792537936687495
31
1.9984014443252818e-15
  0
LINE
 8
EXHAUST_SIDE
10
2.2749000342977865
20
0.6792537936687495
30
0.062500000000002
11
2.2749000342977865
21
0.6792537936687495
31
1.9984014443252818e-15
  0
LINE
 8
EXHAUST_SIDE
10
3.8093817882880927
20
0.805864144175839
30
0.06250000000000205
11
3.8093817882880927
21
0.805864144175839
31
2.0539125955565396e-15
  0
LINE
 8
EXHAUST_SIDE
10
5.204000000000001
20
1.1102230246251565e-16
30
1.1102230246251565e-16
11
5.204000000000001
21
1.1102230246251565e-16
31
0.06250000000000011
  0
LINE
 8
EXHAUST_SIDE
10
3.491718056390244
20
0.6952277660023212
30
1.9984014443252818e-15
11
3.3790169071077756
21
0.7167220158265044
31
1.9984014443252818e-15
  0
LINE
 8
EXHAUST_SIDE
10
0.0
20
1.1102230246251565e-16
30
1.1102230246251565e-16
11
5.204000000000001
21
1.1102230246251565e-16
31
1.1102230246251565e-16
  0
LINE
 8
EXHAUST_SIDE
10
1.2566351188196805
20
1.0448578716506667
30
3.3306690738754696e-16
11
1.2500853665595848
21
1.1340000000000003
31
3.3306690738754696e-16
  0
LINE
 8
EXHAUST_SIDE
10
2.2749000342977865
20
0.6792537936687495
30
1.9984014443252818e-15
11
2.1371708475178117
21
0.5425891694049767
31
1.9984014443252818e-15
  0
LINE
 8
EXHAUST_SIDE
10
2.1371708475178117
20
0.5425891694049767
30
0.062500000000002
11
2.1371708475178117
21
0.5425891694049767
31
1.9984014443252818e-15
  0
LINE
 8
EXHAUST_SIDE
10
3.0622537936687486
20
0.5460999657022141
30
1.9984014443252818e-15
11
2.9255891694049723
21
0.6838291524821889
31
1.9984014443252818e-15
  0
LINE
 8
EXHAUST_SIDE
10
0.0
20
2.143
30
0.06250000000000056
11
0.0
21
2.143
31
5.551115123125783e-16
  0
LINE
 8
EXHAUST_SIDE
10
1.0182851652177192
20
0.8189313932376807
30
2.7755575615628914e-16
11
1.282244144489507
21
0.971328180975263
31
2.7755575615628914e-16
  0
LINE
 8
EXHAUST_SIDE
10
3.94736488118032
20
1.223142128349334
30
0.06250000000000211
11
3.94736488118032
21
1.223142128349334
31
2.1094237467877974e-15
  0
LINE
 8
EXHAUST_SIDE
10
3.909628872922113
20
1.3314913115757463
30
2.1649348980190553e-15
11
3.94736488118032
21
1.223142128349334
31
2.1094237467877974e-15
  0
LINE
 8
EXHAUST_SIDE
10
3.909628872922113
20
1.3314913115757463
30
0.06250000000000216
11
3.909628872922113
21
1.3314913115757463
31
2.1649348980190553e-15
  0
LINE
 8
EXHAUST_SIDE
10
4.124214834782279
20
0.7124102685721958
30
0.062500000000002
11
4.124214834782279
21
0.7124102685721958
31
1.9984014443252818e-15
  0
LINE
 8
EXHAUST_SIDE
10
4.104900034297785
20
0.6792537936687495
30
1.9984014443252818e-15
11
4.124214834782279
21
0.7124102685721958
31
1.9984014443252818e-15
  0
LINE
 8
EXHAUST_SIDE
10
4.104900034297785
20
0.6792537936687495
30
0.062500000000002
11
4.104900034297785
21
0.6792537936687495
31
1.9984014443252818e-15
  0
LINE
 8
EXHAUST_SIDE
10
5.204000000000001
20
1.1102230246251565e-16
30
0.06250000000000011
11
5.204000000000001
21
2.143
31
0.06250000000000056
  0
LINE
 8
EXHAUST_SIDE
10
0.9501030609664411
20
1.1340000000000003
30
0.06250000000000033
11
0.9501030609664411
21
1.1340000000000003
31
3.3306690738754696e-16
  0
LINE
 8
EXHAUST_SIDE
10
0.9504905322467501
20
1.2338717498085723
30
3.3306690738754696e-16
11
0.9501030609664411
21
1.1340000000000003
31
3.3306690738754696e-16
  0
LINE
 8
EXHAUST_SIDE
10
0.9504905322467501
20
1.2338717498085723
30
0.06250000000000211
11
0.9504905322467501
21
1.2338717498085723
31
3.3306690738754696e-16
  0
LINE
 8
EXHAUST_SIDE
10
3.224618211711899
20
1.4621358558241617
30
0.06250000000000216
11
3.224618211711899
21
1.4621358558241617
31
2.1649348980190553e-15
  0
LINE
 8
EXHAUST_SIDE
10
1.4895086884242517
20
1.5266288729221174
30
0.06250000000000216
11
1.4895086884242517
21
1.5266288729221174
31
3.885780586188048e-16
  0
LINE
 8
EXHAUST_SIDE
10
1.3946182117119008
20
1.4621358558241617
30
3.885780586188048e-16
11
1.4895086884242517
21
1.5266288729221174
31
3.885780586188048e-16
  0
LINE
 8
EXHAUST_SIDE
10
1.3946182117119008
20
1.4621358558241617
30
0.06250000000000216
11
1.3946182117119008
21
1.4621358558241617
31
3.885780586188048e-16
  0
LINE
 8
EXHAUST_SIDE
10
3.3790169071077756
20
0.7167220158265044
30
0.062500000000002
11
3.3790169071077756
21
0.7167220158265044
31
1.9984014443252818e-15
  0
LINE
 8
EXHAUST_SIDE
10
1.5490169071077773
20
0.7167220158265062
30
1.9984014443252818e-15
11
1.4457190775780688
21
0.766653070687636
31
2.0539125955565396e-15
  0
LINE
 8
EXHAUST_SIDE
10
5.204000000000001
20
2.143
30
5.551115123125783e-16
11
5.204000000000001
21
2.143
31
0.06250000000000056
  0
LINE
 8
EXHAUST_SIDE
10
3.845135855824161
20
1.4263817882880971
30
2.1649348980190553e-15
11
3.909628872922113
21
1.3314913115757463
31
2.1649348980190553e-15
  0
LINE
 8
EXHAUST_SIDE
10
3.845135855824161
20
1.4263817882880971
30
0.06250000000000216
11
3.845135855824161
21
1.4263817882880971
31
2.1649348980190553e-15
  0
LINE
 8
EXHAUST_SIDE
10
2.1371708475178117
20
0.5425891694049767
30
1.9984014443252818e-15
11
1.9687632614219979
21
0.4462282158936439
31
1.942890293094024e-15
  0
LINE
 8
EXHAUST_SIDE
10
1.9687632614219979
20
0.4462282158936439
30
0.06250000000000194
11
1.9687632614219979
21
0.4462282158936439
31
1.942890293094024e-15
  0
LINE
 8
EXHAUST_SIDE
10
5.204000000000001
20
1.1102230246251565e-16
30
0.06250000000000011
11
0.0
21
1.1102230246251565e-16
31
0.06250000000000011
  0
LINE
 8
EXHAUST_SIDE
10
0.0
20
1.1102230246251565e-16
30
0.06250000000000011
11
0.0
21
1.1102230246251565e-16
31
1.1102230246251565e-16
  0
LINE
 8
EXHAUST_SIDE
10
3.758280922421932
20
1.5013469293123656
30
2.1649348980190553e-15
11
3.845135855824161
21
1.4263817882880971
31
2.1649348980190553e-15
  0
LINE
 8
EXHAUST_SIDE
10
1.9687632614219979
20
0.4462282158936439
30
1.942890293094024e-15
11
1.7811539746960818
21
0.3967377728725481
31
1.942890293094024e-15
  0
LINE
 8
EXHAUST_SIDE
10
1.7811539746960818
20
0.3967377728725481
30
0.06250000000000194
11
1.7811539746960818
21
0.3967377728725481
31
1.942890293094024e-15
  0
LINE
 8
EXHAUST_SIDE
10
2.7797377728725436
20
1.0398460253039152
30
2.1094237467877974e-15
11
2.7801030609664394
21
1.1340000000000003
31
3.3306690738754696e-16
  0
LINE
 8
EXHAUST_SIDE
10
0.0
20
1.1102230246251565e-16
30
1.1102230246251565e-16
11
0.0
21
2.143
31
5.551115123125783e-16
  0
LINE
 8
EXHAUST_SIDE
10
2.123914633440414
20
1.1340000000000003
30
0.06250000000000033
11
2.123914633440414
21
1.1340000000000003
31
3.3306690738754696e-16
  0
LINE
 8
EXHAUST_SIDE
10
4.104900034297785
20
0.6792537936687495
30
1.9984014443252818e-15
11
3.96717084751781
21
0.5425891694049767
31
1.9984014443252818e-15
  0
LINE
 8
EXHAUST_SIDE
10
3.96717084751781
20
0.5425891694049767
30
0.062500000000002
11
3.96717084751781
21
0.5425891694049767
31
1.9984014443252818e-15
  0
LINE
 8
EXHAUST_SIDE
10
5.204000000000001
20
1.1102230246251565e-16
30
1.1102230246251565e-16
11
5.204000000000001
21
2.143
31
5.551115123125783e-16
  0
LINE
 8
EXHAUST_SIDE
10
3.758280922421932
20
1.5013469293123656
30
0.06250000000000216
11
3.758280922421932
21
1.5013469293123656
31
2.1649348980190553e-15
  0
LINE
 8
EXHAUST_SIDE
10
2.9255891694049723
20
0.6838291524821889
30
0.062500000000002
11
2.9255891694049723
21
0.6838291524821889
31
1.9984014443252818e-15
  0
LINE
 8
EXHAUST_SIDE
10
1.7811539746960818
20
0.3967377728725481
30
1.942890293094024e-15
11
1.6869999999999976
21
0.3971030609664439
31
1.942890293094024e-15
  0
LINE
 8
EXHAUST_SIDE
10
1.6869999999999976
20
0.3971030609664439
30
0.06250000000000194
11
1.6869999999999976
21
0.3971030609664439
31
1.942890293094024e-15
  0
LINE
 8
EXHAUST_SIDE
10
2.117364881180322
20
1.223142128349334
30
2.1094237467877974e-15
11
2.123914633440414
21
1.1340000000000003
31
3.3306690738754696e-16
  0
LINE
 8
EXHAUST_SIDE
10
1.7485
20
1.870658338190129
30
2.275957200481571e-15
11
1.7868717498085687
21
1.8705094677532514
31
2.275957200481571e-15
  0
LINE
 8
EXHAUST_SIDE
10
1.9282809224219335
20
1.5013469293123656
30
2.1649348980190553e-15
11
2.0151358558241625
21
1.4263817882880971
31
2.1649348980190553e-15
  0
LINE
 8
EXHAUST_SIDE
10
4.254262227127448
20
1.2281539746960846
30
0.06250000000000211
11
4.254262227127448
21
1.2281539746960846
31
2.1094237467877974e-15
  0
LINE
 8
EXHAUST_SIDE
10
3.6549830928922233
20
1.5512779841734954
30
2.220446049250313e-15
11
3.758280922421932
21
1.5013469293123656
31
2.1649348980190553e-15
  0
LINE
 8
EXHAUST_SIDE
10
3.6549830928922233
20
1.5512779841734954
30
0.06250000000000222
11
3.6549830928922233
21
1.5512779841734954
31
2.220446049250313e-15
  0
LINE
 8
EXHAUST_SIDE
10
2.831435194708888
20
1.4210913796096412
30
0.06250000000000216
11
2.831435194708888
21
1.4210913796096412
31
2.1649348980190553e-15
  0
LINE
 8
EXHAUST_SIDE
10
3.086635118819679
20
1.0448578716506658
30
0.06250000000000211
11
3.086635118819679
21
1.0448578716506658
31
2.1094237467877974e-15
  0
LINE
 8
EXHAUST_SIDE
10
3.616871749808567
20
1.8705094677532514
30
0.06250000000000228
11
3.616871749808567
21
1.8705094677532514
31
2.275957200481571e-15
  0
LINE
 8
EXHAUST_SIDE
10
3.31950868842425
20
1.5266288729221174
30
2.1649348980190553e-15
11
3.427857871650666
21
1.564364881180321
31
2.220446049250313e-15
  0
LINE
 8
EXHAUST_SIDE
10
3.5784999999999982
20
1.5658647627149591
30
2.220446049250313e-15
11
3.6549830928922233
21
1.5512779841734954
31
2.220446049250313e-15
  0
LINE
 8
EXHAUST_SIDE
10
3.5784999999999982
20
1.5658647627149591
30
0.06250000000000222
11
3.5784999999999982
21
1.5658647627149591
31
2.220446049250313e-15
  0
LINE
 8
EXHAUST_SIDE
10
3.96717084751781
20
0.5425891694049767
30
1.9984014443252818e-15
11
3.798763261421996
21
0.4462282158936439
31
1.942890293094024e-15
  0
LINE
 8
EXHAUST_SIDE
10
3.798763261421996
20
0.4462282158936439
30
0.06250000000000194
11
3.798763261421996
21
0.4462282158936439
31
1.942890293094024e-15
  0
LINE
 8
EXHAUST_SIDE
10
3.798763261421996
20
0.4462282158936439
30
1.942890293094024e-15
11
3.61115397469608
21
0.3967377728725481
31
1.942890293094024e-15
  0
LINE
 8
EXHAUST_SIDE
10
3.61115397469608
20
0.3967377728725481
30
0.06250000000000194
11
3.61115397469608
21
0.3967377728725481
31
1.942890293094024e-15
  0
LINE
 8
EXHAUST_SIDE
10
1.824983092892225
20
1.5512779841734954
30
2.220446049250313e-15
11
1.9282809224219335
21
1.5013469293123656
31
2.1649348980190553e-15
  0
LINE
 8
EXHAUST_SIDE
10
3.0622537936687486
20
0.5460999657022141
30
0.062500000000002
11
3.0622537936687486
21
0.5460999657022141
31
1.9984014443252818e-15
  0
LINE
 8
EXHAUST_SIDE
10
2.7804905322467484
20
1.2338717498085705
30
0.06250000000000211
11
2.7804905322467484
21
1.2338717498085705
31
2.1094237467877974e-15
  0
LINE
 8
EXHAUST_SIDE
10
2.7804905322467484
20
1.2338717498085705
30
2.1094237467877974e-15
11
2.831435194708888
21
1.4210913796096412
31
2.1649348980190553e-15
  0
LINE
 8
EXHAUST_SIDE
10
1.6254999999999988
20
1.5663958972215823
30
0.06250000000000222
11
1.6254999999999988
21
1.5663958972215823
31
4.440892098500626e-16
  0
LINE
 8
EXHAUST_SIDE
10
1.5978578716506675
20
1.564364881180321
30
4.440892098500626e-16
11
1.6254999999999988
21
1.5663958972215823
31
4.440892098500626e-16
  0
LINE
 8
EXHAUST_SIDE
10
1.5978578716506675
20
1.564364881180321
30
0.06250000000000222
11
1.5978578716506675
21
1.564364881180321
31
4.440892098500626e-16
  0
LINE
 8
EXHAUST_SIDE
10
1.2482277660023193
20
1.1592819436097521
30
0.06250000000000211
11
1.2482277660023193
21
1.1592819436097521
31
3.3306690738754696e-16
  0
LINE
 8
EXHAUST_SIDE
10
1.2566351188196805
20
1.0448578716506667
30
0.06250000000000211
11
1.2566351188196805
21
1.0448578716506667
31
3.3306690738754696e-16
  0
LINE
 8
EXHAUST_SIDE
10
3.8040913796096376
20
1.8195648052911082
30
2.275957200481571e-15
11
3.9717462063312468
21
1.7219000342977857
31
2.220446049250313e-15
  0
LINE
 8
EXHAUST_SIDE
10
1.6869999999999976
20
0.3971030609664439
30
1.942890293094024e-15
11
1.5871282501914266
21
0.39749053224674924
31
1.942890293094024e-15
  0
LINE
 8
EXHAUST_SIDE
10
1.5871282501914266
20
0.39749053224674924
30
0.06250000000000194
11
1.5871282501914266
21
0.39749053224674924
31
1.942890293094024e-15
  0
LINE
 8
EXHAUST_SIDE
10
0.9504905322467501
20
1.2338717498085723
30
3.3306690738754696e-16
11
1.0014351947088898
21
1.421091379609642
31
3.885780586188048e-16
  0
LINE
 8
EXHAUST_SIDE
10
1.0014351947088898
20
1.421091379609642
30
0.06250000000000216
11
1.0014351947088898
21
1.421091379609642
31
3.885780586188048e-16
  0
LINE
 8
EXHAUST_SIDE
10
1.5871282501914266
20
0.39749053224674924
30
1.942890293094024e-15
11
1.3999086203903595
21
0.44843519470889337
31
1.942890293094024e-15
  0
LINE
 8
EXHAUST_SIDE
10
1.3999086203903595
20
0.44843519470889337
30
0.06250000000000194
11
1.3999086203903595
21
0.44843519470889337
31
1.942890293094024e-15
  0
LINE
 8
EXHAUST_SIDE
10
3.9539146334404123
20
1.1340000000000003
30
0.06250000000000033
11
3.9539146334404123
21
1.1340000000000003
31
3.3306690738754696e-16
  0
LINE
 8
EXHAUST_SIDE
10
1.3588641441758362
20
0.8416182117119044
30
2.0539125955565396e-15
11
1.343284168513943
21
0.8645414890564647
31
2.0539125955565396e-15
  0
LINE
 8
EXHAUST_SIDE
10
1.2697220158265026
20
1.2719830928922242
30
3.3306690738754696e-16
11
1.319653070687636
21
1.3752809224219327
31
3.885780586188048e-16
  0
LINE
 8
EXHAUST_SIDE
10
2.104277984173496
20
0.9960169071077765
30
0.06250000000000205
11
2.104277984173496
21
0.9960169071077765
31
2.0539125955565396e-15
  0
LINE
 8
EXHAUST_SIDE
10
2.1257722339976795
20
1.1087180563902486
30
2.1094237467877974e-15
11
2.104277984173496
21
0.9960169071077765
31
2.0539125955565396e-15
  0
LINE
 8
EXHAUST_SIDE
10
2.1257722339976795
20
1.1087180563902486
30
0.06250000000000211
11
2.1257722339976795
21
1.1087180563902486
31
2.1094237467877974e-15
  0
LINE
 8
EXHAUST_SIDE
10
2.929099965702214
20
1.5887462063312503
30
2.220446049250313e-15
11
2.831435194708888
21
1.4210913796096412
31
2.1649348980190553e-15
  0
LINE
 8
EXHAUST_SIDE
10
2.929099965702214
20
1.5887462063312503
30
0.06250000000000222
11
2.929099965702214
21
1.5887462063312503
31
2.220446049250313e-15
  0
LINE
 8
EXHAUST_SIDE
10
3.5784999999999982
20
1.870658338190129
30
2.275957200481571e-15
11
3.5784999999999982
21
1.5658647627149591
31
2.220446049250313e-15
  0
LINE
 8
EXHAUST_SIDE
10
3.5784999999999982
20
1.870658338190129
30
0.06250000000000228
11
3.5784999999999982
21
1.870658338190129
31
2.275957200481571e-15
  0
LINE
 8
EXHAUST_SIDE
10
2.8482851652177175
20
0.8189313932376789
30
2.0539125955565396e-15
11
2.829228215893643
21
0.8522367385779992
31
2.0539125955565396e-15
  0
LINE
 8
EXHAUST_SIDE
10
1.236829152482187
20
1.725410830595024
30
0.06250000000000222
11
1.236829152482187
21
1.725410830595024
31
4.440892098500626e-16
  0
LINE
 8
EXHAUST_SIDE
10
1.236829152482187
20
1.725410830595024
30
4.440892098500626e-16
11
1.4052367385779974
21
1.8217717841063568
31
4.996003610813204e-16
  0
LINE
 8
EXHAUST_SIDE
10
1.4052367385779974
20
1.8217717841063568
30
0.06250000000000228
11
1.4052367385779974
21
1.8217717841063568
31
4.996003610813204e-16
  0
LINE
 8
EXHAUST_SIDE
10
4.204771784106356
20
1.4157632614220006
30
2.1649348980190553e-15
11
4.254262227127448
21
1.2281539746960846
31
2.1094237467877974e-15
  0
LINE
 8
EXHAUST_SIDE
10
2.929099965702214
20
1.5887462063312503
30
2.220446049250313e-15
11
3.0668291524821853
21
1.725410830595023
31
2.220446049250313e-15
  0
LINE
 8
EXHAUST_SIDE
10
3.0668291524821853
20
1.725410830595023
30
0.06250000000000222
11
3.0668291524821853
21
1.725410830595023
31
2.220446049250313e-15
  0
LINE
 8
EXHAUST_SIDE
10
2.829228215893643
20
0.8522367385779992
30
0.06250000000000205
11
2.829228215893643
21
0.8522367385779992
31
2.0539125955565396e-15
  0
LINE
 8
EXHAUST_SIDE
10
2.278410830595025
20
1.584170847517811
30
0.06250000000000222
11
2.278410830595025
21
1.584170847517811
31
2.220446049250313e-15
  0
LINE
 8
EXHAUST_SIDE
10
1.3999086203903595
20
0.44843519470889337
30
1.942890293094024e-15
11
1.2322537936687468
21
0.5460999657022159
31
1.9984014443252818e-15
  0
LINE
 8
EXHAUST_SIDE
10
1.2322537936687468
20
0.5460999657022159
30
0.062500000000002
11
1.2322537936687468
21
0.5460999657022159
31
1.9984014443252818e-15
  0
LINE
 8
EXHAUST_SIDE
10
3.0668291524821853
20
1.725410830595023
30
2.220446049250313e-15
11
3.2352367385779957
21
1.8217717841063568
31
2.275957200481571e-15
  0
LINE
 8
EXHAUST_SIDE
10
3.2352367385779957
20
1.8217717841063568
30
0.06250000000000228
11
3.2352367385779957
21
1.8217717841063568
31
2.275957200481571e-15
  0
LINE
 8
EXHAUST_SIDE
10
2.104277984173496
20
0.9960169071077765
30
2.0539125955565396e-15
11
2.087288483811033
21
0.9608688711386257
31
2.0539125955565396e-15
  0
LINE
 8
EXHAUST_SIDE
10
2.4235094677532487
20
1.0341282501914293
30
2.1094237467877974e-15
11
2.3725648052911055
21
0.8469086203903586
31
2.0539125955565396e-15
  0
LINE
 8
EXHAUST_SIDE
10
3.2352367385779957
20
1.8217717841063568
30
2.275957200481571e-15
11
3.4228460253039152
21
1.8712622271274526
31
2.275957200481571e-15
  0
LINE
 8
EXHAUST_SIDE
10
3.4228460253039152
20
1.8712622271274526
30
0.06250000000000228
11
3.4228460253039152
21
1.8712622271274526
31
2.275957200481571e-15
  0
LINE
 8
EXHAUST_SIDE
10
3.4228460253039152
20
1.8712622271274526
30
2.275957200481571e-15
11
3.455499999999997
21
1.8711355398769847
31
2.275957200481571e-15
  0
LINE
 8
EXHAUST_SIDE
10
3.455499999999997
20
1.8711355398769847
30
0.06250000000000228
11
3.455499999999997
21
1.8711355398769847
31
2.275957200481571e-15
  0
LINE
 8
EXHAUST_SIDE
10
3.61115397469608
20
0.3967377728725481
30
1.942890293094024e-15
11
3.5169999999999995
21
0.397103060966443
31
1.942890293094024e-15
  0
LINE
 8
EXHAUST_SIDE
10
3.5169999999999995
20
0.397103060966443
30
0.06250000000000194
11
3.5169999999999995
21
0.397103060966443
31
1.942890293094024e-15
  0
LINE
 8
EXHAUST_SIDE
10
3.5169999999999995
20
0.397103060966443
30
1.942890293094024e-15
11
3.4171282501914284
21
0.39749053224674835
31
1.942890293094024e-15
  0
LINE
 8
EXHAUST_SIDE
10
3.4171282501914284
20
0.39749053224674835
30
0.06250000000000194
11
3.4171282501914284
21
0.39749053224674835
31
1.942890293094024e-15
  0
LINE
 8
EXHAUST_SIDE
10
3.9557722339976777
20
1.1087180563902486
30
2.1094237467877974e-15
11
3.9342779841734945
21
0.9960169071077765
31
2.0539125955565396e-15
  0
LINE
 8
EXHAUST_SIDE
10
3.455499999999997
20
1.5663958972215823
30
2.220446049250313e-15
11
3.455499999999997
21
1.8711355398769847
31
2.275957200481571e-15
  0
LINE
 8
EXHAUST_SIDE
10
3.455499999999997
20
1.5663958972215823
30
0.06250000000000222
11
3.455499999999997
21
1.5663958972215823
31
2.220446049250313e-15
  0
LINE
 8
EXHAUST_SIDE
10
3.4171282501914284
20
0.39749053224674835
30
1.942890293094024e-15
11
3.2299086203903578
21
0.4484351947088916
31
1.942890293094024e-15
  0
LINE
 8
EXHAUST_SIDE
10
3.2299086203903578
20
0.4484351947088916
30
0.06250000000000194
11
3.2299086203903578
21
0.4484351947088916
31
1.942890293094024e-15
  0
LINE
 8
EXHAUST_SIDE
10
3.2299086203903578
20
0.4484351947088916
30
1.942890293094024e-15
11
3.0622537936687486
21
0.5460999657022141
31
1.9984014443252818e-15
  0
LINE
 8
EXHAUST_SIDE
10
4.253509467753247
20
1.0341282501914293
30
2.1094237467877974e-15
11
4.202564805291104
21
0.8469086203903586
31
2.0539125955565396e-15
  0
LINE
 8
EXHAUST_SIDE
10
4.253896939033556
20
1.1340000000000003
30
3.3306690738754696e-16
11
4.254262227127448
21
1.2281539746960846
31
2.1094237467877974e-15
  0
LINE
 8
EXHAUST_SIDE
10
2.7797377728725436
20
1.0398460253039152
30
0.06250000000000211
11
2.7797377728725436
21
1.0398460253039152
31
2.1094237467877974e-15
  0
LINE
 8
EXHAUST_SIDE
10
1.095589169404974
20
0.6838291524821907
30
1.9984014443252818e-15
11
1.2322537936687468
21
0.5460999657022159
31
1.9984014443252818e-15
  0
LINE
 8
EXHAUST_SIDE
10
1.095589169404974
20
0.6838291524821907
30
0.062500000000002
11
1.095589169404974
21
0.6838291524821907
31
1.9984014443252818e-15
  0
LINE
 8
EXHAUST_SIDE
10
2.361685869724404
20
0.8282334518643886
30
2.0539125955565396e-15
11
2.087288483811033
21
0.9608688711386257
31
2.0539125955565396e-15
  0
LINE
 8
EXHAUST_SIDE
10
1.4457190775780688
20
0.766653070687636
30
2.0539125955565396e-15
11
1.3588641441758362
21
0.8416182117119044
31
2.0539125955565396e-15
  0
LINE
 8
EXHAUST_SIDE
10
1.095589169404974
20
0.6838291524821907
30
1.9984014443252818e-15
11
1.0793718964341714
21
0.7121716677287688
31
1.9984014443252818e-15
  0
LINE
 8
EXHAUST_SIDE
10
1.0793718964341714
20
0.7121716677287688
30
0.062500000000002
11
1.0793718964341714
21
0.7121716677287688
31
1.9984014443252818e-15
  0
LINE
 8
EXHAUST_SIDE
10
2.123914633440414
20
1.1340000000000003
30
3.3306690738754696e-16
11
2.1257722339976795
21
1.1087180563902486
31
2.1094237467877974e-15
  0
LINE
 8
EXHAUST_SIDE
10
0.9501030609664411
20
1.1340000000000003
30
3.3306690738754696e-16
11
0.9497377728725453
21
1.039846025303917
31
3.3306690738754696e-16
  0
LINE
 8
EXHAUST_SIDE
10
0.9497377728725453
20
1.039846025303917
30
3.3306690738754696e-16
11
0.9992282158936447
21
0.852236738578001
31
2.7755575615628914e-16
  0
LINE
 8
EXHAUST_SIDE
10
1.282244144489507
20
0.971328180975263
30
2.7755575615628914e-16
11
1.2566351188196805
21
1.0448578716506667
31
3.3306690738754696e-16
  0
LINE
 8
EXHAUST_SIDE
10
1.2500853665595848
20
1.1340000000000003
30
3.3306690738754696e-16
11
1.2482277660023193
21
1.1592819436097521
31
3.3306690738754696e-16
  0
LINE
 8
EXHAUST_SIDE
10
1.2482277660023193
20
1.1592819436097521
30
3.3306690738754696e-16
11
1.2697220158265026
21
1.2719830928922242
31
3.3306690738754696e-16
  0
LINE
 8
EXHAUST_SIDE
10
1.319653070687636
20
1.3752809224219327
30
3.885780586188048e-16
11
1.3946182117119008
21
1.4621358558241617
31
3.885780586188048e-16
  0
LINE
 8
EXHAUST_SIDE
10
1.4895086884242517
20
1.5266288729221174
30
3.885780586188048e-16
11
1.5978578716506675
21
1.564364881180321
31
4.440892098500626e-16
  0
LINE
 8
EXHAUST_SIDE
10
1.6254999999999988
20
1.5663958972215823
30
4.440892098500626e-16
11
1.6254999999999988
21
1.8711355398769847
31
4.996003610813204e-16
  0
LINE
 8
EXHAUST_SIDE
10
1.592846025303917
20
1.8712622271274526
30
4.996003610813204e-16
11
1.6254999999999988
21
1.8711355398769847
31
4.996003610813204e-16
  0
LINE
 8
EXHAUST_SIDE
10
1.4052367385779974
20
1.8217717841063568
30
4.996003610813204e-16
11
1.592846025303917
21
1.8712622271274526
31
4.996003610813204e-16
  0
LINE
 8
EXHAUST_SIDE
10
1.0990999657022158
20
1.5887462063312512
30
4.440892098500626e-16
11
1.236829152482187
21
1.725410830595024
31
4.440892098500626e-16
  0
LINE
 8
EXHAUST_SIDE
10
1.0014351947088898
20
1.421091379609642
30
3.885780586188048e-16
11
1.0990999657022158
21
1.5887462063312512
31
4.440892098500626e-16
  0
LINE
 8
EXHAUST_SIDE
10
2.361685869724404
20
0.8282334518643886
30
2.0539125955565396e-15
11
2.3725648052911055
21
0.8469086203903586
31
2.0539125955565396e-15
  0
LINE
 8
EXHAUST_SIDE
10
2.4238969390335576
20
1.1340000000000003
30
3.3306690738754696e-16
11
2.4235094677532487
21
1.0341282501914293
31
2.1094237467877974e-15
  0
LINE
 8
EXHAUST_SIDE
10
2.42426222712745
20
1.2281539746960846
30
2.1094237467877974e-15
11
2.4238969390335576
21
1.1340000000000003
31
3.3306690738754696e-16
  0
LINE
 8
EXHAUST_SIDE
10
2.374771784106354
20
1.4157632614220006
30
2.1649348980190553e-15
11
2.42426222712745
21
1.2281539746960846
31
2.1094237467877974e-15
  0
LINE
 8
EXHAUST_SIDE
10
2.374771784106354
20
1.4157632614220006
30
2.1649348980190553e-15
11
2.278410830595025
21
1.584170847517811
31
2.220446049250313e-15
  0
LINE
 8
EXHAUST_SIDE
10
2.1417462063312485
20
1.7219000342977857
30
2.220446049250313e-15
11
2.278410830595025
21
1.584170847517811
31
2.220446049250313e-15
  0
LINE
 8
EXHAUST_SIDE
10
1.9740913796096393
20
1.8195648052911082
30
2.275957200481571e-15
11
2.1417462063312485
21
1.7219000342977857
31
2.220446049250313e-15
  0
LINE
 8
EXHAUST_SIDE
10
1.7868717498085687
20
1.8705094677532514
30
2.275957200481571e-15
11
1.9740913796096393
21
1.8195648052911082
31
2.275957200481571e-15
  0
LINE
 8
EXHAUST_SIDE
10
1.7485
20
1.870658338190129
30
2.275957200481571e-15
11
1.7485
21
1.5658647627149591
31
2.220446049250313e-15
  0
LINE
 8
EXHAUST_SIDE
10
1.7485
20
1.5658647627149591
30
2.220446049250313e-15
11
1.824983092892225
21
1.5512779841734954
31
2.220446049250313e-15
  0
LINE
 8
EXHAUST_SIDE
10
2.0151358558241625
20
1.4263817882880971
30
2.1649348980190553e-15
11
2.0796288729221146
21
1.3314913115757463
31
2.1649348980190553e-15
  0
LINE
 8
EXHAUST_SIDE
10
2.0796288729221146
20
1.3314913115757463
30
2.1649348980190553e-15
11
2.117364881180322
21
1.223142128349334
31
2.1094237467877974e-15
  0
LINE
 8
EXHAUST_SIDE
10
2.7801030609664394
20
1.1340000000000003
30
3.3306690738754696e-16
11
2.7804905322467484
21
1.2338717498085705
31
2.1094237467877974e-15
  0
LINE
 8
EXHAUST_SIDE
10
2.829228215893643
20
0.8522367385779992
30
2.0539125955565396e-15
11
2.7797377728725436
21
1.0398460253039152
31
2.1094237467877974e-15
  0
LINE
 8
EXHAUST_SIDE
10
2.8482851652177175
20
0.8189313932376789
30
2.0539125955565396e-15
11
3.112244144489509
21
0.9713281809752621
31
2.0539125955565396e-15
  0
LINE
 8
EXHAUST_SIDE
10
3.112244144489509
20
0.9713281809752621
30
2.0539125955565396e-15
11
3.086635118819679
21
1.0448578716506658
31
2.1094237467877974e-15
  0
LINE
 8
EXHAUST_SIDE
10
3.086635118819679
20
1.0448578716506658
30
2.1094237467877974e-15
11
3.080085366559583
21
1.1340000000000003
31
3.3306690738754696e-16
  0
LINE
 8
EXHAUST_SIDE
10
3.080085366559583
20
1.1340000000000003
30
3.3306690738754696e-16
11
3.078227766002321
21
1.1592819436097512
31
2.1094237467877974e-15
  0
LINE
 8
EXHAUST_SIDE
10
3.078227766002321
20
1.1592819436097512
30
2.1094237467877974e-15
11
3.099722015826501
21
1.2719830928922233
31
2.1094237467877974e-15
  0
LINE
 8
EXHAUST_SIDE
10
3.099722015826501
20
1.2719830928922233
30
2.1094237467877974e-15
11
3.1496530706876342
21
1.3752809224219318
31
2.1649348980190553e-15
  0
LINE
 8
EXHAUST_SIDE
10
3.1496530706876342
20
1.3752809224219318
30
2.1649348980190553e-15
11
3.224618211711899
21
1.4621358558241617
31
2.1649348980190553e-15
  0
LINE
 8
EXHAUST_SIDE
10
3.224618211711899
20
1.4621358558241617
30
2.1649348980190553e-15
11
3.31950868842425
21
1.5266288729221174
31
2.1649348980190553e-15
  0
LINE
 8
EXHAUST_SIDE
10
3.427857871650666
20
1.564364881180321
30
2.220446049250313e-15
11
3.455499999999997
21
1.5663958972215823
31
2.220446049250313e-15
  0
LINE
 8
EXHAUST_SIDE
10
3.94736488118032
20
1.223142128349334
30
2.1094237467877974e-15
11
3.9539146334404123
21
1.1340000000000003
31
3.3306690738754696e-16
  0
LINE
 8
EXHAUST_SIDE
10
3.9539146334404123
20
1.1340000000000003
30
3.3306690738754696e-16
11
3.9557722339976777
21
1.1087180563902486
31
2.1094237467877974e-15
  0
LINE
 8
EXHAUST_SIDE
10
3.9342779841734945
20
0.9960169071077765
30
2.0539125955565396e-15
11
3.9172884838110313
21
0.9608688711386257
31
2.0539125955565396e-15
  0
LINE
 8
EXHAUST_SIDE
10
3.9172884838110313
20
0.9608688711386257
30
2.0539125955565396e-15
11
4.191685869724406
21
0.8282334518643886
31
2.0539125955565396e-15
  0
LINE
 8
EXHAUST_SIDE
10
4.202564805291104
20
0.8469086203903586
30
2.0539125955565396e-15
11
4.191685869724406
21
0.8282334518643886
31
2.0539125955565396e-15
  0
LINE
 8
EXHAUST_SIDE
10
4.253509467753247
20
1.0341282501914293
30
2.1094237467877974e-15
11
4.253896939033556
21
1.1340000000000003
31
3.3306690738754696e-16
  0
LINE
 8
EXHAUST_SIDE
10
4.108410830595023
20
1.584170847517811
30
2.220446049250313e-15
11
4.204771784106356
21
1.4157632614220006
31
2.1649348980190553e-15
  0
LINE
 8
EXHAUST_SIDE
10
3.9717462063312468
20
1.7219000342977857
30
2.220446049250313e-15
11
4.108410830595023
21
1.584170847517811
31
2.220446049250313e-15
  0
LINE
 8
EXHAUST_SIDE
10
3.616871749808567
20
1.8705094677532514
30
2.275957200481571e-15
11
3.8040913796096376
21
1.8195648052911082
31
2.275957200481571e-15
  0
LINE
 8
EXHAUST_SIDE
10
3.5784999999999982
20
1.870658338190129
30
2.275957200481571e-15
11
3.616871749808567
21
1.8705094677532514
31
2.275957200481571e-15
  0
LINE
 8
EXHAUST_SIDE
10
2.294214834782281
20
0.7124102685721958
30
1.9984014443252818e-15
11
2.030255855510493
21
0.8648070563097789
31
2.0539125955565396e-15
  0
LINE
 8
EXHAUST_SIDE
10
2.030255855510493
20
0.8648070563097789
30
2.0539125955565396e-15
11
1.9793817882880944
21
0.805864144175839
31
2.0539125955565396e-15
  0
LINE
 8
EXHAUST_SIDE
10
1.9793817882880944
20
0.805864144175839
30
2.0539125955565396e-15
11
1.8844913115757471
21
0.7413711270778833
31
1.9984014443252818e-15
  0
LINE
 8
EXHAUST_SIDE
10
1.8844913115757471
20
0.7413711270778833
30
1.9984014443252818e-15
11
1.7761421283493348
21
0.7036351188196797
31
1.9984014443252818e-15
  0
LINE
 8
EXHAUST_SIDE
10
1.7761421283493348
20
0.7036351188196797
30
1.9984014443252818e-15
11
1.6869999999999976
21
0.6970853665595875
31
1.9984014443252818e-15
  0
LINE
 8
EXHAUST_SIDE
10
1.6869999999999976
20
0.6970853665595875
30
1.9984014443252818e-15
11
1.6617180563902458
21
0.6952277660023221
31
1.9984014443252818e-15
  0
LINE
 8
EXHAUST_SIDE
10
1.6617180563902458
20
0.6952277660023221
30
1.9984014443252818e-15
11
1.5490169071077773
21
0.7167220158265062
31
1.9984014443252818e-15
  0
LINE
 8
EXHAUST_SIDE
10
1.343284168513943
20
0.8645414890564647
30
2.0539125955565396e-15
11
1.0793718964341714
21
0.7121716677287688
31
1.9984014443252818e-15
  0
LINE
 8
EXHAUST_SIDE
10
4.124214834782279
20
0.7124102685721958
30
1.9984014443252818e-15
11
3.860255855510495
21
0.8648070563097789
31
2.0539125955565396e-15
  0
LINE
 8
EXHAUST_SIDE
10
3.860255855510495
20
0.8648070563097789
30
2.0539125955565396e-15
11
3.8093817882880927
21
0.805864144175839
31
2.0539125955565396e-15
  0
LINE
 8
EXHAUST_SIDE
10
3.8093817882880927
20
0.805864144175839
30
2.0539125955565396e-15
11
3.7144913115757454
21
0.7413711270778833
31
1.9984014443252818e-15
  0
LINE
 8
EXHAUST_SIDE
10
3.7144913115757454
20
0.7413711270778833
30
1.9984014443252818e-15
11
3.606142128349333
21
0.7036351188196797
31
1.9984014443252818e-15
  0
LINE
 8
EXHAUST_SIDE
10
3.606142128349333
20
0.7036351188196797
30
1.9984014443252818e-15
11
3.516999999999996
21
0.6970853665595866
31
1.9984014443252818e-15
  0
LINE
 8
EXHAUST_SIDE
10
3.516999999999996
20
0.6970853665595866
30
1.9984014443252818e-15
11
3.491718056390244
21
0.6952277660023212
31
1.9984014443252818e-15
  0
LINE
 8
EXHAUST_SIDE
10
3.3790169071077756
20
0.7167220158265044
30
1.9984014443252818e-15
11
3.275719077578067
21
0.7666530706876342
31
2.0539125955565396e-15
  0
LINE
 8
EXHAUST_SIDE
10
3.275719077578067
20
0.7666530706876342
30
2.0539125955565396e-15
11
3.188864144175838
21
0.8416182117119027
31
2.0539125955565396e-15
  0
LINE
 8
EXHAUST_SIDE
10
3.188864144175838
20
0.8416182117119027
30
2.0539125955565396e-15
11
3.1732841685139412
21
0.8645414890564629
31
2.0539125955565396e-15
  0
LINE
 8
EXHAUST_SIDE
10
3.1732841685139412
20
0.8645414890564629
30
2.0539125955565396e-15
11
2.9093718964341733
21
0.712171667728767
31
1.9984014443252818e-15
  0
LINE
 8
EXHAUST_SIDE
10
2.9255891694049723
20
0.6838291524821889
30
1.9984014443252818e-15
11
2.9093718964341733
21
0.712171667728767
31
1.9984014443252818e-15
  0
LINE
 8
EXHAUST_SIDE
10
2.1417462063312485
20
1.7219000342977857
30
0.06250000000000222
11
2.1417462063312485
21
1.7219000342977857
31
2.220446049250313e-15
  0
LINE
 8
EXHAUST_SIDE
10
3.8040913796096376
20
1.8195648052911082
30
0.06250000000000228
11
3.8040913796096376
21
1.8195648052911082
31
2.275957200481571e-15
  0
LINE
 8
EXHAUST_SIDE
10
2.42426222712745
20
1.2281539746960846
30
0.06250000000000211
11
2.42426222712745
21
1.2281539746960846
31
2.1094237467877974e-15
  0
LINE
 8
EXHAUST_SIDE
10
2.4238969390335576
20
1.1340000000000003
30
0.06250000000000033
11
2.4238969390335576
21
1.1340000000000003
31
3.3306690738754696e-16
  0
LINE
 8
EXHAUST_SIDE
10
2.4235094677532487
20
1.0341282501914293
30
0.06250000000000211
11
2.4235094677532487
21
1.0341282501914293
31
2.1094237467877974e-15
  0
LINE
 8
EXHAUST_SIDE
10
2.3725648052911055
20
0.8469086203903586
30
0.06250000000000205
11
2.3725648052911055
21
0.8469086203903586
31
2.0539125955565396e-15
  0
LINE
 8
EXHAUST_SIDE
10
1.319653070687636
20
1.3752809224219327
30
0.06250000000000216
11
1.319653070687636
21
1.3752809224219327
31
3.885780586188048e-16
  0
LINE
 8
EXHAUST_SIDE
10
1.2697220158265026
20
1.2719830928922242
30
0.06250000000000211
11
1.2697220158265026
21
1.2719830928922242
31
3.3306690738754696e-16
  0
LINE
 8
EXHAUST_SIDE
10
2.361685869724404
20
0.8282334518643886
30
0.06250000000000205
11
2.361685869724404
21
0.8282334518643886
31
2.0539125955565396e-15
  0
LINE
 8
EXHAUST_SIDE
10
2.087288483811033
20
0.9608688711386257
30
0.06250000000000205
11
2.087288483811033
21
0.9608688711386257
31
2.0539125955565396e-15
  0
LINE
 8
EXHAUST_SIDE
10
2.117364881180322
20
1.223142128349334
30
0.06250000000000211
11
2.117364881180322
21
1.223142128349334
31
2.1094237467877974e-15
  0
LINE
 8
EXHAUST_SIDE
10
2.0796288729221146
20
1.3314913115757463
30
0.06250000000000216
11
2.0796288729221146
21
1.3314913115757463
31
2.1649348980190553e-15
  0
LINE
 8
EXHAUST_SIDE
10
3.9342779841734945
20
0.9960169071077765
30
0.06250000000000205
11
3.9342779841734945
21
0.9960169071077765
31
2.0539125955565396e-15
  0
LINE
 8
EXHAUST_SIDE
10
1.2500853665595848
20
1.1340000000000003
30
0.06250000000000033
11
1.2500853665595848
21
1.1340000000000003
31
3.3306690738754696e-16
  0
LINE
 8
EXHAUST_SIDE
10
1.343284168513943
20
0.8645414890564647
30
0.06250000000000205
11
1.343284168513943
21
0.8645414890564647
31
2.0539125955565396e-15
  0
LINE
 8
EXHAUST_SIDE
10
3.427857871650666
20
1.564364881180321
30
0.06250000000000222
11
3.427857871650666
21
1.564364881180321
31
2.220446049250313e-15
  0
LINE
 8
EXHAUST_SIDE
10
3.099722015826501
20
1.2719830928922233
30
0.06250000000000211
11
3.099722015826501
21
1.2719830928922233
31
2.1094237467877974e-15
  0
LINE
 8
EXHAUST_SIDE
10
4.204771784106356
20
1.4157632614220006
30
0.06250000000000216
11
4.204771784106356
21
1.4157632614220006
31
2.1649348980190553e-15
  0
LINE
 8
EXHAUST_SIDE
10
3.9717462063312468
20
1.7219000342977857
30
0.06250000000000222
11
3.9717462063312468
21
1.7219000342977857
31
2.220446049250313e-15
  0
LINE
 8
EXHAUST_SIDE
10
3.31950868842425
20
1.5266288729221174
30
0.06250000000000216
11
3.31950868842425
21
1.5266288729221174
31
2.1649348980190553e-15
  0
LINE
 8
EXHAUST_SIDE
10
2.9093718964341733
20
0.712171667728767
30
0.062500000000002
11
2.9093718964341733
21
0.712171667728767
31
1.9984014443252818e-15
  0
LINE
 8
EXHAUST_SIDE
10
1.592846025303917
20
1.8712622271274526
30
0.06250000000000228
11
1.592846025303917
21
1.8712622271274526
31
4.996003610813204e-16
  0
LINE
 8
EXHAUST_SIDE
10
1.6254999999999988
20
1.8711355398769847
30
0.06250000000000228
11
1.6254999999999988
21
1.8711355398769847
31
4.996003610813204e-16
  0
LINE
 8
EXHAUST_SIDE
10
2.030255855510493
20
0.8648070563097789
30
0.06250000000000205
11
2.030255855510493
21
0.8648070563097789
31
2.0539125955565396e-15
  0
LINE
 8
EXHAUST_SIDE
10
1.282244144489507
20
0.971328180975263
30
0.06250000000000205
11
1.282244144489507
21
0.971328180975263
31
2.7755575615628914e-16
  0
LINE
 8
EXHAUST_SIDE
10
0.9497377728725453
20
1.039846025303917
30
0.06250000000000211
11
0.9497377728725453
21
1.039846025303917
31
3.3306690738754696e-16
  0
LINE
 8
EXHAUST_SIDE
10
1.3588641441758362
20
0.8416182117119044
30
0.06250000000000205
11
1.3588641441758362
21
0.8416182117119044
31
2.0539125955565396e-15
  0
LINE
 8
EXHAUST_SIDE
10
1.9740913796096393
20
1.8195648052911082
30
0.06250000000000228
11
1.9740913796096393
21
1.8195648052911082
31
2.275957200481571e-15
  0
LINE
 8
EXHAUST_SIDE
10
3.1732841685139412
20
0.8645414890564629
30
0.06250000000000205
11
3.1732841685139412
21
0.8645414890564629
31
2.0539125955565396e-15
  0
LINE
 8
EXHAUST_SIDE
10
3.7144913115757454
20
0.7413711270778833
30
0.062500000000002
11
3.7144913115757454
21
0.7413711270778833
31
1.9984014443252818e-15
  0
LINE
 8
EXHAUST_SIDE
10
3.275719077578067
20
0.7666530706876342
30
0.06250000000000205
11
3.275719077578067
21
0.7666530706876342
31
2.0539125955565396e-15
  0
LINE
 8
EXHAUST_SIDE
10
1.7868717498085687
20
1.8705094677532514
30
0.06250000000000228
11
1.7868717498085687
21
1.8705094677532514
31
2.275957200481571e-15
  0
LINE
 8
EXHAUST_SIDE
10
2.7801030609664394
20
1.1340000000000003
30
0.06250000000000033
11
2.7801030609664394
21
1.1340000000000003
31
3.3306690738754696e-16
  0
LINE
 8
EXHAUST_SIDE
10
4.108410830595023
20
1.584170847517811
30
0.06250000000000222
11
4.108410830595023
21
1.584170847517811
31
2.220446049250313e-15
  0
LINE
 8
EXHAUST_SIDE
10
2.374771784106354
20
1.4157632614220006
30
0.06250000000000216
11
2.374771784106354
21
1.4157632614220006
31
2.1649348980190553e-15
  0
LINE
 8
EXHAUST_SIDE
10
1.7485
20
1.5658647627149591
30
0.06250000000000222
11
1.7485
21
1.5658647627149591
31
2.220446049250313e-15
  0
LINE
 8
EXHAUST_SIDE
10
1.7485
20
1.870658338190129
30
0.06250000000000228
11
1.7485
21
1.870658338190129
31
2.275957200481571e-15
  0
LINE
 8
EXHAUST_SIDE
10
1.0990999657022158
20
1.5887462063312512
30
0.06250000000000222
11
1.0990999657022158
21
1.5887462063312512
31
4.440892098500626e-16
  0
LINE
 8
EXHAUST_SIDE
10
4.253896939033556
20
1.1340000000000003
30
0.06250000000000033
11
4.253896939033556
21
1.1340000000000003
31
3.3306690738754696e-16
  0
LINE
 8
EXHAUST_SIDE
10
3.188864144175838
20
0.8416182117119027
30
0.06250000000000205
11
3.188864144175838
21
0.8416182117119027
31
2.0539125955565396e-15
  0
LINE
 8
EXHAUST_SIDE
10
4.253509467753247
20
1.0341282501914293
30
0.06250000000000211
11
4.253509467753247
21
1.0341282501914293
31
2.1094237467877974e-15
  0
LINE
 8
EXHAUST_SIDE
10
3.606142128349333
20
0.7036351188196797
30
0.062500000000002
11
3.606142128349333
21
0.7036351188196797
31
1.9984014443252818e-15
  0
LINE
 8
EXHAUST_SIDE
10
1.7761421283493348
20
0.7036351188196797
30
0.062500000000002
11
1.7761421283493348
21
0.7036351188196797
31
1.9984014443252818e-15
  0
LINE
 8
EXHAUST_SIDE
10
3.1496530706876342
20
1.3752809224219318
30
0.06250000000000216
11
3.1496530706876342
21
1.3752809224219318
31
2.1649348980190553e-15
  0
LINE
 8
EXHAUST_SIDE
10
3.080085366559583
20
1.1340000000000003
30
0.06250000000000033
11
3.080085366559583
21
1.1340000000000003
31
3.3306690738754696e-16
  0
LINE
 8
EXHAUST_SIDE
10
2.0151358558241625
20
1.4263817882880971
30
0.06250000000000216
11
2.0151358558241625
21
1.4263817882880971
31
2.1649348980190553e-15
  0
LINE
 8
EXHAUST_SIDE
10
1.9282809224219335
20
1.5013469293123656
30
0.06250000000000216
11
1.9282809224219335
21
1.5013469293123656
31
2.1649348980190553e-15
  0
LINE
 8
EXHAUST_SIDE
10
4.202564805291104
20
0.8469086203903586
30
0.06250000000000205
11
4.202564805291104
21
0.8469086203903586
31
2.0539125955565396e-15
  0
LINE
 8
EXHAUST_SIDE
10
4.191685869724406
20
0.8282334518643886
30
0.06250000000000205
11
4.191685869724406
21
0.8282334518643886
31
2.0539125955565396e-15
  0
LINE
 8
EXHAUST_SIDE
10
1.5490169071077773
20
0.7167220158265062
30
0.062500000000002
11
1.5490169071077773
21
0.7167220158265062
31
1.9984014443252818e-15
  0
LINE
 8
EXHAUST_SIDE
10
3.9172884838110313
20
0.9608688711386257
30
0.06250000000000205
11
3.9172884838110313
21
0.9608688711386257
31
2.0539125955565396e-15
  0
LINE
 8
EXHAUST_SIDE
10
3.078227766002321
20
1.1592819436097512
30
0.06250000000000211
11
3.078227766002321
21
1.1592819436097512
31
2.1094237467877974e-15
  0
LINE
 8
EXHAUST_SIDE
10
2.8482851652177175
20
0.8189313932376789
30
0.06250000000000205
11
2.8482851652177175
21
0.8189313932376789
31
2.0539125955565396e-15
  0
LINE
 8
EXHAUST_SIDE
10
3.516999999999996
20
0.6970853665595866
30
0.062500000000002
11
3.516999999999996
21
0.6970853665595866
31
1.9984014443252818e-15
  0
LINE
 8
EXHAUST_SIDE
10
1.824983092892225
20
1.5512779841734954
30
0.06250000000000222
11
1.824983092892225
21
1.5512779841734954
31
2.220446049250313e-15
  0
LINE
 8
EXHAUST_SIDE
10
1.4457190775780688
20
0.766653070687636
30
0.06250000000000205
11
1.4457190775780688
21
0.766653070687636
31
2.0539125955565396e-15
  0
LINE
 8
EXHAUST_SIDE
10
1.6869999999999976
20
0.6970853665595875
30
0.062500000000002
11
1.6869999999999976
21
0.6970853665595875
31
1.9984014443252818e-15
  0
LINE
 8
EXHAUST_SIDE
10
1.8844913115757471
20
0.7413711270778833
30
0.062500000000002
11
1.8844913115757471
21
0.7413711270778833
31
1.9984014443252818e-15
  0
LINE
 8
EXHAUST_SIDE
10
3.491718056390244
20
0.6952277660023212
30
0.062500000000002
11
3.491718056390244
21
0.6952277660023212
31
1.9984014443252818e-15
  0
LINE
 8
EXHAUST_SIDE
10
1.6617180563902458
20
0.6952277660023221
30
0.062500000000002
11
1.6617180563902458
21
0.6952277660023221
31
1.9984014443252818e-15
  0
LINE
 8
EXHAUST_SIDE
10
3.112244144489509
20
0.9713281809752621
30
0.06250000000000205
11
3.112244144489509
21
0.9713281809752621
31
2.0539125955565396e-15
  0
LINE
 8
EXHAUST_SIDE
10
3.860255855510495
20
0.8648070563097789
30
0.06250000000000205
11
3.860255855510495
21
0.8648070563097789
31
2.0539125955565396e-15
  0
LINE
 8
EXHAUST_SIDE
10
3.9557722339976777
20
1.1087180563902486
30
0.06250000000000211
11
3.9557722339976777
21
1.1087180563902486
31
2.1094237467877974e-15
  0
LINE
 8
EXHAUST_SIDE
10
1.9793817882880944
20
0.805864144175839
30
0.06250000000000205
11
1.9793817882880944
21
0.805864144175839
31
2.0539125955565396e-15
  0
LINE
 8
EXHAUST_SIDE
10
4.954000000000001
20
0.31300000000000006
30
0.06250000000000017
11
4.97030559984146
21
0.3108533270562114
31
0.06250000000000017
  0
LINE
 8
EXHAUST_SIDE
10
4.97030559984146
20
0.3108533270562114
30
0.06250000000000017
11
4.985500000000002
21
0.3045596004384198
31
0.06250000000000017
  0
LINE
 8
EXHAUST_SIDE
10
4.985500000000002
20
0.3045596004384198
30
0.06250000000000017
11
4.998547727214753
21
0.29454772721475264
31
0.06250000000000017
  0
LINE
 8
EXHAUST_SIDE
10
4.998547727214753
20
0.29454772721475264
30
0.06250000000000017
11
5.008559600438421
21
0.2815000000000002
31
0.06250000000000017
  0
LINE
 8
EXHAUST_SIDE
10
5.008559600438421
20
0.2815000000000002
30
0.06250000000000017
11
5.014853327056212
21
0.26630559984145885
31
0.06250000000000017
  0
LINE
 8
EXHAUST_SIDE
10
5.014853327056212
20
0.26630559984145885
30
0.06250000000000017
11
5.0169999999999995
21
0.2500000000000001
31
0.06250000000000017
  0
LINE
 8
EXHAUST_SIDE
10
5.0169999999999995
20
0.2500000000000001
30
0.06250000000000017
11
5.014853327056212
21
0.23369440015854137
31
0.06250000000000011
  0
LINE
 8
EXHAUST_SIDE
10
5.014853327056212
20
0.23369440015854137
30
0.06250000000000011
11
5.008559600438421
21
0.21850000000000014
31
0.06250000000000011
  0
LINE
 8
EXHAUST_SIDE
10
5.008559600438421
20
0.21850000000000014
30
0.06250000000000011
11
4.998547727214753
21
0.20545227278524758
31
0.06250000000000011
  0
LINE
 8
EXHAUST_SIDE
10
4.998547727214753
20
0.20545227278524758
30
0.06250000000000011
11
4.985500000000002
21
0.19544039956158044
31
0.06250000000000011
  0
LINE
 8
EXHAUST_SIDE
10
4.985500000000002
20
0.19544039956158044
30
0.06250000000000011
11
4.97030559984146
21
0.18914667294378884
31
0.06250000000000011
  0
LINE
 8
EXHAUST_SIDE
10
4.97030559984146
20
0.18914667294378884
30
0.06250000000000011
11
4.954000000000001
21
0.18700000000000017
31
0.06250000000000011
  0
LINE
 8
EXHAUST_SIDE
10
4.954000000000001
20
0.18700000000000017
30
0.06250000000000011
11
4.937694400158541
21
0.18914667294378884
31
0.06250000000000011
  0
LINE
 8
EXHAUST_SIDE
10
4.937694400158541
20
0.18914667294378884
30
0.06250000000000011
11
4.922499999999999
21
0.19544039956158044
31
0.06250000000000011
  0
LINE
 8
EXHAUST_SIDE
10
4.922499999999999
20
0.19544039956158044
30
0.06250000000000011
11
4.9094522727852485
21
0.20545227278524758
31
0.06250000000000011
  0
LINE
 8
EXHAUST_SIDE
10
4.9094522727852485
20
0.20545227278524758
30
0.06250000000000011
11
4.8994403995615805
21
0.21850000000000003
31
0.06250000000000011
  0
LINE
 8
EXHAUST_SIDE
10
4.8994403995615805
20
0.21850000000000003
30
0.06250000000000011
11
4.893146672943789
21
0.23369440015854126
31
0.06250000000000011
  0
LINE
 8
EXHAUST_SIDE
10
4.893146672943789
20
0.23369440015854126
30
0.06250000000000011
11
4.891000000000002
21
0.2500000000000001
31
0.06250000000000017
  0
LINE
 8
EXHAUST_SIDE
10
4.891000000000002
20
0.2500000000000001
30
0.06250000000000017
11
4.893146672943789
21
0.26630559984145885
31
0.06250000000000017
  0
LINE
 8
EXHAUST_SIDE
10
4.893146672943789
20
0.26630559984145885
30
0.06250000000000017
11
4.8994403995615805
21
0.2815000000000001
31
0.06250000000000017
  0
LINE
 8
EXHAUST_SIDE
10
4.8994403995615805
20
0.2815000000000001
30
0.06250000000000017
11
4.9094522727852485
21
0.29454772721475264
31
0.06250000000000017
  0
LINE
 8
EXHAUST_SIDE
10
4.9094522727852485
20
0.29454772721475264
30
0.06250000000000017
11
4.922499999999999
21
0.3045596004384198
31
0.06250000000000017
  0
LINE
 8
EXHAUST_SIDE
10
4.922499999999999
20
0.3045596004384198
30
0.06250000000000017
11
4.937694400158541
21
0.3108533270562114
31
0.06250000000000017
  0
LINE
 8
EXHAUST_SIDE
10
4.937694400158541
20
0.3108533270562114
30
0.06250000000000017
11
4.954000000000001
21
0.31300000000000006
31
0.06250000000000017
  0
LINE
 8
EXHAUST_SIDE
10
5.204000000000001
20
2.143
30
0.06250000000000056
11
0.0
21
2.143
31
0.06250000000000056
  0
LINE
 8
EXHAUST_SIDE
10
0.0
20
1.1102230246251565e-16
30
0.06250000000000011
11
0.0
21
2.143
31
0.06250000000000056
  0
LINE
 8
EXHAUST_SIDE
10
3.9539146334404123
20
1.1340000000000003
30
0.06250000000000033
11
3.9557722339976777
21
1.1087180563902486
31
0.06250000000000211
  0
LINE
 8
EXHAUST_SIDE
10
3.94736488118032
20
1.223142128349334
30
0.06250000000000211
11
3.9539146334404123
21
1.1340000000000003
31
0.06250000000000033
  0
LINE
 8
EXHAUST_SIDE
10
3.909628872922113
20
1.3314913115757463
30
0.06250000000000216
11
3.94736488118032
21
1.223142128349334
31
0.06250000000000211
  0
LINE
 8
EXHAUST_SIDE
10
3.845135855824161
20
1.4263817882880971
30
0.06250000000000216
11
3.909628872922113
21
1.3314913115757463
31
0.06250000000000216
  0
LINE
 8
EXHAUST_SIDE
10
3.758280922421932
20
1.5013469293123656
30
0.06250000000000216
11
3.845135855824161
21
1.4263817882880971
31
0.06250000000000216
  0
LINE
 8
EXHAUST_SIDE
10
3.6549830928922233
20
1.5512779841734954
30
0.06250000000000222
11
3.758280922421932
21
1.5013469293123656
31
0.06250000000000216
  0
LINE
 8
EXHAUST_SIDE
10
3.5784999999999982
20
1.5658647627149591
30
0.06250000000000222
11
3.6549830928922233
21
1.5512779841734954
31
0.06250000000000222
  0
LINE
 8
EXHAUST_SIDE
10
3.5784999999999982
20
1.870658338190129
30
0.06250000000000228
11
3.5784999999999982
21
1.5658647627149591
31
0.06250000000000222
  0
LINE
 8
EXHAUST_SIDE
10
3.5784999999999982
20
1.870658338190129
30
0.06250000000000228
11
3.616871749808567
21
1.8705094677532514
31
0.06250000000000228
  0
LINE
 8
EXHAUST_SIDE
10
3.616871749808567
20
1.8705094677532514
30
0.06250000000000228
11
3.8040913796096376
21
1.8195648052911082
31
0.06250000000000228
  0
LINE
 8
EXHAUST_SIDE
10
3.8040913796096376
20
1.8195648052911082
30
0.06250000000000228
11
3.9717462063312468
21
1.7219000342977857
31
0.06250000000000222
  0
LINE
 8
EXHAUST_SIDE
10
3.9717462063312468
20
1.7219000342977857
30
0.06250000000000222
11
4.108410830595023
21
1.584170847517811
31
0.06250000000000222
  0
LINE
 8
EXHAUST_SIDE
10
4.108410830595023
20
1.584170847517811
30
0.06250000000000222
11
4.204771784106356
21
1.4157632614220006
31
0.06250000000000216
  0
LINE
 8
EXHAUST_SIDE
10
4.204771784106356
20
1.4157632614220006
30
0.06250000000000216
11
4.254262227127448
21
1.2281539746960846
31
0.06250000000000211
  0
LINE
 8
EXHAUST_SIDE
10
4.253896939033556
20
1.1340000000000003
30
0.06250000000000033
11
4.254262227127448
21
1.2281539746960846
31
0.06250000000000211
  0
LINE
 8
EXHAUST_SIDE
10
4.253509467753247
20
1.0341282501914293
30
0.06250000000000211
11
4.253896939033556
21
1.1340000000000003
31
0.06250000000000033
  0
LINE
 8
EXHAUST_SIDE
10
4.253509467753247
20
1.0341282501914293
30
0.06250000000000211
11
4.202564805291104
21
0.8469086203903586
31
0.06250000000000205
  0
LINE
 8
EXHAUST_SIDE
10
4.202564805291104
20
0.8469086203903586
30
0.06250000000000205
11
4.191685869724406
21
0.8282334518643886
31
0.06250000000000205
  0
LINE
 8
EXHAUST_SIDE
10
3.9172884838110313
20
0.9608688711386257
30
0.06250000000000205
11
4.191685869724406
21
0.8282334518643886
31
0.06250000000000205
  0
LINE
 8
EXHAUST_SIDE
10
3.9342779841734945
20
0.9960169071077765
30
0.06250000000000205
11
3.9172884838110313
21
0.9608688711386257
31
0.06250000000000205
  0
LINE
 8
EXHAUST_SIDE
10
3.9557722339976777
20
1.1087180563902486
30
0.06250000000000211
11
3.9342779841734945
21
0.9960169071077765
31
0.06250000000000205
  0
LINE
 8
EXHAUST_SIDE
10
3.080085366559583
20
1.1340000000000003
30
0.06250000000000033
11
3.078227766002321
21
1.1592819436097512
31
0.06250000000000211
  0
LINE
 8
EXHAUST_SIDE
10
3.086635118819679
20
1.0448578716506658
30
0.06250000000000211
11
3.080085366559583
21
1.1340000000000003
31
0.06250000000000033
  0
LINE
 8
EXHAUST_SIDE
10
3.112244144489509
20
0.9713281809752621
30
0.06250000000000205
11
3.086635118819679
21
1.0448578716506658
31
0.06250000000000211
  0
LINE
 8
EXHAUST_SIDE
10
2.8482851652177175
20
0.8189313932376789
30
0.06250000000000205
11
3.112244144489509
21
0.9713281809752621
31
0.06250000000000205
  0
LINE
 8
EXHAUST_SIDE
10
2.8482851652177175
20
0.8189313932376789
30
0.06250000000000205
11
2.829228215893643
21
0.8522367385779992
31
0.06250000000000205
  0
LINE
 8
EXHAUST_SIDE
10
2.829228215893643
20
0.8522367385779992
30
0.06250000000000205
11
2.7797377728725436
21
1.0398460253039152
31
0.06250000000000211
  0
LINE
 8
EXHAUST_SIDE
10
2.7797377728725436
20
1.0398460253039152
30
0.06250000000000211
11
2.7801030609664394
21
1.1340000000000003
31
0.06250000000000033
  0
LINE
 8
EXHAUST_SIDE
10
2.7801030609664394
20
1.1340000000000003
30
0.06250000000000033
11
2.7804905322467484
21
1.2338717498085705
31
0.06250000000000211
  0
LINE
 8
EXHAUST_SIDE
10
2.7804905322467484
20
1.2338717498085705
30
0.06250000000000211
11
2.831435194708888
21
1.4210913796096412
31
0.06250000000000216
  0
LINE
 8
EXHAUST_SIDE
10
2.929099965702214
20
1.5887462063312503
30
0.06250000000000222
11
2.831435194708888
21
1.4210913796096412
31
0.06250000000000216
  0
LINE
 8
EXHAUST_SIDE
10
2.929099965702214
20
1.5887462063312503
30
0.06250000000000222
11
3.0668291524821853
21
1.725410830595023
31
0.06250000000000222
  0
LINE
 8
EXHAUST_SIDE
10
3.0668291524821853
20
1.725410830595023
30
0.06250000000000222
11
3.2352367385779957
21
1.8217717841063568
31
0.06250000000000228
  0
LINE
 8
EXHAUST_SIDE
10
3.2352367385779957
20
1.8217717841063568
30
0.06250000000000228
11
3.4228460253039152
21
1.8712622271274526
31
0.06250000000000228
  0
LINE
 8
EXHAUST_SIDE
10
3.4228460253039152
20
1.8712622271274526
30
0.06250000000000228
11
3.455499999999997
21
1.8711355398769847
31
0.06250000000000228
  0
LINE
 8
EXHAUST_SIDE
10
3.455499999999997
20
1.5663958972215823
30
0.06250000000000222
11
3.455499999999997
21
1.8711355398769847
31
0.06250000000000228
  0
LINE
 8
EXHAUST_SIDE
10
3.427857871650666
20
1.564364881180321
30
0.06250000000000222
11
3.455499999999997
21
1.5663958972215823
31
0.06250000000000222
  0
LINE
 8
EXHAUST_SIDE
10
3.31950868842425
20
1.5266288729221174
30
0.06250000000000216
11
3.427857871650666
21
1.564364881180321
31
0.06250000000000222
  0
LINE
 8
EXHAUST_SIDE
10
3.224618211711899
20
1.4621358558241617
30
0.06250000000000216
11
3.31950868842425
21
1.5266288729221174
31
0.06250000000000216
  0
LINE
 8
EXHAUST_SIDE
10
3.1496530706876342
20
1.3752809224219318
30
0.06250000000000216
11
3.224618211711899
21
1.4621358558241617
31
0.06250000000000216
  0
LINE
 8
EXHAUST_SIDE
10
3.099722015826501
20
1.2719830928922233
30
0.06250000000000211
11
3.1496530706876342
21
1.3752809224219318
31
0.06250000000000216
  0
LINE
 8
EXHAUST_SIDE
10
3.078227766002321
20
1.1592819436097512
30
0.06250000000000211
11
3.099722015826501
21
1.2719830928922233
31
0.06250000000000211
  0
LINE
 8
EXHAUST_SIDE
10
4.124214834782279
20
0.7124102685721958
30
0.062500000000002
11
3.860255855510495
21
0.8648070563097789
31
0.06250000000000205
  0
LINE
 8
EXHAUST_SIDE
10
4.104900034297785
20
0.6792537936687495
30
0.062500000000002
11
4.124214834782279
21
0.7124102685721958
31
0.062500000000002
  0
LINE
 8
EXHAUST_SIDE
10
4.104900034297785
20
0.6792537936687495
30
0.062500000000002
11
3.96717084751781
21
0.5425891694049767
31
0.062500000000002
  0
LINE
 8
EXHAUST_SIDE
10
3.96717084751781
20
0.5425891694049767
30
0.062500000000002
11
3.798763261421996
21
0.4462282158936439
31
0.06250000000000194
  0
LINE
 8
EXHAUST_SIDE
10
3.798763261421996
20
0.4462282158936439
30
0.06250000000000194
11
3.61115397469608
21
0.3967377728725481
31
0.06250000000000194
  0
LINE
 8
EXHAUST_SIDE
10
3.61115397469608
20
0.3967377728725481
30
0.06250000000000194
11
3.5169999999999995
21
0.397103060966443
31
0.06250000000000194
  0
LINE
 8
EXHAUST_SIDE
10
3.5169999999999995
20
0.397103060966443
30
0.06250000000000194
11
3.4171282501914284
21
0.39749053224674835
31
0.06250000000000194
  0
LINE
 8
EXHAUST_SIDE
10
3.4171282501914284
20
0.39749053224674835
30
0.06250000000000194
11
3.2299086203903578
21
0.4484351947088916
31
0.06250000000000194
  0
LINE
 8
EXHAUST_SIDE
10
3.2299086203903578
20
0.4484351947088916
30
0.06250000000000194
11
3.0622537936687486
21
0.5460999657022141
31
0.062500000000002
  0
LINE
 8
EXHAUST_SIDE
10
3.0622537936687486
20
0.5460999657022141
30
0.062500000000002
11
2.9255891694049723
21
0.6838291524821889
31
0.062500000000002
  0
LINE
 8
EXHAUST_SIDE
10
2.9255891694049723
20
0.6838291524821889
30
0.062500000000002
11
2.9093718964341733
21
0.712171667728767
31
0.062500000000002
  0
LINE
 8
EXHAUST_SIDE
10
3.1732841685139412
20
0.8645414890564629
30
0.06250000000000205
11
2.9093718964341733
21
0.712171667728767
31
0.062500000000002
  0
LINE
 8
EXHAUST_SIDE
10
3.188864144175838
20
0.8416182117119027
30
0.06250000000000205
11
3.1732841685139412
21
0.8645414890564629
31
0.06250000000000205
  0
LINE
 8
EXHAUST_SIDE
10
3.275719077578067
20
0.7666530706876342
30
0.06250000000000205
11
3.188864144175838
21
0.8416182117119027
31
0.06250000000000205
  0
LINE
 8
EXHAUST_SIDE
10
3.3790169071077756
20
0.7167220158265044
30
0.062500000000002
11
3.275719077578067
21
0.7666530706876342
31
0.06250000000000205
  0
LINE
 8
EXHAUST_SIDE
10
3.491718056390244
20
0.6952277660023212
30
0.062500000000002
11
3.3790169071077756
21
0.7167220158265044
31
0.062500000000002
  0
LINE
 8
EXHAUST_SIDE
10
3.516999999999996
20
0.6970853665595866
30
0.062500000000002
11
3.491718056390244
21
0.6952277660023212
31
0.062500000000002
  0
LINE
 8
EXHAUST_SIDE
10
3.606142128349333
20
0.7036351188196797
30
0.062500000000002
11
3.516999999999996
21
0.6970853665595866
31
0.062500000000002
  0
LINE
 8
EXHAUST_SIDE
10
3.7144913115757454
20
0.7413711270778833
30
0.062500000000002
11
3.606142128349333
21
0.7036351188196797
31
0.062500000000002
  0
LINE
 8
EXHAUST_SIDE
10
3.8093817882880927
20
0.805864144175839
30
0.06250000000000205
11
3.7144913115757454
21
0.7413711270778833
31
0.062500000000002
  0
LINE
 8
EXHAUST_SIDE
10
3.860255855510495
20
0.8648070563097789
30
0.06250000000000205
11
3.8093817882880927
21
0.805864144175839
31
0.06250000000000205
  0
LINE
 8
EXHAUST_SIDE
10
0.9501030609664411
20
1.1340000000000003
30
0.06250000000000033
11
0.9497377728725453
21
1.039846025303917
31
0.06250000000000211
  0
LINE
 8
EXHAUST_SIDE
10
0.9504905322467501
20
1.2338717498085723
30
0.06250000000000211
11
0.9501030609664411
21
1.1340000000000003
31
0.06250000000000033
  0
LINE
 8
EXHAUST_SIDE
10
0.9504905322467501
20
1.2338717498085723
30
0.06250000000000211
11
1.0014351947088898
21
1.421091379609642
31
0.06250000000000216
  0
LINE
 8
EXHAUST_SIDE
10
1.0014351947088898
20
1.421091379609642
30
0.06250000000000216
11
1.0990999657022158
21
1.5887462063312512
31
0.06250000000000222
  0
LINE
 8
EXHAUST_SIDE
10
1.0990999657022158
20
1.5887462063312512
30
0.06250000000000222
11
1.236829152482187
21
1.725410830595024
31
0.06250000000000222
  0
LINE
 8
EXHAUST_SIDE
10
1.236829152482187
20
1.725410830595024
30
0.06250000000000222
11
1.4052367385779974
21
1.8217717841063568
31
0.06250000000000228
  0
LINE
 8
EXHAUST_SIDE
10
1.4052367385779974
20
1.8217717841063568
30
0.06250000000000228
11
1.592846025303917
21
1.8712622271274526
31
0.06250000000000228
  0
LINE
 8
EXHAUST_SIDE
10
1.592846025303917
20
1.8712622271274526
30
0.06250000000000228
11
1.6254999999999988
21
1.8711355398769847
31
0.06250000000000228
  0
LINE
 8
EXHAUST_SIDE
10
1.6254999999999988
20
1.5663958972215823
30
0.06250000000000222
11
1.6254999999999988
21
1.8711355398769847
31
0.06250000000000228
  0
LINE
 8
EXHAUST_SIDE
10
1.5978578716506675
20
1.564364881180321
30
0.06250000000000222
11
1.6254999999999988
21
1.5663958972215823
31
0.06250000000000222
  0
LINE
 8
EXHAUST_SIDE
10
1.4895086884242517
20
1.5266288729221174
30
0.06250000000000216
11
1.5978578716506675
21
1.564364881180321
31
0.06250000000000222
  0
LINE
 8
EXHAUST_SIDE
10
1.3946182117119008
20
1.4621358558241617
30
0.06250000000000216
11
1.4895086884242517
21
1.5266288729221174
31
0.06250000000000216
  0
LINE
 8
EXHAUST_SIDE
10
1.319653070687636
20
1.3752809224219327
30
0.06250000000000216
11
1.3946182117119008
21
1.4621358558241617
31
0.06250000000000216
  0
LINE
 8
EXHAUST_SIDE
10
1.2697220158265026
20
1.2719830928922242
30
0.06250000000000211
11
1.319653070687636
21
1.3752809224219327
31
0.06250000000000216
  0
LINE
 8
EXHAUST_SIDE
10
1.2482277660023193
20
1.1592819436097521
30
0.06250000000000211
11
1.2697220158265026
21
1.2719830928922242
31
0.06250000000000211
  0
LINE
 8
EXHAUST_SIDE
10
1.2500853665595848
20
1.1340000000000003
30
0.06250000000000033
11
1.2482277660023193
21
1.1592819436097521
31
0.06250000000000211
  0
LINE
 8
EXHAUST_SIDE
10
1.2566351188196805
20
1.0448578716506667
30
0.06250000000000211
11
1.2500853665595848
21
1.1340000000000003
31
0.06250000000000033
  0
LINE
 8
EXHAUST_SIDE
10
1.282244144489507
20
0.971328180975263
30
0.06250000000000205
11
1.2566351188196805
21
1.0448578716506667
31
0.06250000000000211
  0
LINE
 8
EXHAUST_SIDE
10
1.0182851652177192
20
0.8189313932376807
30
0.06250000000000205
11
1.282244144489507
21
0.971328180975263
31
0.06250000000000205
  0
LINE
 8
EXHAUST_SIDE
10
1.0182851652177192
20
0.8189313932376807
30
0.06250000000000205
11
0.9992282158936447
21
0.852236738578001
31
0.06250000000000205
  0
LINE
 8
EXHAUST_SIDE
10
0.9497377728725453
20
1.039846025303917
30
0.06250000000000211
11
0.9992282158936447
21
0.852236738578001
31
0.06250000000000205
  0
LINE
 8
EXHAUST_SIDE
10
2.123914633440414
20
1.1340000000000003
30
0.06250000000000033
11
2.1257722339976795
21
1.1087180563902486
31
0.06250000000000211
  0
LINE
 8
EXHAUST_SIDE
10
2.117364881180322
20
1.223142128349334
30
0.06250000000000211
11
2.123914633440414
21
1.1340000000000003
31
0.06250000000000033
  0
LINE
 8
EXHAUST_SIDE
10
2.0796288729221146
20
1.3314913115757463
30
0.06250000000000216
11
2.117364881180322
21
1.223142128349334
31
0.06250000000000211
  0
LINE
 8
EXHAUST_SIDE
10
2.0151358558241625
20
1.4263817882880971
30
0.06250000000000216
11
2.0796288729221146
21
1.3314913115757463
31
0.06250000000000216
  0
LINE
 8
EXHAUST_SIDE
10
1.9282809224219335
20
1.5013469293123656
30
0.06250000000000216
11
2.0151358558241625
21
1.4263817882880971
31
0.06250000000000216
  0
LINE
 8
EXHAUST_SIDE
10
1.824983092892225
20
1.5512779841734954
30
0.06250000000000222
11
1.9282809224219335
21
1.5013469293123656
31
0.06250000000000216
  0
LINE
 8
EXHAUST_SIDE
10
1.7485
20
1.5658647627149591
30
0.06250000000000222
11
1.824983092892225
21
1.5512779841734954
31
0.06250000000000222
  0
LINE
 8
EXHAUST_SIDE
10
1.7485
20
1.870658338190129
30
0.06250000000000228
11
1.7485
21
1.5658647627149591
31
0.06250000000000222
  0
LINE
 8
EXHAUST_SIDE
10
1.7485
20
1.870658338190129
30
0.06250000000000228
11
1.7868717498085687
21
1.8705094677532514
31
0.06250000000000228
  0
LINE
 8
EXHAUST_SIDE
10
1.7868717498085687
20
1.8705094677532514
30
0.06250000000000228
11
1.9740913796096393
21
1.8195648052911082
31
0.06250000000000228
  0
LINE
 8
EXHAUST_SIDE
10
1.9740913796096393
20
1.8195648052911082
30
0.06250000000000228
11
2.1417462063312485
21
1.7219000342977857
31
0.06250000000000222
  0
LINE
 8
EXHAUST_SIDE
10
2.1417462063312485
20
1.7219000342977857
30
0.06250000000000222
11
2.278410830595025
21
1.584170847517811
31
0.06250000000000222
  0
LINE
 8
EXHAUST_SIDE
10
2.374771784106354
20
1.4157632614220006
30
0.06250000000000216
11
2.278410830595025
21
1.584170847517811
31
0.06250000000000222
  0
LINE
 8
EXHAUST_SIDE
10
2.374771784106354
20
1.4157632614220006
30
0.06250000000000216
11
2.42426222712745
21
1.2281539746960846
31
0.06250000000000211
  0
LINE
 8
EXHAUST_SIDE
10
2.42426222712745
20
1.2281539746960846
30
0.06250000000000211
11
2.4238969390335576
21
1.1340000000000003
31
0.06250000000000033
  0
LINE
 8
EXHAUST_SIDE
10
2.4238969390335576
20
1.1340000000000003
30
0.06250000000000033
11
2.4235094677532487
21
1.0341282501914293
31
0.06250000000000211
  0
LINE
 8
EXHAUST_SIDE
10
2.4235094677532487
20
1.0341282501914293
30
0.06250000000000211
11
2.3725648052911055
21
0.8469086203903586
31
0.06250000000000205
  0
LINE
 8
EXHAUST_SIDE
10
2.361685869724404
20
0.8282334518643886
30
0.06250000000000205
11
2.3725648052911055
21
0.8469086203903586
31
0.06250000000000205
  0
LINE
 8
EXHAUST_SIDE
10
2.361685869724404
20
0.8282334518643886
30
0.06250000000000205
11
2.087288483811033
21
0.9608688711386257
31
0.06250000000000205
  0
LINE
 8
EXHAUST_SIDE
10
2.104277984173496
20
0.9960169071077765
30
0.06250000000000205
11
2.087288483811033
21
0.9608688711386257
31
0.06250000000000205
  0
LINE
 8
EXHAUST_SIDE
10
2.1257722339976795
20
1.1087180563902486
30
0.06250000000000211
11
2.104277984173496
21
0.9960169071077765
31
0.06250000000000205
  0
LINE
 8
EXHAUST_SIDE
10
2.294214834782281
20
0.7124102685721958
30
0.062500000000002
11
2.030255855510493
21
0.8648070563097789
31
0.06250000000000205
  0
LINE
 8
EXHAUST_SIDE
10
2.294214834782281
20
0.7124102685721958
30
0.062500000000002
11
2.2749000342977865
21
0.6792537936687495
31
0.062500000000002
  0
LINE
 8
EXHAUST_SIDE
10
2.2749000342977865
20
0.6792537936687495
30
0.062500000000002
11
2.1371708475178117
21
0.5425891694049767
31
0.062500000000002
  0
LINE
 8
EXHAUST_SIDE
10
2.1371708475178117
20
0.5425891694049767
30
0.062500000000002
11
1.9687632614219979
21
0.4462282158936439
31
0.06250000000000194
  0
LINE
 8
EXHAUST_SIDE
10
1.9687632614219979
20
0.4462282158936439
30
0.06250000000000194
11
1.7811539746960818
21
0.3967377728725481
31
0.06250000000000194
  0
LINE
 8
EXHAUST_SIDE
10
1.7811539746960818
20
0.3967377728725481
30
0.06250000000000194
11
1.6869999999999976
21
0.3971030609664439
31
0.06250000000000194
  0
LINE
 8
EXHAUST_SIDE
10
1.6869999999999976
20
0.3971030609664439
30
0.06250000000000194
11
1.5871282501914266
21
0.39749053224674924
31
0.06250000000000194
  0
LINE
 8
EXHAUST_SIDE
10
1.5871282501914266
20
0.39749053224674924
30
0.06250000000000194
11
1.3999086203903595
21
0.44843519470889337
31
0.06250000000000194
  0
LINE
 8
EXHAUST_SIDE
10
1.3999086203903595
20
0.44843519470889337
30
0.06250000000000194
11
1.2322537936687468
21
0.5460999657022159
31
0.062500000000002
  0
LINE
 8
EXHAUST_SIDE
10
1.095589169404974
20
0.6838291524821907
30
0.062500000000002
11
1.2322537936687468
21
0.5460999657022159
31
0.062500000000002
  0
LINE
 8
EXHAUST_SIDE
10
1.095589169404974
20
0.6838291524821907
30
0.062500000000002
11
1.0793718964341714
21
0.7121716677287688
31
0.062500000000002
  0
LINE
 8
EXHAUST_SIDE
10
1.343284168513943
20
0.8645414890564647
30
0.06250000000000205
11
1.0793718964341714
21
0.7121716677287688
31
0.062500000000002
  0
LINE
 8
EXHAUST_SIDE
10
1.3588641441758362
20
0.8416182117119044
30
0.06250000000000205
11
1.343284168513943
21
0.8645414890564647
31
0.06250000000000205
  0
LINE
 8
EXHAUST_SIDE
10
1.4457190775780688
20
0.766653070687636
30
0.06250000000000205
11
1.3588641441758362
21
0.8416182117119044
31
0.06250000000000205
  0
LINE
 8
EXHAUST_SIDE
10
1.5490169071077773
20
0.7167220158265062
30
0.062500000000002
11
1.4457190775780688
21
0.766653070687636
31
0.06250000000000205
  0
LINE
 8
EXHAUST_SIDE
10
1.6617180563902458
20
0.6952277660023221
30
0.062500000000002
11
1.5490169071077773
21
0.7167220158265062
31
0.062500000000002
  0
LINE
 8
EXHAUST_SIDE
10
1.6869999999999976
20
0.6970853665595875
30
0.062500000000002
11
1.6617180563902458
21
0.6952277660023221
31
0.062500000000002
  0
LINE
 8
EXHAUST_SIDE
10
1.7761421283493348
20
0.7036351188196797
30
0.062500000000002
11
1.6869999999999976
21
0.6970853665595875
31
0.062500000000002
  0
LINE
 8
EXHAUST_SIDE
10
1.8844913115757471
20
0.7413711270778833
30
0.062500000000002
11
1.7761421283493348
21
0.7036351188196797
31
0.062500000000002
  0
LINE
 8
EXHAUST_SIDE
10
1.9793817882880944
20
0.805864144175839
30
0.06250000000000205
11
1.8844913115757471
21
0.7413711270778833
31
0.062500000000002
  0
LINE
 8
EXHAUST_SIDE
10
2.030255855510493
20
0.8648070563097789
30
0.06250000000000205
11
1.9793817882880944
21
0.805864144175839
31
0.06250000000000205
  0
LINE
 8
EXHAUST_SIDE
10
0.18914667294378873
20
0.23369440015854126
30
0.06250000000000011
11
0.18700000000000117
21
0.2500000000000001
31
0.06250000000000017
  0
LINE
 8
EXHAUST_SIDE
10
0.18700000000000117
20
0.2500000000000001
30
0.06250000000000017
11
0.18914667294378873
21
0.26630559984145885
31
0.06250000000000017
  0
LINE
 8
EXHAUST_SIDE
10
0.18914667294378873
20
0.26630559984145885
30
0.06250000000000017
11
0.19544039956157988
21
0.2815000000000001
31
0.06250000000000017
  0
LINE
 8
EXHAUST_SIDE
10
0.19544039956157988
20
0.2815000000000001
30
0.06250000000000017
11
0.2054522727852479
21
0.29454772721475264
31
0.06250000000000017
  0
LINE
 8
EXHAUST_SIDE
10
0.2054522727852479
20
0.29454772721475264
30
0.06250000000000017
11
0.2184999999999988
21
0.3045596004384198
31
0.06250000000000017
  0
LINE
 8
EXHAUST_SIDE
10
0.2184999999999988
20
0.3045596004384198
30
0.06250000000000017
11
0.23369440015854082
21
0.3108533270562114
31
0.06250000000000017
  0
LINE
 8
EXHAUST_SIDE
10
0.23369440015854082
20
0.3108533270562114
30
0.06250000000000017
11
0.25
21
0.31300000000000006
31
0.06250000000000017
  0
LINE
 8
EXHAUST_SIDE
10
0.25
20
0.31300000000000006
30
0.06250000000000017
11
0.2663055998414592
21
0.3108533270562114
31
0.06250000000000017
  0
LINE
 8
EXHAUST_SIDE
10
0.2663055998414592
20
0.3108533270562114
30
0.06250000000000017
11
0.2815000000000012
21
0.3045596004384198
31
0.06250000000000017
  0
LINE
 8
EXHAUST_SIDE
10
0.2815000000000012
20
0.3045596004384198
30
0.06250000000000017
11
0.2945477272147521
21
0.29454772721475264
31
0.06250000000000017
  0
LINE
 8
EXHAUST_SIDE
10
0.2945477272147521
20
0.29454772721475264
30
0.06250000000000017
11
0.3045596004384201
21
0.2815000000000002
31
0.06250000000000017
  0
LINE
 8
EXHAUST_SIDE
10
0.3045596004384201
20
0.2815000000000002
30
0.06250000000000017
11
0.31085332705621127
21
0.26630559984145885
31
0.06250000000000017
  0
LINE
 8
EXHAUST_SIDE
10
0.31085332705621127
20
0.26630559984145885
30
0.06250000000000017
11
0.31299999999999883
21
0.2500000000000001
31
0.06250000000000017
  0
LINE
 8
EXHAUST_SIDE
10
0.31299999999999883
20
0.2500000000000001
30
0.06250000000000017
11
0.31085332705621127
21
0.23369440015854137
31
0.06250000000000011
  0
LINE
 8
EXHAUST_SIDE
10
0.31085332705621127
20
0.23369440015854137
30
0.06250000000000011
11
0.3045596004384201
21
0.21850000000000014
31
0.06250000000000011
  0
LINE
 8
EXHAUST_SIDE
10
0.3045596004384201
20
0.21850000000000014
30
0.06250000000000011
11
0.2945477272147521
21
0.20545227278524758
31
0.06250000000000011
  0
LINE
 8
EXHAUST_SIDE
10
0.2945477272147521
20
0.20545227278524758
30
0.06250000000000011
11
0.2815000000000012
21
0.19544039956158044
31
0.06250000000000011
  0
LINE
 8
EXHAUST_SIDE
10
0.2815000000000012
20
0.19544039956158044
30
0.06250000000000011
11
0.2663055998414592
21
0.18914667294378884
31
0.06250000000000011
  0
LINE
 8
EXHAUST_SIDE
10
0.2663055998414592
20
0.18914667294378884
30
0.06250000000000011
11
0.25
21
0.18700000000000017
31
0.06250000000000011
  0
LINE
 8
EXHAUST_SIDE
10
0.25
20
0.18700000000000017
30
0.06250000000000011
11
0.23369440015854082
21
0.18914667294378884
31
0.06250000000000011
  0
LINE
 8
EXHAUST_SIDE
10
0.23369440015854082
20
0.18914667294378884
30
0.06250000000000011
11
0.2184999999999988
21
0.19544039956158044
31
0.06250000000000011
  0
LINE
 8
EXHAUST_SIDE
10
0.2184999999999988
20
0.19544039956158044
30
0.06250000000000011
11
0.2054522727852479
21
0.20545227278524758
31
0.06250000000000011
  0
LINE
 8
EXHAUST_SIDE
10
0.2054522727852479
20
0.20545227278524758
30
0.06250000000000011
11
0.19544039956157988
21
0.21850000000000003
31
0.06250000000000011
  0
LINE
 8
EXHAUST_SIDE
10
0.19544039956157988
20
0.21850000000000003
30
0.06250000000000011
11
0.18914667294378873
21
0.23369440015854126
31
0.06250000000000011
  0
LINE
 8
EXHAUST_SIDE
10
0.25
20
0.18700000000000017
30
-0.000500000000000056
11
0.23369440015854082
21
0.18914667294378884
31
-0.000500000000000056
  0
LINE
 8
EXHAUST_SIDE
10
0.2663055998414592
20
0.18914667294378884
30
-0.000500000000000056
11
0.25
21
0.18700000000000017
31
-0.000500000000000056
  0
LINE
 8
EXHAUST_SIDE
10
0.2815000000000012
20
0.19544039956158044
30
-0.000500000000000056
11
0.2663055998414592
21
0.18914667294378884
31
-0.000500000000000056
  0
LINE
 8
EXHAUST_SIDE
10
0.2945477272147521
20
0.20545227278524758
30
-0.000500000000000056
11
0.2815000000000012
21
0.19544039956158044
31
-0.000500000000000056
  0
LINE
 8
EXHAUST_SIDE
10
0.3045596004384201
20
0.21850000000000014
30
-0.000500000000000056
11
0.2945477272147521
21
0.20545227278524758
31
-0.000500000000000056
  0
LINE
 8
EXHAUST_SIDE
10
0.31085332705621127
20
0.23369440015854137
30
-0.000500000000000056
11
0.3045596004384201
21
0.21850000000000014
31
-0.000500000000000056
  0
LINE
 8
EXHAUST_SIDE
10
0.31299999999999883
20
0.2500000000000001
30
-0.0005000000000000004
11
0.31085332705621127
21
0.23369440015854137
31
-0.000500000000000056
  0
LINE
 8
EXHAUST_SIDE
10
0.31085332705621127
20
0.26630559984145885
30
-0.0005000000000000004
11
0.31299999999999883
21
0.2500000000000001
31
-0.0005000000000000004
  0
LINE
 8
EXHAUST_SIDE
10
0.3045596004384201
20
0.2815000000000002
30
-0.0005000000000000004
11
0.31085332705621127
21
0.26630559984145885
31
-0.0005000000000000004
  0
LINE
 8
EXHAUST_SIDE
10
0.2945477272147521
20
0.29454772721475264
30
-0.0005000000000000004
11
0.3045596004384201
21
0.2815000000000002
31
-0.0005000000000000004
  0
LINE
 8
EXHAUST_SIDE
10
0.2815000000000012
20
0.3045596004384198
30
-0.0005000000000000004
11
0.2945477272147521
21
0.29454772721475264
31
-0.0005000000000000004
  0
LINE
 8
EXHAUST_SIDE
10
0.2663055998414592
20
0.3108533270562114
30
-0.0005000000000000004
11
0.2815000000000012
21
0.3045596004384198
31
-0.0005000000000000004
  0
LINE
 8
EXHAUST_SIDE
10
0.25
20
0.31300000000000006
30
-0.0005000000000000004
11
0.2663055998414592
21
0.3108533270562114
31
-0.0005000000000000004
  0
LINE
 8
EXHAUST_SIDE
10
0.23369440015854082
20
0.3108533270562114
30
-0.0005000000000000004
11
0.25
21
0.31300000000000006
31
-0.0005000000000000004
  0
LINE
 8
EXHAUST_SIDE
10
0.2184999999999988
20
0.3045596004384198
30
-0.0005000000000000004
11
0.23369440015854082
21
0.3108533270562114
31
-0.0005000000000000004
  0
LINE
 8
EXHAUST_SIDE
10
0.2054522727852479
20
0.29454772721475264
30
-0.0005000000000000004
11
0.2184999999999988
21
0.3045596004384198
31
-0.0005000000000000004
  0
LINE
 8
EXHAUST_SIDE
10
0.19544039956157988
20
0.2815000000000001
30
-0.0005000000000000004
11
0.2054522727852479
21
0.29454772721475264
31
-0.0005000000000000004
  0
LINE
 8
EXHAUST_SIDE
10
0.18914667294378873
20
0.26630559984145885
30
-0.0005000000000000004
11
0.19544039956157988
21
0.2815000000000001
31
-0.0005000000000000004
  0
LINE
 8
EXHAUST_SIDE
10
0.18700000000000117
20
0.2500000000000001
30
-0.0005000000000000004
11
0.18914667294378873
21
0.26630559984145885
31
-0.0005000000000000004
  0
LINE
 8
EXHAUST_SIDE
10
0.18914667294378873
20
0.23369440015854126
30
-0.000500000000000056
11
0.18700000000000117
21
0.2500000000000001
31
-0.0005000000000000004
  0
LINE
 8
EXHAUST_SIDE
10
0.19544039956157988
20
0.21850000000000003
30
-0.000500000000000056
11
0.18914667294378873
21
0.23369440015854126
31
-0.000500000000000056
  0
LINE
 8
EXHAUST_SIDE
10
0.2054522727852479
20
0.20545227278524758
30
-0.000500000000000056
11
0.19544039956157988
21
0.21850000000000003
31
-0.000500000000000056
  0
LINE
 8
EXHAUST_SIDE
10
0.2184999999999988
20
0.19544039956158044
30
-0.000500000000000056
11
0.2054522727852479
21
0.20545227278524758
31
-0.000500000000000056
  0
LINE
 8
EXHAUST_SIDE
10
0.23369440015854082
20
0.18914667294378884
30
-0.000500000000000056
11
0.2184999999999988
21
0.19544039956158044
31
-0.000500000000000056
  0
LINE
 8
EXHAUST_SIDE
10
0.25
20
0.18700000000000017
30
0.06250000000000011
11
0.25
21
0.18700000000000017
31
-0.000500000000000056
  0
LINE
 8
EXHAUST_SIDE
10
0.23369440015854082
20
0.18914667294378884
30
0.06250000000000011
11
0.23369440015854082
21
0.18914667294378884
31
-0.000500000000000056
  0
LINE
 8
EXHAUST_SIDE
10
0.2663055998414592
20
0.18914667294378884
30
0.06250000000000011
11
0.2663055998414592
21
0.18914667294378884
31
-0.000500000000000056
  0
LINE
 8
EXHAUST_SIDE
10
0.2815000000000012
20
0.19544039956158044
30
0.06250000000000011
11
0.2815000000000012
21
0.19544039956158044
31
-0.000500000000000056
  0
LINE
 8
EXHAUST_SIDE
10
0.2945477272147521
20
0.20545227278524758
30
0.06250000000000011
11
0.2945477272147521
21
0.20545227278524758
31
-0.000500000000000056
  0
LINE
 8
EXHAUST_SIDE
10
0.3045596004384201
20
0.21850000000000014
30
0.06250000000000011
11
0.3045596004384201
21
0.21850000000000014
31
-0.000500000000000056
  0
LINE
 8
EXHAUST_SIDE
10
0.31085332705621127
20
0.23369440015854137
30
0.06250000000000011
11
0.31085332705621127
21
0.23369440015854137
31
-0.000500000000000056
  0
LINE
 8
EXHAUST_SIDE
10
0.31299999999999883
20
0.2500000000000001
30
0.06250000000000017
11
0.31299999999999883
21
0.2500000000000001
31
-0.0005000000000000004
  0
LINE
 8
EXHAUST_SIDE
10
0.31085332705621127
20
0.26630559984145885
30
0.06250000000000017
11
0.31085332705621127
21
0.26630559984145885
31
-0.0005000000000000004
  0
LINE
 8
EXHAUST_SIDE
10
0.3045596004384201
20
0.2815000000000002
30
0.06250000000000017
11
0.3045596004384201
21
0.2815000000000002
31
-0.0005000000000000004
  0
LINE
 8
EXHAUST_SIDE
10
0.2945477272147521
20
0.29454772721475264
30
0.06250000000000017
11
0.2945477272147521
21
0.29454772721475264
31
-0.0005000000000000004
  0
LINE
 8
EXHAUST_SIDE
10
0.2815000000000012
20
0.3045596004384198
30
0.06250000000000017
11
0.2815000000000012
21
0.3045596004384198
31
-0.0005000000000000004
  0
LINE
 8
EXHAUST_SIDE
10
0.2663055998414592
20
0.3108533270562114
30
0.06250000000000017
11
0.2663055998414592
21
0.3108533270562114
31
-0.0005000000000000004
  0
LINE
 8
EXHAUST_SIDE
10
0.25
20
0.31300000000000006
30
0.06250000000000017
11
0.25
21
0.31300000000000006
31
-0.0005000000000000004
  0
LINE
 8
EXHAUST_SIDE
10
0.23369440015854082
20
0.3108533270562114
30
0.06250000000000017
11
0.23369440015854082
21
0.3108533270562114
31
-0.0005000000000000004
  0
LINE
 8
EXHAUST_SIDE
10
0.2184999999999988
20
0.3045596004384198
30
0.06250000000000017
11
0.2184999999999988
21
0.3045596004384198
31
-0.0005000000000000004
  0
LINE
 8
EXHAUST_SIDE
10
0.2054522727852479
20
0.29454772721475264
30
0.06250000000000017
11
0.2054522727852479
21
0.29454772721475264
31
-0.0005000000000000004
  0
LINE
 8
EXHAUST_SIDE
10
0.19544039956157988
20
0.2815000000000001
30
0.06250000000000017
11
0.19544039956157988
21
0.2815000000000001
31
-0.0005000000000000004
  0
LINE
 8
EXHAUST_SIDE
10
0.18914667294378873
20
0.26630559984145885
30
0.06250000000000017
11
0.18914667294378873
21
0.26630559984145885
31
-0.0005000000000000004
  0
LINE
 8
EXHAUST_SIDE
10
0.18700000000000117
20
0.2500000000000001
30
0.06250000000000017
11
0.18700000000000117
21
0.2500000000000001
31
-0.0005000000000000004
  0
LINE
 8
EXHAUST_SIDE
10
0.18914667294378873
20
0.23369440015854126
30
0.06250000000000011
11
0.18914667294378873
21
0.23369440015854126
31
-0.000500000000000056
  0
LINE
 8
EXHAUST_SIDE
10
0.19544039956157988
20
0.21850000000000003
30
0.06250000000000011
11
0.19544039956157988
21
0.21850000000000003
31
-0.000500000000000056
  0
LINE
 8
EXHAUST_SIDE
10
0.2054522727852479
20
0.20545227278524758
30
0.06250000000000011
11
0.2054522727852479
21
0.20545227278524758
31
-0.000500000000000056
  0
LINE
 8
EXHAUST_SIDE
10
0.2184999999999988
20
0.19544039956158044
30
0.06250000000000011
11
0.2184999999999988
21
0.19544039956158044
31
-0.000500000000000056
  0
LINE
 8
EXHAUST_SIDE
10
4.954000000000001
20
0.18700000000000017
30
-0.000500000000000056
11
4.937694400158541
21
0.18914667294378884
31
-0.000500000000000056
  0
LINE
 8
EXHAUST_SIDE
10
4.97030559984146
20
0.18914667294378884
30
-0.000500000000000056
11
4.954000000000001
21
0.18700000000000017
31
-0.000500000000000056
  0
LINE
 8
EXHAUST_SIDE
10
4.985500000000002
20
0.19544039956158044
30
-0.000500000000000056
11
4.97030559984146
21
0.18914667294378884
31
-0.000500000000000056
  0
LINE
 8
EXHAUST_SIDE
10
4.998547727214753
20
0.20545227278524758
30
-0.000500000000000056
11
4.985500000000002
21
0.19544039956158044
31
-0.000500000000000056
  0
LINE
 8
EXHAUST_SIDE
10
5.008559600438421
20
0.21850000000000014
30
-0.000500000000000056
11
4.998547727214753
21
0.20545227278524758
31
-0.000500000000000056
  0
LINE
 8
EXHAUST_SIDE
10
5.014853327056212
20
0.23369440015854137
30
-0.000500000000000056
11
5.008559600438421
21
0.21850000000000014
31
-0.000500000000000056
  0
LINE
 8
EXHAUST_SIDE
10
5.0169999999999995
20
0.2500000000000001
30
-0.0005000000000000004
11
5.014853327056212
21
0.23369440015854137
31
-0.000500000000000056
  0
LINE
 8
EXHAUST_SIDE
10
5.014853327056212
20
0.26630559984145885
30
-0.0005000000000000004
11
5.0169999999999995
21
0.2500000000000001
31
-0.0005000000000000004
  0
LINE
 8
EXHAUST_SIDE
10
5.008559600438421
20
0.2815000000000002
30
-0.0005000000000000004
11
5.014853327056212
21
0.26630559984145885
31
-0.0005000000000000004
  0
LINE
 8
EXHAUST_SIDE
10
4.998547727214753
20
0.29454772721475264
30
-0.0005000000000000004
11
5.008559600438421
21
0.2815000000000002
31
-0.0005000000000000004
  0
LINE
 8
EXHAUST_SIDE
10
4.985500000000002
20
0.3045596004384198
30
-0.0005000000000000004
11
4.998547727214753
21
0.29454772721475264
31
-0.0005000000000000004
  0
LINE
 8
EXHAUST_SIDE
10
4.97030559984146
20
0.3108533270562114
30
-0.0005000000000000004
11
4.985500000000002
21
0.3045596004384198
31
-0.0005000000000000004
  0
LINE
 8
EXHAUST_SIDE
10
4.954000000000001
20
0.31300000000000006
30
-0.0005000000000000004
11
4.97030559984146
21
0.3108533270562114
31
-0.0005000000000000004
  0
LINE
 8
EXHAUST_SIDE
10
4.937694400158541
20
0.3108533270562114
30
-0.0005000000000000004
11
4.954000000000001
21
0.31300000000000006
31
-0.0005000000000000004
  0
LINE
 8
EXHAUST_SIDE
10
4.922499999999999
20
0.3045596004384198
30
-0.0005000000000000004
11
4.937694400158541
21
0.3108533270562114
31
-0.0005000000000000004
  0
LINE
 8
EXHAUST_SIDE
10
4.9094522727852485
20
0.29454772721475264
30
-0.0005000000000000004
11
4.922499999999999
21
0.3045596004384198
31
-0.0005000000000000004
  0
LINE
 8
EXHAUST_SIDE
10
4.8994403995615805
20
0.2815000000000001
30
-0.0005000000000000004
11
4.9094522727852485
21
0.29454772721475264
31
-0.0005000000000000004
  0
LINE
 8
EXHAUST_SIDE
10
4.893146672943789
20
0.26630559984145885
30
-0.0005000000000000004
11
4.8994403995615805
21
0.2815000000000001
31
-0.0005000000000000004
  0
LINE
 8
EXHAUST_SIDE
10
4.891000000000002
20
0.2500000000000001
30
-0.0005000000000000004
11
4.893146672943789
21
0.26630559984145885
31
-0.0005000000000000004
  0
LINE
 8
EXHAUST_SIDE
10
4.893146672943789
20
0.23369440015854126
30
-0.000500000000000056
11
4.891000000000002
21
0.2500000000000001
31
-0.0005000000000000004
  0
LINE
 8
EXHAUST_SIDE
10
4.8994403995615805
20
0.21850000000000003
30
-0.000500000000000056
11
4.893146672943789
21
0.23369440015854126
31
-0.000500000000000056
  0
LINE
 8
EXHAUST_SIDE
10
4.9094522727852485
20
0.20545227278524758
30
-0.000500000000000056
11
4.8994403995615805
21
0.21850000000000003
31
-0.000500000000000056
  0
LINE
 8
EXHAUST_SIDE
10
4.922499999999999
20
0.19544039956158044
30
-0.000500000000000056
11
4.9094522727852485
21
0.20545227278524758
31
-0.000500000000000056
  0
LINE
 8
EXHAUST_SIDE
10
4.937694400158541
20
0.18914667294378884
30
-0.000500000000000056
11
4.922499999999999
21
0.19544039956158044
31
-0.000500000000000056
  0
LINE
 8
EXHAUST_SIDE
10
4.954000000000001
20
0.18700000000000017
30
0.06250000000000011
11
4.954000000000001
21
0.18700000000000017
31
-0.000500000000000056
  0
LINE
 8
EXHAUST_SIDE
10
4.937694400158541
20
0.18914667294378884
30
0.06250000000000011
11
4.937694400158541
21
0.18914667294378884
31
-0.000500000000000056
  0
LINE
 8
EXHAUST_SIDE
10
4.97030559984146
20
0.18914667294378884
30
0.06250000000000011
11
4.97030559984146
21
0.18914667294378884
31
-0.000500000000000056
  0
LINE
 8
EXHAUST_SIDE
10
4.985500000000002
20
0.19544039956158044
30
0.06250000000000011
11
4.985500000000002
21
0.19544039956158044
31
-0.000500000000000056
  0
LINE
 8
EXHAUST_SIDE
10
4.998547727214753
20
0.20545227278524758
30
0.06250000000000011
11
4.998547727214753
21
0.20545227278524758
31
-0.000500000000000056
  0
LINE
 8
EXHAUST_SIDE
10
5.008559600438421
20
0.21850000000000014
30
0.06250000000000011
11
5.008559600438421
21
0.21850000000000014
31
-0.000500000000000056
  0
LINE
 8
EXHAUST_SIDE
10
5.014853327056212
20
0.23369440015854137
30
0.06250000000000011
11
5.014853327056212
21
0.23369440015854137
31
-0.000500000000000056
  0
LINE
 8
EXHAUST_SIDE
10
5.0169999999999995
20
0.2500000000000001
30
0.06250000000000017
11
5.0169999999999995
21
0.2500000000000001
31
-0.0005000000000000004
  0
LINE
 8
EXHAUST_SIDE
10
5.014853327056212
20
0.26630559984145885
30
0.06250000000000017
11
5.014853327056212
21
0.26630559984145885
31
-0.0005000000000000004
  0
LINE
 8
EXHAUST_SIDE
10
5.008559600438421
20
0.2815000000000002
30
0.06250000000000017
11
5.008559600438421
21
0.2815000000000002
31
-0.0005000000000000004
  0
LINE
 8
EXHAUST_SIDE
10
4.998547727214753
20
0.29454772721475264
30
0.06250000000000017
11
4.998547727214753
21
0.29454772721475264
31
-0.0005000000000000004
  0
LINE
 8
EXHAUST_SIDE
10
4.985500000000002
20
0.3045596004384198
30
0.06250000000000017
11
4.985500000000002
21
0.3045596004384198
31
-0.0005000000000000004
  0
LINE
 8
EXHAUST_SIDE
10
4.97030559984146
20
0.3108533270562114
30
0.06250000000000017
11
4.97030559984146
21
0.3108533270562114
31
-0.0005000000000000004
  0
LINE
 8
EXHAUST_SIDE
10
4.954000000000001
20
0.31300000000000006
30
0.06250000000000017
11
4.954000000000001
21
0.31300000000000006
31
-0.0005000000000000004
  0
LINE
 8
EXHAUST_SIDE
10
4.937694400158541
20
0.3108533270562114
30
0.06250000000000017
11
4.937694400158541
21
0.3108533270562114
31
-0.0005000000000000004
  0
LINE
 8
EXHAUST_SIDE
10
4.922499999999999
20
0.3045596004384198
30
0.06250000000000017
11
4.922499999999999
21
0.3045596004384198
31
-0.0005000000000000004
  0
LINE
 8
EXHAUST_SIDE
10
4.9094522727852485
20
0.29454772721475264
30
0.06250000000000017
11
4.9094522727852485
21
0.29454772721475264
31
-0.0005000000000000004
  0
LINE
 8
EXHAUST_SIDE
10
4.8994403995615805
20
0.2815000000000001
30
0.06250000000000017
11
4.8994403995615805
21
0.2815000000000001
31
-0.0005000000000000004
  0
LINE
 8
EXHAUST_SIDE
10
4.893146672943789
20
0.26630559984145885
30
0.06250000000000017
11
4.893146672943789
21
0.26630559984145885
31
-0.0005000000000000004
  0
LINE
 8
EXHAUST_SIDE
10
4.891000000000002
20
0.2500000000000001
30
0.06250000000000017
11
4.891000000000002
21
0.2500000000000001
31
-0.0005000000000000004
  0
LINE
 8
EXHAUST_SIDE
10
4.893146672943789
20
0.23369440015854126
30
0.06250000000000011
11
4.893146672943789
21
0.23369440015854126
31
-0.000500000000000056
  0
LINE
 8
EXHAUST_SIDE
10
4.8994403995615805
20
0.21850000000000003
30
0.06250000000000011
11
4.8994403995615805
21
0.21850000000000003
31
-0.000500000000000056
  0
LINE
 8
EXHAUST_SIDE
10
4.9094522727852485
20
0.20545227278524758
30
0.06250000000000011
11
4.9094522727852485
21
0.20545227278524758
31
-0.000500000000000056
  0
LINE
 8
EXHAUST_SIDE
10
4.922499999999999
20
0.19544039956158044
30
0.06250000000000011
11
4.922499999999999
21
0.19544039956158044
31
-0.000500000000000056
 0
ENDSEC
 0
EOF
