999
dxfrw 0.5.10
0
SECTION
2
HEADER
9
$ACADVER
1
AC1021
9
$HANDSEED
5
20000
9
$DWGCODEPAGE
3
ANSI_1252
9
$INSBASE
10
0
20
0
30
0
9
$EXTMIN
10
8.881784197e-16
20
-4.04746816559e-07
30
0
9
$EXTMAX
10
4.45258595262
20
6.59576663684
30
0
9
$LIMMIN
10
0
20
0
9
$LIMMAX
10
420
20
297
9
$ORTHOMODE
70
0
9
$LTSCALE
40
1
9
$TEXTSTYLE
7
STANDARD
9
$DIMASZ
40
0.1
9
$DIMSCALE
40
1
9
$DIMEXO
40
0.025
9
$DIMEXE
40
0.05
9
$DIMTXT
40
0.1
9
$DIMTSZ
40
0
9
$DIMAUNIT
70
0
9
$DIMADEC
70
0
9
$DIMLUNIT
70
2
9
$DIMSTYLE
2
Standard
9
$DIMGAP
40
0.025
9
$DIMTIH
70
0
9
$LUNITS
70
2
9
$LUPREC
70
4
9
$AUNITS
70
0
9
$AUPREC
70
2
9
$SPLINESEGS
70
8
9
$SNAPSTYLE
70
0
9
$PINSBASE
10
0
20
0
30
0
9
$PLIMMIN
10
0
20
0
9
$PLIMMAX
10
1.21213100952e-09
20
1.71429957061e-09
9
$INSUNITS
70
1
9
$PSVPSCALE
40
1
0
ENDSEC
0
SECTION
2
CLASSES
0
ENDSEC
0
SECTION
2
TABLES
0
TABLE
2
VPORT
5
8
330
0
100
AcDbSymbolTable
70
1
0
VPORT
5
31
330
2
100
AcDbSymbolTableRecord
100
AcDbViewportTableRecord
2
*ACTIVE
70
0
10
0
20
0
11
1
21
1
12
2.83234195315
22
2.87808163687
13
0
23
0
14
10
24
10
15
10
25
10
16
0
26
0
36
1
17
0
27
0
37
0
40
5.20728706915
41
1.42972972973
42
50
43
0
44
0
50
0
51
0
71
0
72
100
73
1
74
3
75
0
76
1
77
0
78
0
281
0
65
1
110
0
120
0
130
0
111
1
121
0
131
0
112
0
122
1
132
0
79
0
146
0
348
10020
60
7
61
5
292
1
282
1
141
0
142
0
63
250
421
3358443
0
ENDTAB
0
TABLE
2
LTYPE
5
5
330
0
100
AcDbSymbolTable
70
4
0
LTYPE
5
14
330
5
100
AcDbSymbolTableRecord
100
AcDbLinetypeTableRecord
2
ByBlock
70
0
3

72
65
73
0
40
0
0
LTYPE
5
15
330
5
100
AcDbSymbolTableRecord
100
AcDbLinetypeTableRecord
2
ByLayer
70
0
3

72
65
73
0
40
0
0
LTYPE
5
16
330
5
100
AcDbSymbolTableRecord
100
AcDbLinetypeTableRecord
2
Continuous
70
0
3
Solid line
72
65
73
0
40
0
0
LTYPE
5
32
330
5
100
AcDbSymbolTableRecord
100
AcDbLinetypeTableRecord
2
DOT
70
0
3
Dot . . . . . . . . . . . . . . . . . . . . . .
72
65
73
2
40
6.35
49
0
74
0
49
-6.35
74
0
0
LTYPE
5
33
330
5
100
AcDbSymbolTableRecord
100
AcDbLinetypeTableRecord
2
DOT2
70
0
3
Dot (.5x) .....................................
72
65
73
2
40
3.175
49
0
74
0
49
-3.175
74
0
0
LTYPE
5
34
330
5
100
AcDbSymbolTableRecord
100
AcDbLinetypeTableRecord
2
DOTX2
70
0
3
Dot (2x) .  .  .  .  .  .  .  .  .  .  .  .  .
72
65
73
2
40
12.7
49
0
74
0
49
-12.7
74
0
0
LTYPE
5
35
330
5
100
AcDbSymbolTableRecord
100
AcDbLinetypeTableRecord
2
DASHED
70
0
3
Dot . . . . . . . . . . . . . . . . . . . . . .
72
65
73
2
40
19.05
49
12.7
74
0
49
-6.35
74
0
0
LTYPE
5
36
330
5
100
AcDbSymbolTableRecord
100
AcDbLinetypeTableRecord
2
DASHED2
70
0
3
Dashed (.5x) _ _ _ _ _ _ _ _ _ _ _ _ _ _ _ _ _
72
65
73
2
40
9.525
49
6.35
74
0
49
-3.175
74
0
0
LTYPE
5
37
330
5
100
AcDbSymbolTableRecord
100
AcDbLinetypeTableRecord
2
DASHEDX2
70
0
3
Dashed (2x) ____  ____  ____  ____  ____  ___
72
65
73
2
40
38.1
49
25.4
74
0
49
-12.7
74
0
0
LTYPE
5
38
330
5
100
AcDbSymbolTableRecord
100
AcDbLinetypeTableRecord
2
DASHDOT
70
0
3
Dash dot __ . __ . __ . __ . __ . __ . __ . __
72
65
73
4
40
25.4
49
12.7
74
0
49
-6.35
74
0
49
0
74
0
49
-6.35
74
0
0
LTYPE
5
39
330
5
100
AcDbSymbolTableRecord
100
AcDbLinetypeTableRecord
2
DASHDOT2
70
0
3
Dash dot (.5x) _._._._._._._._._._._._._._._.
72
65
73
4
40
12.7
49
6.35
74
0
49
-3.175
74
0
49
0
74
0
49
-3.175
74
0
0
LTYPE
5
3A
330
5
100
AcDbSymbolTableRecord
100
AcDbLinetypeTableRecord
2
DASHDOTX2
70
0
3
Dash dot (2x) ____  .  ____  .  ____  .  ___
72
65
73
4
40
50.8
49
25.4
74
0
49
-12.7
74
0
49
0
74
0
49
-12.7
74
0
0
LTYPE
5
3B
330
5
100
AcDbSymbolTableRecord
100
AcDbLinetypeTableRecord
2
DIVIDE
70
0
3
Divide ____ . . ____ . . ____ . . ____ . . ____
72
65
73
6
40
31.75
49
12.7
74
0
49
-6.35
74
0
49
0
74
0
49
-6.35
74
0
49
0
74
0
49
-6.35
74
0
0
LTYPE
5
3C
330
5
100
AcDbSymbolTableRecord
100
AcDbLinetypeTableRecord
2
DIVIDE2
70
0
3
Divide (.5x) __..__..__..__..__..__..__..__.._
72
65
73
6
40
15.875
49
6.35
74
0
49
-3.175
74
0
49
0
74
0
49
-3.175
74
0
49
0
74
0
49
-3.175
74
0
0
LTYPE
5
3D
330
5
100
AcDbSymbolTableRecord
100
AcDbLinetypeTableRecord
2
DIVIDEX2
70
0
3
Divide (2x) ________  .  .  ________  .  .  _
72
65
73
6
40
63.5
49
25.4
74
0
49
-12.7
74
0
49
0
74
0
49
-12.7
74
0
49
0
74
0
49
-12.7
74
0
0
LTYPE
5
3E
330
5
100
AcDbSymbolTableRecord
100
AcDbLinetypeTableRecord
2
BORDER
70
0
3
Border __ __ . __ __ . __ __ . __ __ . __ __ .
72
65
73
6
40
44.45
49
12.7
74
0
49
-6.35
74
0
49
12.7
74
0
49
-6.35
74
0
49
0
74
0
49
-6.35
74
0
0
LTYPE
5
3F
330
5
100
AcDbSymbolTableRecord
100
AcDbLinetypeTableRecord
2
BORDER2
70
0
3
Border (.5x) __.__.__.__.__.__.__.__.__.__.__.
72
65
73
6
40
22.225
49
6.35
74
0
49
-3.175
74
0
49
6.35
74
0
49
-3.175
74
0
49
0
74
0
49
-3.175
74
0
0
LTYPE
5
40
330
5
100
AcDbSymbolTableRecord
100
AcDbLinetypeTableRecord
2
BORDERX2
70
0
3
Border (2x) ____  ____  .  ____  ____  .  ___
72
65
73
6
40
88.9
49
25.4
74
0
49
-12.7
74
0
49
25.4
74
0
49
-12.7
74
0
49
0
74
0
49
-12.7
74
0
0
LTYPE
5
41
330
5
100
AcDbSymbolTableRecord
100
AcDbLinetypeTableRecord
2
CENTER
70
0
3
Center ____ _ ____ _ ____ _ ____ _ ____ _ ____
72
65
73
4
40
50.8
49
31.75
74
0
49
-6.35
74
0
49
6.35
74
0
49
-6.35
74
0
0
LTYPE
5
42
330
5
100
AcDbSymbolTableRecord
100
AcDbLinetypeTableRecord
2
CENTER2
70
0
3
Center (.5x) ___ _ ___ _ ___ _ ___ _ ___ _ ___
72
65
73
4
40
28.575
49
19.05
74
0
49
-3.175
74
0
49
3.175
74
0
49
-3.175
74
0
0
LTYPE
5
43
330
5
100
AcDbSymbolTableRecord
100
AcDbLinetypeTableRecord
2
CENTERX2
70
0
3
Center (2x) ________  __  ________  __  _____
72
65
73
4
40
101.6
49
63.5
74
0
49
-12.7
74
0
49
12.7
74
0
49
-12.7
74
0
0
ENDTAB
0
TABLE
2
LAYER
5
2
330
0
100
AcDbSymbolTable
70
1
0
LAYER
5
10
330
2
100
AcDbSymbolTableRecord
100
AcDbLayerTableRecord
2
0
70
0
62
7
6
CONTINUOUS
370
0
390
F
0
LAYER
5
44
330
2
100
AcDbSymbolTableRecord
100
AcDbLayerTableRecord
2
Group#7
70
0
62
7
6
CONTINUOUS
370
-3
390
F
0
ENDTAB
0
TABLE
2
STYLE
5
3
330
0
100
AcDbSymbolTable
70
3
0
STYLE
5
45
330
2
100
AcDbSymbolTableRecord
100
AcDbTextStyleTableRecord
2
Standard
70
0
40
0
41
1
50
0
71
0
42
1
3
txt
4

0
ENDTAB
0
TABLE
2
VIEW
5
6
330
0
100
AcDbSymbolTable
70
0
0
ENDTAB
0
TABLE
2
UCS
5
7
330
0
100
AcDbSymbolTable
70
0
0
ENDTAB
0
TABLE
2
APPID
5
9
330
0
100
AcDbSymbolTable
70
1
0
APPID
5
12
330
9
100
AcDbSymbolTableRecord
100
AcDbRegAppTableRecord
2
ACAD
70
0
0
ENDTAB
0
TABLE
2
DIMSTYLE
5
A
330
0
100
AcDbSymbolTable
70
1
100
AcDbDimStyleTable
71
1
0
DIMSTYLE
105
46
330
A
100
AcDbSymbolTableRecord
100
AcDbDimStyleTableRecord
2
Standard
70
0
40
1
41
0.1
42
0.025
43
0.38
44
0.05
45
0
46
0
47
0
48
0
140
0.1
141
0.09
142
0
143
25.4
144
1
145
0
146
1
147
0.025
148
0
71
0
72
0
73
0
74
1
75
0
76
0
77
0
78
0
79
0
170
0
171
2
172
0
173
0
174
0
175
0
176
0
177
0
178
0
179
0
271
4
272
4
273
2
274
2
275
0
276
0
277
2
278
46
279
0
280
0
281
0
282
0
283
1
284
0
285
0
286
0
288
0
289
3
340
Standard
341

371
-2
372
-2
0
ENDTAB
0
TABLE
2
BLOCK_RECORD
5
1
330
0
100
AcDbSymbolTable
70
2
0
BLOCK_RECORD
5
1F
330
1
100
AcDbSymbolTableRecord
100
AcDbBlockTableRecord
2
*Model_Space
70
0
280
1
281
0
0
BLOCK_RECORD
5
1E
330
1
100
AcDbSymbolTableRecord
100
AcDbBlockTableRecord
2
*Paper_Space
70
0
280
1
281
0
0
ENDTAB
0
ENDSEC
0
SECTION
2
BLOCKS
0
BLOCK
5
20
330
1F
100
AcDbEntity
8
0
100
AcDbBlockBegin
2
*Model_Space
70
0
10
0
20
0
30
0
3
*Model_Space
1

0
ENDBLK
5
21
330
1F
100
AcDbEntity
8
0
100
AcDbBlockEnd
0
BLOCK
5
1C
330
1B
100
AcDbEntity
8
0
100
AcDbBlockBegin
2
*Paper_Space
70
0
10
0
20
0
30
0
3
*Paper_Space
1

0
ENDBLK
5
1D
330
1F
100
AcDbEntity
8
0
100
AcDbBlockEnd
0
ENDSEC
0
SECTION
2
ENTITIES
0
LINE
5
47
100
AcDbEntity
8
Group#7
6
ByLayer
62
256
370
-1
100
AcDbLine
10
1.91606118971e-07
20
2.14318082452
11
2.14318129396
21
2.14318068421
0
LINE
5
48
100
AcDbEntity
8
Group#7
6
ByLayer
62
256
370
-1
100
AcDbLine
10
4.83083928244e-07
20
6.59576647226
11
5.96352941524e-07
21
6.59576663684
0
LINE
5
49
100
AcDbEntity
8
Group#7
6
ByLayer
62
256
370
-1
100
AcDbLine
10
5.96352941524e-07
20
6.59576663684
11
3.04875130475e-07
21
2.14318098909
0
LINE
5
4A
100
AcDbEntity
8
Group#7
6
ByLayer
62
256
370
-1
100
AcDbLine
10
1.91606118971e-07
20
2.14318082452
11
3.04875130475e-07
21
2.14318098909
0
LINE
5
4B
100
AcDbEntity
8
Group#7
6
ByLayer
62
256
370
-1
100
AcDbLine
10
2.14318158544
20
6.59576633196
11
4.83083928244e-07
21
6.59576647226
0
LINE
5
4C
100
AcDbEntity
8
Group#7
6
ByLayer
62
256
370
-1
100
AcDbLine
10
2.14318129396
20
2.14318068421
11
2.14318131629
21
2.48618068435
0
LINE
5
4D
100
AcDbEntity
8
Group#7
6
ByLayer
62
256
370
-1
100
AcDbLine
10
2.14318158544
20
6.59576633196
11
2.14318169871
21
6.59576649654
0
LINE
5
4E
100
AcDbEntity
8
Group#7
6
ByLayer
62
256
370
-1
100
AcDbLine
10
0.675484166908
20
5.34313821279
11
0.662623978662
21
5.33331079267
0
LINE
5
4F
100
AcDbEntity
8
Group#7
6
ByLayer
62
256
370
-1
100
AcDbLine
10
0.646521959849
20
5.30554886318
11
0.644377455255
21
5.28950628344
0
LINE
5
50
100
AcDbEntity
8
Group#7
6
ByLayer
62
256
370
-1
100
AcDbLine
10
0.646458021499
20
3.4654922397
11
0.65262210202
21
3.48045777495
0
LINE
5
51
100
AcDbEntity
8
Group#7
6
ByLayer
62
256
370
-1
100
AcDbLine
10
0.803103237268
20
3.63928566698
11
0.608670235739
21
3.61334286294
0
LINE
5
52
100
AcDbEntity
8
Group#7
6
ByLayer
62
256
370
-1
100
AcDbLine
10
0.722304991992
20
5.22946368071
11
0.737270498431
21
5.23562777138
0
LINE
5
53
100
AcDbEntity
8
Group#7
6
ByLayer
62
256
370
-1
100
AcDbLine
10
0.857309415748
20
3.68701431924
11
0.854592421274
21
3.67895769964
0
LINE
5
54
100
AcDbEntity
8
Group#7
6
ByLayer
62
256
370
-1
100
AcDbLine
10
0.811439053312
20
5.09798653376
11
0.803103332863
21
5.0996618538
0
LINE
5
55
100
AcDbEntity
8
Group#7
6
ByLayer
62
256
370
-1
100
AcDbLine
10
0.706500494897
20
3.38756454135
11
0.69044954507
21
3.38964523207
0
LINE
5
56
100
AcDbEntity
8
Group#7
6
ByLayer
62
256
370
-1
100
AcDbLine
10
0.652622218408
20
5.25848976553
11
0.662449619172
21
5.2456295518
0
LINE
5
57
100
AcDbEntity
8
Group#7
6
ByLayer
62
256
370
-1
100
AcDbLine
10
0.552314071802
20
3.64573093042
11
0.548538397943
21
3.65334902975
0
LINE
5
58
100
AcDbEntity
8
Group#7
6
ByLayer
62
256
370
-1
100
AcDbLine
10
0.750305046167
20
5.33313643237
11
0.737484044322
21
5.34301492144
0
LINE
5
59
100
AcDbEntity
8
Group#7
6
ByLayer
62
256
370
-1
100
AcDbLine
10
0.644377455255
20
5.28950628344
11
0.646458139846
21
5.27345530159
0
LINE
5
5A
100
AcDbEntity
8
Group#7
6
ByLayer
62
256
370
-1
100
AcDbLine
10
0.706254041891
20
5.22738299209
11
0.722304991992
21
5.22946368071
0
LINE
5
5B
100
AcDbEntity
8
Group#7
6
ByLayer
62
256
370
-1
100
AcDbLine
10
0.722543171484
20
5.34923848316
11
0.706500623447
21
5.35138299208
0
LINE
5
5C
100
AcDbEntity
8
Group#7
6
ByLayer
62
256
370
-1
100
AcDbLine
10
0.662449619172
20
5.2456295518
11
0.675270621016
21
5.23575106273
0
LINE
5
5D
100
AcDbEntity
8
Group#7
6
ByLayer
62
256
370
-1
100
AcDbLine
10
0.544114069443
20
3.66973051765
11
0.542722792859
21
4.36941648799
0
LINE
5
5E
100
AcDbEntity
8
Group#7
6
ByLayer
62
256
370
-1
100
AcDbLine
10
0.675270621016
20
5.23575106273
11
0.690211493854
21
5.22952750101
0
LINE
5
5F
100
AcDbEntity
8
Group#7
6
ByLayer
62
256
370
-1
100
AcDbLine
10
0.662449504467
20
3.49331798739
11
0.675270507605
21
3.50319647479
0
LINE
5
60
100
AcDbEntity
8
Group#7
6
ByLayer
62
256
370
-1
100
AcDbLine
10
0.834162863283
20
3.65222342706
11
0.827102777088
21
3.64748568568
0
LINE
5
61
100
AcDbEntity
8
Group#7
6
ByLayer
62
256
370
-1
100
AcDbLine
10
0.562670626488
20
5.10665802262
11
0.557051899458
21
5.1002767227
0
LINE
5
62
100
AcDbEntity
8
Group#7
6
ByLayer
62
256
370
-1
100
AcDbLine
10
0.768377210084
20
5.28925970074
11
0.766296525492
21
5.30531068258
0
LINE
5
63
100
AcDbEntity
8
Group#7
6
ByLayer
62
256
370
-1
100
AcDbLine
10
0.583786023396
20
3.61824123205
11
0.576152984047
21
3.62198658742
0
LINE
5
64
100
AcDbEntity
8
Group#7
6
ByLayer
62
256
370
-1
100
AcDbLine
10
0.858951656415
20
5.04359086049
11
0.857309505094
21
5.05193319445
0
LINE
5
65
100
AcDbEntity
8
Group#7
6
ByLayer
62
256
370
-1
100
AcDbLine
10
0.737483916868
20
3.39593260793
11
0.722543043216
21
3.38970904816
0
LINE
5
66
100
AcDbEntity
8
Group#7
6
ByLayer
62
256
370
-1
100
AcDbLine
10
0.811438957937
20
3.64096098593
11
0.803103237268
21
3.63928566698
0
LINE
5
67
100
AcDbEntity
8
Group#7
6
ByLayer
62
256
370
-1
100
AcDbLine
10
0.82710287161
20
5.09146183196
11
0.819484787811
21
5.09523751432
0
LINE
5
68
100
AcDbEntity
8
Group#7
6
ByLayer
62
256
370
-1
100
AcDbLine
10
0.652745509186
20
5.32048976553
11
0.646521959849
21
5.30554886318
0
LINE
5
69
100
AcDbEntity
8
Group#7
6
ByLayer
62
256
370
-1
100
AcDbLine
10
0.690449673347
20
5.34930230346
11
0.675484166908
21
5.34313821279
0
LINE
5
6A
100
AcDbEntity
8
Group#7
6
ByLayer
62
256
370
-1
100
AcDbLine
10
0.819484692795
20
3.64371000431
11
0.811438957937
21
3.64096098593
0
LINE
5
6B
100
AcDbEntity
8
Group#7
6
ByLayer
62
256
370
-1
100
AcDbLine
10
0.646458139846
20
5.27345530159
11
0.652622218408
21
5.25848976553
0
LINE
5
6C
100
AcDbEntity
8
Group#7
6
ByLayer
62
256
370
-1
100
AcDbLine
10
0.737270498431
20
5.23562777138
11
0.750130686677
21
5.2454551915
0
LINE
5
6D
100
AcDbEntity
8
Group#7
6
ByLayer
62
256
370
-1
100
AcDbLine
10
0.65262210202
20
3.48045777495
11
0.662449504467
21
3.49331798739
0
LINE
5
6E
100
AcDbEntity
8
Group#7
6
ByLayer
62
256
370
-1
100
AcDbLine
10
0.760132322453
20
3.41867130776
11
0.750304920006
21
3.40581109533
0
LINE
5
6F
100
AcDbEntity
8
Group#7
6
ByLayer
62
256
370
-1
100
AcDbLine
10
0.557051803783
20
3.63867083029
11
0.552314071802
21
3.64573093042
0
LINE
5
70
100
AcDbEntity
8
Group#7
6
ByLayer
62
256
370
-1
100
AcDbLine
10
0.675484039437
20
3.3958093247
11
0.662623852478
21
3.40563674651
0
LINE
5
71
100
AcDbEntity
8
Group#7
6
ByLayer
62
256
370
-1
100
AcDbLine
10
0.760009156153
20
5.25827621865
11
0.766232705489
21
5.27321712099
0
LINE
5
72
100
AcDbEntity
8
Group#7
6
ByLayer
62
256
370
-1
100
AcDbLine
10
0.768377089667
20
3.44968782459
11
0.766296402974
21
3.43363684302
0
LINE
5
73
100
AcDbEntity
8
Group#7
6
ByLayer
62
256
370
-1
100
AcDbLine
10
0.576152984047
20
3.62198658742
11
0.569074112422
21
3.62669621429
0
LINE
5
74
100
AcDbEntity
8
Group#7
6
ByLayer
62
256
370
-1
100
AcDbLine
10
0.608670235739
20
3.61334286294
11
0.600184944283
21
3.61388207663
0
LINE
5
75
100
AcDbEntity
8
Group#7
6
ByLayer
62
256
370
-1
100
AcDbLine
10
0.840544244511
20
5.08110535148
11
0.834162957184
21
5.08672408965
0
LINE
5
76
100
AcDbEntity
8
Group#7
6
ByLayer
62
256
370
-1
100
AcDbLine
10
0.857309505094
20
5.05193319445
11
0.854592511675
21
5.0599898144
0
LINE
5
77
100
AcDbEntity
8
Group#7
6
ByLayer
62
256
370
-1
100
AcDbLine
10
0.662623978662
20
5.33331079267
11
0.652745509186
21
5.32048976553
0
LINE
5
78
100
AcDbEntity
8
Group#7
6
ByLayer
62
256
370
-1
100
AcDbLine
10
0.562670529977
20
3.63228952964
11
0.557051803783
21
3.63867083029
0
LINE
5
79
100
AcDbEntity
8
Group#7
6
ByLayer
62
256
370
-1
100
AcDbLine
10
0.803103332863
20
5.0996618538
11
0.60867033473
21
5.12560468329
0
LINE
5
7A
100
AcDbEntity
8
Group#7
6
ByLayer
62
256
370
-1
100
AcDbLine
10
0.737270385036
20
3.50331975802
11
0.750130571995
21
3.49349233621
0
LINE
5
7B
100
AcDbEntity
8
Group#7
6
ByLayer
62
256
370
-1
100
AcDbLine
10
0.766296525492
20
5.30531068258
11
0.760132446931
21
5.32027621864
0
LINE
5
7C
100
AcDbEntity
8
Group#7
6
ByLayer
62
256
370
-1
100
AcDbLine
10
0.690211493854
20
5.22952750101
11
0.706254041891
21
5.22738299209
0
LINE
5
7D
100
AcDbEntity
8
Group#7
6
ByLayer
62
256
370
-1
100
AcDbLine
10
0.750304920006
20
3.40581109533
11
0.737483916868
21
3.39593260793
0
LINE
5
7E
100
AcDbEntity
8
Group#7
6
ByLayer
62
256
370
-1
100
AcDbLine
10
0.854592421274
20
3.67895769964
11
0.850847073267
21
3.67132464518
0
LINE
5
7F
100
AcDbEntity
8
Group#7
6
ByLayer
62
256
370
-1
100
AcDbLine
10
0.819484787811
20
5.09523751432
11
0.811439053312
21
5.09798653376
0
LINE
5
80
100
AcDbEntity
8
Group#7
6
ByLayer
62
256
370
-1
100
AcDbLine
10
0.858951568161
20
3.69535665298
11
0.857309415748
21
3.68701431924
0
LINE
5
81
100
AcDbEntity
8
Group#7
6
ByLayer
62
256
370
-1
100
AcDbLine
10
0.60867033473
20
5.12560468329
11
0.600185043204
21
5.12506547072
0
LINE
5
82
100
AcDbEntity
8
Group#7
6
ByLayer
62
256
370
-1
100
AcDbLine
10
0.690211381257
20
3.50942003455
11
0.706253929576
21
3.51156454137
0
LINE
5
83
100
AcDbEntity
8
Group#7
6
ByLayer
62
256
370
-1
100
AcDbLine
10
0.552314166553
20
5.09321662319
11
0.548538491697
21
5.08559852435
0
LINE
5
84
100
AcDbEntity
8
Group#7
6
ByLayer
62
256
370
-1
100
AcDbLine
10
0.6465218373
20
3.4333986781
11
0.644377334806
21
3.44944125812
0
LINE
5
85
100
AcDbEntity
8
Group#7
6
ByLayer
62
256
370
-1
100
AcDbLine
10
0.569074209665
20
5.11225133713
11
0.562670626488
21
5.10665802262
0
LINE
5
86
100
AcDbEntity
8
Group#7
6
ByLayer
62
256
370
-1
100
AcDbLine
10
0.760132446931
20
5.32027621864
11
0.750305046167
21
5.33313643237
0
LINE
5
87
100
AcDbEntity
8
Group#7
6
ByLayer
62
256
370
-1
100
AcDbLine
10
0.760009039792
20
3.48067130778
11
0.766232587173
21
3.46573040462
0
LINE
5
88
100
AcDbEntity
8
Group#7
6
ByLayer
62
256
370
-1
100
AcDbLine
10
0.69044954507
20
3.38964523207
11
0.675484039437
21
3.3958093247
0
LINE
5
89
100
AcDbEntity
8
Group#7
6
ByLayer
62
256
370
-1
100
AcDbLine
10
0.857891122187
20
4.36899383558
11
0.858951656415
21
5.04359086049
0
LINE
5
8A
100
AcDbEntity
8
Group#7
6
ByLayer
62
256
370
-1
100
AcDbLine
10
0.569074112422
20
3.62669621429
11
0.562670529977
21
3.63228952964
0
LINE
5
8B
100
AcDbEntity
8
Group#7
6
ByLayer
62
256
370
-1
100
AcDbLine
10
0.766232705489
20
5.27321712099
11
0.768377210084
21
5.28925970074
0
LINE
5
8C
100
AcDbEntity
8
Group#7
6
ByLayer
62
256
370
-1
100
AcDbLine
10
0.850847073267
20
3.67132464518
11
0.84613745567
21
3.66424575954
0
LINE
5
8D
100
AcDbEntity
8
Group#7
6
ByLayer
62
256
370
-1
100
AcDbLine
10
0.600185043204
20
5.12506547072
11
0.591842725754
21
5.12342331619
0
LINE
5
8E
100
AcDbEntity
8
Group#7
6
ByLayer
62
256
370
-1
100
AcDbLine
10
0.583786121746
20
5.12070631744
11
0.576153081907
21
5.11696096307
0
LINE
5
8F
100
AcDbEntity
8
Group#7
6
ByLayer
62
256
370
-1
100
AcDbLine
10
0.750130571995
20
3.49349233621
11
0.760009039792
21
3.48067130778
0
LINE
5
90
100
AcDbEntity
8
Group#7
6
ByLayer
62
256
370
-1
100
AcDbLine
10
0.737484044322
20
5.34301492144
11
0.722543171484
21
5.34923848316
0
LINE
5
91
100
AcDbEntity
8
Group#7
6
ByLayer
62
256
370
-1
100
AcDbLine
10
0.644377334806
20
3.44944125812
11
0.646458021499
21
3.4654922397
0
LINE
5
92
100
AcDbEntity
8
Group#7
6
ByLayer
62
256
370
-1
100
AcDbLine
10
0.591842725754
20
5.12342331619
11
0.583786121746
21
5.12070631744
0
LINE
5
93
100
AcDbEntity
8
Group#7
6
ByLayer
62
256
370
-1
100
AcDbLine
10
0.662623852478
20
3.40563674651
11
0.652745384681
21
3.41845777494
0
LINE
5
94
100
AcDbEntity
8
Group#7
6
ByLayer
62
256
370
-1
100
AcDbLine
10
0.750130686677
20
5.2454551915
11
0.760009156153
21
5.25827621865
0
LINE
5
95
100
AcDbEntity
8
Group#7
6
ByLayer
62
256
370
-1
100
AcDbLine
10
0.722543043216
20
3.38970904816
11
0.706500494897
21
3.38756454135
0
LINE
5
96
100
AcDbEntity
8
Group#7
6
ByLayer
62
256
370
-1
100
AcDbLine
10
0.576153081907
20
5.11696096307
11
0.569074209665
21
5.11225133713
0
LINE
5
97
100
AcDbEntity
8
Group#7
6
ByLayer
62
256
370
-1
100
AcDbLine
10
0.706253929576
20
3.51156454137
11
0.722304879403
21
3.50948385065
0
LINE
5
98
100
AcDbEntity
8
Group#7
6
ByLayer
62
256
370
-1
100
AcDbLine
10
0.706500623447
20
5.35138299208
11
0.690449673347
21
5.34930230346
0
LINE
5
99
100
AcDbEntity
8
Group#7
6
ByLayer
62
256
370
-1
100
AcDbLine
10
0.766232587173
20
3.46573040462
11
0.768377089667
21
3.44968782459
0
LINE
5
9A
100
AcDbEntity
8
Group#7
6
ByLayer
62
256
370
-1
100
AcDbLine
10
0.600184944283
20
3.61388207663
11
0.591842627049
21
3.61552423225
0
LINE
5
9B
100
AcDbEntity
8
Group#7
6
ByLayer
62
256
370
-1
100
AcDbLine
10
0.591842627049
20
3.61552423225
11
0.583786023396
21
3.61824123205
0
LINE
5
9C
100
AcDbEntity
8
Group#7
6
ByLayer
62
256
370
-1
100
AcDbLine
10
0.722304879403
20
3.50948385065
11
0.737270385036
21
3.50331975802
0
LINE
5
9D
100
AcDbEntity
8
Group#7
6
ByLayer
62
256
370
-1
100
AcDbLine
10
0.854592511675
20
5.0599898144
11
0.850847164667
21
5.06762286935
0
LINE
5
9E
100
AcDbEntity
8
Group#7
6
ByLayer
62
256
370
-1
100
AcDbLine
10
0.652745384681
20
3.41845777494
11
0.6465218373
21
3.4333986781
0
LINE
5
9F
100
AcDbEntity
8
Group#7
6
ByLayer
62
256
370
-1
100
AcDbLine
10
0.675270507605
20
3.50319647479
11
0.690211381257
21
3.50942003455
0
LINE
5
A0
100
AcDbEntity
8
Group#7
6
ByLayer
62
256
370
-1
100
AcDbLine
10
0.834162957184
20
5.08672408965
11
0.82710287161
21
5.09146183196
0
LINE
5
A1
100
AcDbEntity
8
Group#7
6
ByLayer
62
256
370
-1
100
AcDbLine
10
0.548538491697
20
5.08559852435
11
0.545789477733
21
5.07755277396
0
LINE
5
A2
100
AcDbEntity
8
Group#7
6
ByLayer
62
256
370
-1
100
AcDbLine
10
0.544114161052
20
5.06921703704
11
0.542722792859
21
4.36941648799
0
LINE
5
A3
100
AcDbEntity
8
Group#7
6
ByLayer
62
256
370
-1
100
AcDbLine
10
0.840544151346
20
3.6578421644
11
0.834162863283
21
3.65222342706
0
LINE
5
A4
100
AcDbEntity
8
Group#7
6
ByLayer
62
256
370
-1
100
AcDbLine
10
0.827102777088
20
3.64748568568
11
0.819484692795
21
3.64371000431
0
LINE
5
A5
100
AcDbEntity
8
Group#7
6
ByLayer
62
256
370
-1
100
AcDbLine
10
0.548538397943
20
3.65334902975
11
0.545789385032
21
3.66139478051
0
LINE
5
A6
100
AcDbEntity
8
Group#7
6
ByLayer
62
256
370
-1
100
AcDbLine
10
0.857891122187
20
4.36899383558
11
0.858951568161
21
3.69535665298
0
LINE
5
A7
100
AcDbEntity
8
Group#7
6
ByLayer
62
256
370
-1
100
AcDbLine
10
0.846137547997
20
5.07470175561
11
0.840544244511
21
5.08110535148
0
LINE
5
A8
100
AcDbEntity
8
Group#7
6
ByLayer
62
256
370
-1
100
AcDbLine
10
0.766296402974
20
3.43363684302
11
0.760132322453
21
3.41867130776
0
LINE
5
A9
100
AcDbEntity
8
Group#7
6
ByLayer
62
256
370
-1
100
AcDbLine
10
0.84613745567
20
3.66424575954
11
0.840544151346
21
3.6578421644
0
LINE
5
AA
100
AcDbEntity
8
Group#7
6
ByLayer
62
256
370
-1
100
AcDbLine
10
0.557051899458
20
5.1002767227
11
0.552314166553
21
5.09321662319
0
LINE
5
AB
100
AcDbEntity
8
Group#7
6
ByLayer
62
256
370
-1
100
AcDbLine
10
0.545789385032
20
3.66139478051
11
0.544114069443
21
3.66973051765
0
LINE
5
AC
100
AcDbEntity
8
Group#7
6
ByLayer
62
256
370
-1
100
AcDbLine
10
0.545789477733
20
5.07755277396
11
0.544114161052
21
5.06921703704
0
LINE
5
AD
100
AcDbEntity
8
Group#7
6
ByLayer
62
256
370
-1
100
AcDbLine
10
0.850847164667
20
5.06762286935
11
0.846137547997
21
5.07470175561
0
LINE
5
AE
100
AcDbEntity
8
Group#7
6
ByLayer
62
256
370
-1
100
AcDbLine
10
0.646458241545
20
3.46549208462
11
0.652622322066
21
3.48045761987
0
LINE
5
AF
100
AcDbEntity
8
Group#7
6
ByLayer
62
256
370
-1
100
AcDbLine
10
0.644377554852
20
3.44944110305
11
0.646458241545
21
3.46549208462
0
LINE
5
B0
100
AcDbEntity
8
Group#7
6
ByLayer
62
256
370
-1
100
AcDbLine
10
0.646522057347
20
3.43339852302
11
0.644377554852
21
3.44944110305
0
LINE
5
B1
100
AcDbEntity
8
Group#7
6
ByLayer
62
256
370
-1
100
AcDbLine
10
0.652745604727
20
3.41845761986
11
0.646522057347
21
3.43339852302
0
LINE
5
B2
100
AcDbEntity
8
Group#7
6
ByLayer
62
256
370
-1
100
AcDbLine
10
0.662624072525
20
3.40563659143
11
0.652745604727
21
3.41845761986
0
LINE
5
B3
100
AcDbEntity
8
Group#7
6
ByLayer
62
256
370
-1
100
AcDbLine
10
0.675484259484
20
3.39580916962
11
0.662624072525
21
3.40563659143
0
LINE
5
B4
100
AcDbEntity
8
Group#7
6
ByLayer
62
256
370
-1
100
AcDbLine
10
0.690449765116
20
3.38964507699
11
0.675484259484
21
3.39580916962
0
LINE
5
B5
100
AcDbEntity
8
Group#7
6
ByLayer
62
256
370
-1
100
AcDbLine
10
0.706500714944
20
3.38756438627
11
0.690449765116
21
3.38964507699
0
LINE
5
B6
100
AcDbEntity
8
Group#7
6
ByLayer
62
256
370
-1
100
AcDbLine
10
0.722543263262
20
3.38970889309
11
0.706500714944
21
3.38756438627
0
LINE
5
B7
100
AcDbEntity
8
Group#7
6
ByLayer
62
256
370
-1
100
AcDbLine
10
0.737484136914
20
3.39593245285
11
0.722543263262
21
3.38970889309
0
LINE
5
B8
100
AcDbEntity
8
Group#7
6
ByLayer
62
256
370
-1
100
AcDbLine
10
0.750305140052
20
3.40581094025
11
0.737484136914
21
3.39593245285
0
LINE
5
B9
100
AcDbEntity
8
Group#7
6
ByLayer
62
256
370
-1
100
AcDbLine
10
0.7601325425
20
3.41867115269
11
0.750305140052
21
3.40581094025
0
LINE
5
BA
100
AcDbEntity
8
Group#7
6
ByLayer
62
256
370
-1
100
AcDbLine
10
0.766296623021
20
3.43363668794
11
0.7601325425
21
3.41867115269
0
LINE
5
BB
100
AcDbEntity
8
Group#7
6
ByLayer
62
256
370
-1
100
AcDbLine
10
0.768377309714
20
3.44968766951
11
0.766296623021
21
3.43363668794
0
LINE
5
BC
100
AcDbEntity
8
Group#7
6
ByLayer
62
256
370
-1
100
AcDbLine
10
0.766232807219
20
3.46573024954
11
0.768377309714
21
3.44968766951
0
LINE
5
BD
100
AcDbEntity
8
Group#7
6
ByLayer
62
256
370
-1
100
AcDbLine
10
0.760009259839
20
3.4806711527
11
0.766232807219
21
3.46573024954
0
LINE
5
BE
100
AcDbEntity
8
Group#7
6
ByLayer
62
256
370
-1
100
AcDbLine
10
0.750130792041
20
3.49349218113
11
0.760009259839
21
3.4806711527
0
LINE
5
BF
100
AcDbEntity
8
Group#7
6
ByLayer
62
256
370
-1
100
AcDbLine
10
0.737270605082
20
3.50331960294
11
0.750130792041
21
3.49349218113
0
LINE
5
C0
100
AcDbEntity
8
Group#7
6
ByLayer
62
256
370
-1
100
AcDbLine
10
0.72230509945
20
3.50948369557
11
0.737270605082
21
3.50331960294
0
LINE
5
C1
100
AcDbEntity
8
Group#7
6
ByLayer
62
256
370
-1
100
AcDbLine
10
0.706254149622
20
3.51156438629
11
0.72230509945
21
3.50948369557
0
LINE
5
C2
100
AcDbEntity
8
Group#7
6
ByLayer
62
256
370
-1
100
AcDbLine
10
0.690211601304
20
3.50941987947
11
0.706254149622
21
3.51156438629
0
LINE
5
C3
100
AcDbEntity
8
Group#7
6
ByLayer
62
256
370
-1
100
AcDbLine
10
0.675270727651
20
3.50319631971
11
0.690211601304
21
3.50941987947
0
LINE
5
C4
100
AcDbEntity
8
Group#7
6
ByLayer
62
256
370
-1
100
AcDbLine
10
0.662449724514
20
3.49331783231
11
0.675270727651
21
3.50319631971
0
LINE
5
C5
100
AcDbEntity
8
Group#7
6
ByLayer
62
256
370
-1
100
AcDbLine
10
0.652622322066
20
3.48045761987
11
0.662449724514
21
3.49331783231
0
LINE
5
C6
100
AcDbEntity
8
Group#7
6
ByLayer
62
256
370
-1
100
AcDbLine
10
0.646458021499
20
3.4654922397
11
0.646458241545
21
3.46549208462
0
LINE
5
C7
100
AcDbEntity
8
Group#7
6
ByLayer
62
256
370
-1
100
AcDbLine
10
0.65262210202
20
3.48045777495
11
0.652622322066
21
3.48045761987
0
LINE
5
C8
100
AcDbEntity
8
Group#7
6
ByLayer
62
256
370
-1
100
AcDbLine
10
0.644377334806
20
3.44944125812
11
0.644377554852
21
3.44944110305
0
LINE
5
C9
100
AcDbEntity
8
Group#7
6
ByLayer
62
256
370
-1
100
AcDbLine
10
0.6465218373
20
3.4333986781
11
0.646522057347
21
3.43339852302
0
LINE
5
CA
100
AcDbEntity
8
Group#7
6
ByLayer
62
256
370
-1
100
AcDbLine
10
0.652745384681
20
3.41845777494
11
0.652745604727
21
3.41845761986
0
LINE
5
CB
100
AcDbEntity
8
Group#7
6
ByLayer
62
256
370
-1
100
AcDbLine
10
0.662623852478
20
3.40563674651
11
0.662624072525
21
3.40563659143
0
LINE
5
CC
100
AcDbEntity
8
Group#7
6
ByLayer
62
256
370
-1
100
AcDbLine
10
0.675484039437
20
3.3958093247
11
0.675484259484
21
3.39580916962
0
LINE
5
CD
100
AcDbEntity
8
Group#7
6
ByLayer
62
256
370
-1
100
AcDbLine
10
0.69044954507
20
3.38964523207
11
0.690449765116
21
3.38964507699
0
LINE
5
CE
100
AcDbEntity
8
Group#7
6
ByLayer
62
256
370
-1
100
AcDbLine
10
0.706500494897
20
3.38756454135
11
0.706500714944
21
3.38756438627
0
LINE
5
CF
100
AcDbEntity
8
Group#7
6
ByLayer
62
256
370
-1
100
AcDbLine
10
0.722543043216
20
3.38970904816
11
0.722543263262
21
3.38970889309
0
LINE
5
D0
100
AcDbEntity
8
Group#7
6
ByLayer
62
256
370
-1
100
AcDbLine
10
0.737483916868
20
3.39593260793
11
0.737484136914
21
3.39593245285
0
LINE
5
D1
100
AcDbEntity
8
Group#7
6
ByLayer
62
256
370
-1
100
AcDbLine
10
0.750304920006
20
3.40581109533
11
0.750305140052
21
3.40581094025
0
LINE
5
D2
100
AcDbEntity
8
Group#7
6
ByLayer
62
256
370
-1
100
AcDbLine
10
0.760132322453
20
3.41867130776
11
0.7601325425
21
3.41867115269
0
LINE
5
D3
100
AcDbEntity
8
Group#7
6
ByLayer
62
256
370
-1
100
AcDbLine
10
0.766296402974
20
3.43363684302
11
0.766296623021
21
3.43363668794
0
LINE
5
D4
100
AcDbEntity
8
Group#7
6
ByLayer
62
256
370
-1
100
AcDbLine
10
0.768377089667
20
3.44968782459
11
0.768377309714
21
3.44968766951
0
LINE
5
D5
100
AcDbEntity
8
Group#7
6
ByLayer
62
256
370
-1
100
AcDbLine
10
0.766232587173
20
3.46573040462
11
0.766232807219
21
3.46573024954
0
LINE
5
D6
100
AcDbEntity
8
Group#7
6
ByLayer
62
256
370
-1
100
AcDbLine
10
0.760009039792
20
3.48067130778
11
0.760009259839
21
3.4806711527
0
LINE
5
D7
100
AcDbEntity
8
Group#7
6
ByLayer
62
256
370
-1
100
AcDbLine
10
0.750130571995
20
3.49349233621
11
0.750130792041
21
3.49349218113
0
LINE
5
D8
100
AcDbEntity
8
Group#7
6
ByLayer
62
256
370
-1
100
AcDbLine
10
0.737270385036
20
3.50331975802
11
0.737270605082
21
3.50331960294
0
LINE
5
D9
100
AcDbEntity
8
Group#7
6
ByLayer
62
256
370
-1
100
AcDbLine
10
0.722304879403
20
3.50948385065
11
0.72230509945
21
3.50948369557
0
LINE
5
DA
100
AcDbEntity
8
Group#7
6
ByLayer
62
256
370
-1
100
AcDbLine
10
0.706253929576
20
3.51156454137
11
0.706254149622
21
3.51156438629
0
LINE
5
DB
100
AcDbEntity
8
Group#7
6
ByLayer
62
256
370
-1
100
AcDbLine
10
0.690211381257
20
3.50942003455
11
0.690211601304
21
3.50941987947
0
LINE
5
DC
100
AcDbEntity
8
Group#7
6
ByLayer
62
256
370
-1
100
AcDbLine
10
0.675270507605
20
3.50319647479
11
0.675270727651
21
3.50319631971
0
LINE
5
DD
100
AcDbEntity
8
Group#7
6
ByLayer
62
256
370
-1
100
AcDbLine
10
0.662449504467
20
3.49331798739
11
0.662449724514
21
3.49331783231
0
LINE
5
DE
100
AcDbEntity
8
Group#7
6
ByLayer
62
256
370
-1
100
AcDbLine
10
0.675484386954
20
5.34313803872
11
0.662624198708
21
5.3333106186
0
LINE
5
DF
100
AcDbEntity
8
Group#7
6
ByLayer
62
256
370
-1
100
AcDbLine
10
0.662624198708
20
5.3333106186
11
0.652745729232
21
5.32048959146
0
LINE
5
E0
100
AcDbEntity
8
Group#7
6
ByLayer
62
256
370
-1
100
AcDbLine
10
0.652745729232
20
5.32048959146
11
0.646522179896
21
5.30554868911
0
LINE
5
E1
100
AcDbEntity
8
Group#7
6
ByLayer
62
256
370
-1
100
AcDbLine
10
0.646522179896
20
5.30554868911
11
0.644377675301
21
5.28950610937
0
LINE
5
E2
100
AcDbEntity
8
Group#7
6
ByLayer
62
256
370
-1
100
AcDbLine
10
0.644377675301
20
5.28950610937
11
0.646458359893
21
5.27345512752
0
LINE
5
E3
100
AcDbEntity
8
Group#7
6
ByLayer
62
256
370
-1
100
AcDbLine
10
0.646458359893
20
5.27345512752
11
0.652622438454
21
5.25848959146
0
LINE
5
E4
100
AcDbEntity
8
Group#7
6
ByLayer
62
256
370
-1
100
AcDbLine
10
0.652622438454
20
5.25848959146
11
0.662449839218
21
5.24562937773
0
LINE
5
E5
100
AcDbEntity
8
Group#7
6
ByLayer
62
256
370
-1
100
AcDbLine
10
0.662449839218
20
5.24562937773
11
0.675270841063
21
5.23575088866
0
LINE
5
E6
100
AcDbEntity
8
Group#7
6
ByLayer
62
256
370
-1
100
AcDbLine
10
0.675270841063
20
5.23575088866
11
0.6902117139
21
5.22952732694
0
LINE
5
E7
100
AcDbEntity
8
Group#7
6
ByLayer
62
256
370
-1
100
AcDbLine
10
0.6902117139
20
5.22952732694
11
0.706254261938
21
5.22738281802
0
LINE
5
E8
100
AcDbEntity
8
Group#7
6
ByLayer
62
256
370
-1
100
AcDbLine
10
0.706254261938
20
5.22738281802
11
0.722305212038
21
5.22946350664
0
LINE
5
E9
100
AcDbEntity
8
Group#7
6
ByLayer
62
256
370
-1
100
AcDbLine
10
0.722305212038
20
5.22946350664
11
0.737270718477
21
5.23562759731
0
LINE
5
EA
100
AcDbEntity
8
Group#7
6
ByLayer
62
256
370
-1
100
AcDbLine
10
0.737270718477
20
5.23562759731
11
0.750130906723
21
5.24545501743
0
LINE
5
EB
100
AcDbEntity
8
Group#7
6
ByLayer
62
256
370
-1
100
AcDbLine
10
0.750130906723
20
5.24545501743
11
0.760009376199
21
5.25827604458
0
LINE
5
EC
100
AcDbEntity
8
Group#7
6
ByLayer
62
256
370
-1
100
AcDbLine
10
0.760009376199
20
5.25827604458
11
0.766232925536
21
5.27321694692
0
LINE
5
ED
100
AcDbEntity
8
Group#7
6
ByLayer
62
256
370
-1
100
AcDbLine
10
0.766232925536
20
5.27321694692
11
0.76837743013
21
5.28925952667
0
LINE
5
EE
100
AcDbEntity
8
Group#7
6
ByLayer
62
256
370
-1
100
AcDbLine
10
0.76837743013
20
5.28925952667
11
0.766296745538
21
5.30531050851
0
LINE
5
EF
100
AcDbEntity
8
Group#7
6
ByLayer
62
256
370
-1
100
AcDbLine
10
0.766296745538
20
5.30531050851
11
0.760132666977
21
5.32027604457
0
LINE
5
F0
100
AcDbEntity
8
Group#7
6
ByLayer
62
256
370
-1
100
AcDbLine
10
0.760132666977
20
5.32027604457
11
0.750305266213
21
5.3331362583
0
LINE
5
F1
100
AcDbEntity
8
Group#7
6
ByLayer
62
256
370
-1
100
AcDbLine
10
0.750305266213
20
5.3331362583
11
0.737484264369
21
5.34301474737
0
LINE
5
F2
100
AcDbEntity
8
Group#7
6
ByLayer
62
256
370
-1
100
AcDbLine
10
0.737484264369
20
5.34301474737
11
0.722543391531
21
5.34923830909
0
LINE
5
F3
100
AcDbEntity
8
Group#7
6
ByLayer
62
256
370
-1
100
AcDbLine
10
0.722543391531
20
5.34923830909
11
0.706500843493
21
5.35138281801
0
LINE
5
F4
100
AcDbEntity
8
Group#7
6
ByLayer
62
256
370
-1
100
AcDbLine
10
0.706500843493
20
5.35138281801
11
0.690449893393
21
5.34930212939
0
LINE
5
F5
100
AcDbEntity
8
Group#7
6
ByLayer
62
256
370
-1
100
AcDbLine
10
0.690449893393
20
5.34930212939
11
0.675484386954
21
5.34313803872
0
LINE
5
F6
100
AcDbEntity
8
Group#7
6
ByLayer
62
256
370
-1
100
AcDbLine
10
0.662623978662
20
5.33331079267
11
0.662624198708
21
5.3333106186
0
LINE
5
F7
100
AcDbEntity
8
Group#7
6
ByLayer
62
256
370
-1
100
AcDbLine
10
0.675484166908
20
5.34313821279
11
0.675484386954
21
5.34313803872
0
LINE
5
F8
100
AcDbEntity
8
Group#7
6
ByLayer
62
256
370
-1
100
AcDbLine
10
0.652745509186
20
5.32048976553
11
0.652745729232
21
5.32048959146
0
LINE
5
F9
100
AcDbEntity
8
Group#7
6
ByLayer
62
256
370
-1
100
AcDbLine
10
0.646521959849
20
5.30554886318
11
0.646522179896
21
5.30554868911
0
LINE
5
FA
100
AcDbEntity
8
Group#7
6
ByLayer
62
256
370
-1
100
AcDbLine
10
0.644377455255
20
5.28950628344
11
0.644377675301
21
5.28950610937
0
LINE
5
FB
100
AcDbEntity
8
Group#7
6
ByLayer
62
256
370
-1
100
AcDbLine
10
0.646458139846
20
5.27345530159
11
0.646458359893
21
5.27345512752
0
LINE
5
FC
100
AcDbEntity
8
Group#7
6
ByLayer
62
256
370
-1
100
AcDbLine
10
0.652622218408
20
5.25848976553
11
0.652622438454
21
5.25848959146
0
LINE
5
FD
100
AcDbEntity
8
Group#7
6
ByLayer
62
256
370
-1
100
AcDbLine
10
0.662449619172
20
5.2456295518
11
0.662449839218
21
5.24562937773
0
LINE
5
FE
100
AcDbEntity
8
Group#7
6
ByLayer
62
256
370
-1
100
AcDbLine
10
0.675270621016
20
5.23575106273
11
0.675270841063
21
5.23575088866
0
LINE
5
FF
100
AcDbEntity
8
Group#7
6
ByLayer
62
256
370
-1
100
AcDbLine
10
0.690211493854
20
5.22952750101
11
0.6902117139
21
5.22952732694
0
LINE
5
100
100
AcDbEntity
8
Group#7
6
ByLayer
62
256
370
-1
100
AcDbLine
10
0.706254041891
20
5.22738299209
11
0.706254261938
21
5.22738281802
0
LINE
5
101
100
AcDbEntity
8
Group#7
6
ByLayer
62
256
370
-1
100
AcDbLine
10
0.722304991992
20
5.22946368071
11
0.722305212038
21
5.22946350664
0
LINE
5
102
100
AcDbEntity
8
Group#7
6
ByLayer
62
256
370
-1
100
AcDbLine
10
0.737270498431
20
5.23562777138
11
0.737270718477
21
5.23562759731
0
LINE
5
103
100
AcDbEntity
8
Group#7
6
ByLayer
62
256
370
-1
100
AcDbLine
10
0.750130686677
20
5.2454551915
11
0.750130906723
21
5.24545501743
0
LINE
5
104
100
AcDbEntity
8
Group#7
6
ByLayer
62
256
370
-1
100
AcDbLine
10
0.760009156153
20
5.25827621865
11
0.760009376199
21
5.25827604458
0
LINE
5
105
100
AcDbEntity
8
Group#7
6
ByLayer
62
256
370
-1
100
AcDbLine
10
0.766232705489
20
5.27321712099
11
0.766232925536
21
5.27321694692
0
LINE
5
106
100
AcDbEntity
8
Group#7
6
ByLayer
62
256
370
-1
100
AcDbLine
10
0.768377210084
20
5.28925970074
11
0.76837743013
21
5.28925952667
0
LINE
5
107
100
AcDbEntity
8
Group#7
6
ByLayer
62
256
370
-1
100
AcDbLine
10
0.766296525492
20
5.30531068258
11
0.766296745538
21
5.30531050851
0
LINE
5
108
100
AcDbEntity
8
Group#7
6
ByLayer
62
256
370
-1
100
AcDbLine
10
0.760132446931
20
5.32027621864
11
0.760132666977
21
5.32027604457
0
LINE
5
109
100
AcDbEntity
8
Group#7
6
ByLayer
62
256
370
-1
100
AcDbLine
10
0.750305046167
20
5.33313643237
11
0.750305266213
21
5.3331362583
0
LINE
5
10A
100
AcDbEntity
8
Group#7
6
ByLayer
62
256
370
-1
100
AcDbLine
10
0.737484044322
20
5.34301492144
11
0.737484264369
21
5.34301474737
0
LINE
5
10B
100
AcDbEntity
8
Group#7
6
ByLayer
62
256
370
-1
100
AcDbLine
10
0.722543171484
20
5.34923848316
11
0.722543391531
21
5.34923830909
0
LINE
5
10C
100
AcDbEntity
8
Group#7
6
ByLayer
62
256
370
-1
100
AcDbLine
10
0.706500623447
20
5.35138299208
11
0.706500843493
21
5.35138281801
0
LINE
5
10D
100
AcDbEntity
8
Group#7
6
ByLayer
62
256
370
-1
100
AcDbLine
10
0.690449673347
20
5.34930230346
11
0.690449893393
21
5.34930212939
0
LINE
5
10E
100
AcDbEntity
8
Group#7
6
ByLayer
62
256
370
-1
100
AcDbLine
10
0.803103458238
20
3.6392855024
11
0.608670456709
21
3.61334269837
0
LINE
5
10F
100
AcDbEntity
8
Group#7
6
ByLayer
62
256
370
-1
100
AcDbLine
10
0.811439178906
20
3.64096082135
11
0.803103458238
21
3.6392855024
0
LINE
5
110
100
AcDbEntity
8
Group#7
6
ByLayer
62
256
370
-1
100
AcDbLine
10
0.819484913765
20
3.64370983974
11
0.811439178906
21
3.64096082135
0
LINE
5
111
100
AcDbEntity
8
Group#7
6
ByLayer
62
256
370
-1
100
AcDbLine
10
0.827102998058
20
3.6474855211
11
0.819484913765
21
3.64370983974
0
LINE
5
112
100
AcDbEntity
8
Group#7
6
ByLayer
62
256
370
-1
100
AcDbLine
10
0.834163084252
20
3.65222326249
11
0.827102998058
21
3.6474855211
0
LINE
5
113
100
AcDbEntity
8
Group#7
6
ByLayer
62
256
370
-1
100
AcDbLine
10
0.840544372316
20
3.65784199983
11
0.834163084252
21
3.65222326249
0
LINE
5
114
100
AcDbEntity
8
Group#7
6
ByLayer
62
256
370
-1
100
AcDbLine
10
0.846137676639
20
3.66424559496
11
0.840544372316
21
3.65784199983
0
LINE
5
115
100
AcDbEntity
8
Group#7
6
ByLayer
62
256
370
-1
100
AcDbLine
10
0.850847294236
20
3.67132448061
11
0.846137676639
21
3.66424559496
0
LINE
5
116
100
AcDbEntity
8
Group#7
6
ByLayer
62
256
370
-1
100
AcDbLine
10
0.854592642243
20
3.67895753507
11
0.850847294236
21
3.67132448061
0
LINE
5
117
100
AcDbEntity
8
Group#7
6
ByLayer
62
256
370
-1
100
AcDbLine
10
0.857309636718
20
3.68701415466
11
0.854592642243
21
3.67895753507
0
LINE
5
118
100
AcDbEntity
8
Group#7
6
ByLayer
62
256
370
-1
100
AcDbLine
10
0.858951789131
20
3.6953564884
11
0.857309636718
21
3.68701415466
0
LINE
5
119
100
AcDbEntity
8
Group#7
6
ByLayer
62
256
370
-1
100
AcDbLine
10
0.857891343156
20
4.36899367101
11
0.858951789131
21
3.6953564884
0
LINE
5
11A
100
AcDbEntity
8
Group#7
6
ByLayer
62
256
370
-1
100
AcDbLine
10
0.857891343156
20
4.36899367101
11
0.858951877385
21
5.04359069592
0
LINE
5
11B
100
AcDbEntity
8
Group#7
6
ByLayer
62
256
370
-1
100
AcDbLine
10
0.858951877385
20
5.04359069592
11
0.857309726064
21
5.05193302987
0
LINE
5
11C
100
AcDbEntity
8
Group#7
6
ByLayer
62
256
370
-1
100
AcDbLine
10
0.857309726064
20
5.05193302987
11
0.854592732644
21
5.05998964982
0
LINE
5
11D
100
AcDbEntity
8
Group#7
6
ByLayer
62
256
370
-1
100
AcDbLine
10
0.854592732644
20
5.05998964982
11
0.850847385637
21
5.06762270477
0
LINE
5
11E
100
AcDbEntity
8
Group#7
6
ByLayer
62
256
370
-1
100
AcDbLine
10
0.850847385637
20
5.06762270477
11
0.846137768967
21
5.07470159104
0
LINE
5
11F
100
AcDbEntity
8
Group#7
6
ByLayer
62
256
370
-1
100
AcDbLine
10
0.846137768967
20
5.07470159104
11
0.840544465481
21
5.0811051869
0
LINE
5
120
100
AcDbEntity
8
Group#7
6
ByLayer
62
256
370
-1
100
AcDbLine
10
0.840544465481
20
5.0811051869
11
0.834163178153
21
5.08672392508
0
LINE
5
121
100
AcDbEntity
8
Group#7
6
ByLayer
62
256
370
-1
100
AcDbLine
10
0.834163178153
20
5.08672392508
11
0.827103092579
21
5.09146166739
0
LINE
5
122
100
AcDbEntity
8
Group#7
6
ByLayer
62
256
370
-1
100
AcDbLine
10
0.827103092579
20
5.09146166739
11
0.81948500878
21
5.09523734975
0
LINE
5
123
100
AcDbEntity
8
Group#7
6
ByLayer
62
256
370
-1
100
AcDbLine
10
0.81948500878
20
5.09523734975
11
0.811439274282
21
5.09798636919
0
LINE
5
124
100
AcDbEntity
8
Group#7
6
ByLayer
62
256
370
-1
100
AcDbLine
10
0.811439274282
20
5.09798636919
11
0.803103553833
21
5.09966168923
0
LINE
5
125
100
AcDbEntity
8
Group#7
6
ByLayer
62
256
370
-1
100
AcDbLine
10
0.803103553833
20
5.09966168923
11
0.6086705557
21
5.12560451872
0
LINE
5
126
100
AcDbEntity
8
Group#7
6
ByLayer
62
256
370
-1
100
AcDbLine
10
0.6086705557
20
5.12560451872
11
0.600185264174
21
5.12506530614
0
LINE
5
127
100
AcDbEntity
8
Group#7
6
ByLayer
62
256
370
-1
100
AcDbLine
10
0.600185264174
20
5.12506530614
11
0.591842946724
21
5.12342315162
0
LINE
5
128
100
AcDbEntity
8
Group#7
6
ByLayer
62
256
370
-1
100
AcDbLine
10
0.591842946724
20
5.12342315162
11
0.583786342715
21
5.12070615287
0
LINE
5
129
100
AcDbEntity
8
Group#7
6
ByLayer
62
256
370
-1
100
AcDbLine
10
0.583786342715
20
5.12070615287
11
0.576153302876
21
5.1169607985
0
LINE
5
12A
100
AcDbEntity
8
Group#7
6
ByLayer
62
256
370
-1
100
AcDbLine
10
0.576153302876
20
5.1169607985
11
0.569074430635
21
5.11225117255
0
LINE
5
12B
100
AcDbEntity
8
Group#7
6
ByLayer
62
256
370
-1
100
AcDbLine
10
0.569074430635
20
5.11225117255
11
0.562670847457
21
5.10665785804
0
LINE
5
12C
100
AcDbEntity
8
Group#7
6
ByLayer
62
256
370
-1
100
AcDbLine
10
0.562670847457
20
5.10665785804
11
0.557052120428
21
5.10027655813
0
LINE
5
12D
100
AcDbEntity
8
Group#7
6
ByLayer
62
256
370
-1
100
AcDbLine
10
0.557052120428
20
5.10027655813
11
0.552314387523
21
5.09321645862
0
LINE
5
12E
100
AcDbEntity
8
Group#7
6
ByLayer
62
256
370
-1
100
AcDbLine
10
0.552314387523
20
5.09321645862
11
0.548538712666
21
5.08559835978
0
LINE
5
12F
100
AcDbEntity
8
Group#7
6
ByLayer
62
256
370
-1
100
AcDbLine
10
0.548538712666
20
5.08559835978
11
0.545789698702
21
5.07755260939
0
LINE
5
130
100
AcDbEntity
8
Group#7
6
ByLayer
62
256
370
-1
100
AcDbLine
10
0.545789698702
20
5.07755260939
11
0.544114382021
21
5.06921687247
0
LINE
5
131
100
AcDbEntity
8
Group#7
6
ByLayer
62
256
370
-1
100
AcDbLine
10
0.544114382021
20
5.06921687247
11
0.542723013828
21
4.36941632341
0
LINE
5
132
100
AcDbEntity
8
Group#7
6
ByLayer
62
256
370
-1
100
AcDbLine
10
0.544114290412
20
3.66973035307
11
0.542723013828
21
4.36941632341
0
LINE
5
133
100
AcDbEntity
8
Group#7
6
ByLayer
62
256
370
-1
100
AcDbLine
10
0.545789606002
20
3.66139461593
11
0.544114290412
21
3.66973035307
0
LINE
5
134
100
AcDbEntity
8
Group#7
6
ByLayer
62
256
370
-1
100
AcDbLine
10
0.548538618913
20
3.65334886518
11
0.545789606002
21
3.66139461593
0
LINE
5
135
100
AcDbEntity
8
Group#7
6
ByLayer
62
256
370
-1
100
AcDbLine
10
0.552314292772
20
3.64573076584
11
0.548538618913
21
3.65334886518
0
LINE
5
136
100
AcDbEntity
8
Group#7
6
ByLayer
62
256
370
-1
100
AcDbLine
10
0.557052024752
20
3.63867066572
11
0.552314292772
21
3.64573076584
0
LINE
5
137
100
AcDbEntity
8
Group#7
6
ByLayer
62
256
370
-1
100
AcDbLine
10
0.562670750947
20
3.63228936507
11
0.557052024752
21
3.63867066572
0
LINE
5
138
100
AcDbEntity
8
Group#7
6
ByLayer
62
256
370
-1
100
AcDbLine
10
0.569074333392
20
3.62669604972
11
0.562670750947
21
3.63228936507
0
LINE
5
139
100
AcDbEntity
8
Group#7
6
ByLayer
62
256
370
-1
100
AcDbLine
10
0.576153205017
20
3.62198642285
11
0.569074333392
21
3.62669604972
0
LINE
5
13A
100
AcDbEntity
8
Group#7
6
ByLayer
62
256
370
-1
100
AcDbLine
10
0.583786244365
20
3.61824106748
11
0.576153205017
21
3.62198642285
0
LINE
5
13B
100
AcDbEntity
8
Group#7
6
ByLayer
62
256
370
-1
100
AcDbLine
10
0.591842848018
20
3.61552406767
11
0.583786244365
21
3.61824106748
0
LINE
5
13C
100
AcDbEntity
8
Group#7
6
ByLayer
62
256
370
-1
100
AcDbLine
10
0.600185165253
20
3.61388191206
11
0.591842848018
21
3.61552406767
0
LINE
5
13D
100
AcDbEntity
8
Group#7
6
ByLayer
62
256
370
-1
100
AcDbLine
10
0.608670456709
20
3.61334269837
11
0.600185165253
21
3.61388191206
0
LINE
5
13E
100
AcDbEntity
8
Group#7
6
ByLayer
62
256
370
-1
100
AcDbLine
10
0.803103237268
20
3.63928566698
11
0.803103458238
21
3.6392855024
0
LINE
5
13F
100
AcDbEntity
8
Group#7
6
ByLayer
62
256
370
-1
100
AcDbLine
10
0.608670235739
20
3.61334286294
11
0.608670456709
21
3.61334269837
0
LINE
5
140
100
AcDbEntity
8
Group#7
6
ByLayer
62
256
370
-1
100
AcDbLine
10
0.811438957937
20
3.64096098593
11
0.811439178906
21
3.64096082135
0
LINE
5
141
100
AcDbEntity
8
Group#7
6
ByLayer
62
256
370
-1
100
AcDbLine
10
0.819484692795
20
3.64371000431
11
0.819484913765
21
3.64370983974
0
LINE
5
142
100
AcDbEntity
8
Group#7
6
ByLayer
62
256
370
-1
100
AcDbLine
10
0.827102777088
20
3.64748568568
11
0.827102998058
21
3.6474855211
0
LINE
5
143
100
AcDbEntity
8
Group#7
6
ByLayer
62
256
370
-1
100
AcDbLine
10
0.834162863283
20
3.65222342706
11
0.834163084252
21
3.65222326249
0
LINE
5
144
100
AcDbEntity
8
Group#7
6
ByLayer
62
256
370
-1
100
AcDbLine
10
0.840544151346
20
3.6578421644
11
0.840544372316
21
3.65784199983
0
LINE
5
145
100
AcDbEntity
8
Group#7
6
ByLayer
62
256
370
-1
100
AcDbLine
10
0.84613745567
20
3.66424575954
11
0.846137676639
21
3.66424559496
0
LINE
5
146
100
AcDbEntity
8
Group#7
6
ByLayer
62
256
370
-1
100
AcDbLine
10
0.850847073267
20
3.67132464518
11
0.850847294236
21
3.67132448061
0
LINE
5
147
100
AcDbEntity
8
Group#7
6
ByLayer
62
256
370
-1
100
AcDbLine
10
0.854592421274
20
3.67895769964
11
0.854592642243
21
3.67895753507
0
LINE
5
148
100
AcDbEntity
8
Group#7
6
ByLayer
62
256
370
-1
100
AcDbLine
10
0.857309415748
20
3.68701431924
11
0.857309636718
21
3.68701415466
0
LINE
5
149
100
AcDbEntity
8
Group#7
6
ByLayer
62
256
370
-1
100
AcDbLine
10
0.858951568161
20
3.69535665298
11
0.858951789131
21
3.6953564884
0
LINE
5
14A
100
AcDbEntity
8
Group#7
6
ByLayer
62
256
370
-1
100
AcDbLine
10
0.858951656415
20
5.04359086049
11
0.858951877385
21
5.04359069592
0
LINE
5
14B
100
AcDbEntity
8
Group#7
6
ByLayer
62
256
370
-1
100
AcDbLine
10
0.857309505094
20
5.05193319445
11
0.857309726064
21
5.05193302987
0
LINE
5
14C
100
AcDbEntity
8
Group#7
6
ByLayer
62
256
370
-1
100
AcDbLine
10
0.854592511675
20
5.0599898144
11
0.854592732644
21
5.05998964982
0
LINE
5
14D
100
AcDbEntity
8
Group#7
6
ByLayer
62
256
370
-1
100
AcDbLine
10
0.850847164667
20
5.06762286935
11
0.850847385637
21
5.06762270477
0
LINE
5
14E
100
AcDbEntity
8
Group#7
6
ByLayer
62
256
370
-1
100
AcDbLine
10
0.846137547997
20
5.07470175561
11
0.846137768967
21
5.07470159104
0
LINE
5
14F
100
AcDbEntity
8
Group#7
6
ByLayer
62
256
370
-1
100
AcDbLine
10
0.840544244511
20
5.08110535148
11
0.840544465481
21
5.0811051869
0
LINE
5
150
100
AcDbEntity
8
Group#7
6
ByLayer
62
256
370
-1
100
AcDbLine
10
0.834162957184
20
5.08672408965
11
0.834163178153
21
5.08672392508
0
LINE
5
151
100
AcDbEntity
8
Group#7
6
ByLayer
62
256
370
-1
100
AcDbLine
10
0.82710287161
20
5.09146183196
11
0.827103092579
21
5.09146166739
0
LINE
5
152
100
AcDbEntity
8
Group#7
6
ByLayer
62
256
370
-1
100
AcDbLine
10
0.819484787811
20
5.09523751432
11
0.81948500878
21
5.09523734975
0
LINE
5
153
100
AcDbEntity
8
Group#7
6
ByLayer
62
256
370
-1
100
AcDbLine
10
0.811439053312
20
5.09798653376
11
0.811439274282
21
5.09798636919
0
LINE
5
154
100
AcDbEntity
8
Group#7
6
ByLayer
62
256
370
-1
100
AcDbLine
10
0.803103332863
20
5.0996618538
11
0.803103553833
21
5.09966168923
0
LINE
5
155
100
AcDbEntity
8
Group#7
6
ByLayer
62
256
370
-1
100
AcDbLine
10
0.60867033473
20
5.12560468329
11
0.6086705557
21
5.12560451872
0
LINE
5
156
100
AcDbEntity
8
Group#7
6
ByLayer
62
256
370
-1
100
AcDbLine
10
0.600185043204
20
5.12506547072
11
0.600185264174
21
5.12506530614
0
LINE
5
157
100
AcDbEntity
8
Group#7
6
ByLayer
62
256
370
-1
100
AcDbLine
10
0.591842725754
20
5.12342331619
11
0.591842946724
21
5.12342315162
0
LINE
5
158
100
AcDbEntity
8
Group#7
6
ByLayer
62
256
370
-1
100
AcDbLine
10
0.583786121746
20
5.12070631744
11
0.583786342715
21
5.12070615287
0
LINE
5
159
100
AcDbEntity
8
Group#7
6
ByLayer
62
256
370
-1
100
AcDbLine
10
0.576153081907
20
5.11696096307
11
0.576153302876
21
5.1169607985
0
LINE
5
15A
100
AcDbEntity
8
Group#7
6
ByLayer
62
256
370
-1
100
AcDbLine
10
0.569074209665
20
5.11225133713
11
0.569074430635
21
5.11225117255
0
LINE
5
15B
100
AcDbEntity
8
Group#7
6
ByLayer
62
256
370
-1
100
AcDbLine
10
0.562670626488
20
5.10665802262
11
0.562670847457
21
5.10665785804
0
LINE
5
15C
100
AcDbEntity
8
Group#7
6
ByLayer
62
256
370
-1
100
AcDbLine
10
0.557051899458
20
5.1002767227
11
0.557052120428
21
5.10027655813
0
LINE
5
15D
100
AcDbEntity
8
Group#7
6
ByLayer
62
256
370
-1
100
AcDbLine
10
0.552314166553
20
5.09321662319
11
0.552314387523
21
5.09321645862
0
LINE
5
15E
100
AcDbEntity
8
Group#7
6
ByLayer
62
256
370
-1
100
AcDbLine
10
0.548538491697
20
5.08559852435
11
0.548538712666
21
5.08559835978
0
LINE
5
15F
100
AcDbEntity
8
Group#7
6
ByLayer
62
256
370
-1
100
AcDbLine
10
0.545789477733
20
5.07755277396
11
0.545789698702
21
5.07755260939
0
LINE
5
160
100
AcDbEntity
8
Group#7
6
ByLayer
62
256
370
-1
100
AcDbLine
10
0.544114161052
20
5.06921703704
11
0.544114382021
21
5.06921687247
0
LINE
5
161
100
AcDbEntity
8
Group#7
6
ByLayer
62
256
370
-1
100
AcDbLine
10
0.542722792859
20
4.36941648799
11
0.542723013828
21
4.36941632341
0
LINE
5
162
100
AcDbEntity
8
Group#7
6
ByLayer
62
256
370
-1
100
AcDbLine
10
0.544114069443
20
3.66973051765
11
0.544114290412
21
3.66973035307
0
LINE
5
163
100
AcDbEntity
8
Group#7
6
ByLayer
62
256
370
-1
100
AcDbLine
10
0.545789385032
20
3.66139478051
11
0.545789606002
21
3.66139461593
0
LINE
5
164
100
AcDbEntity
8
Group#7
6
ByLayer
62
256
370
-1
100
AcDbLine
10
0.548538397943
20
3.65334902975
11
0.548538618913
21
3.65334886518
0
LINE
5
165
100
AcDbEntity
8
Group#7
6
ByLayer
62
256
370
-1
100
AcDbLine
10
0.552314071802
20
3.64573093042
11
0.552314292772
21
3.64573076584
0
LINE
5
166
100
AcDbEntity
8
Group#7
6
ByLayer
62
256
370
-1
100
AcDbLine
10
0.557051803783
20
3.63867083029
11
0.557052024752
21
3.63867066572
0
LINE
5
167
100
AcDbEntity
8
Group#7
6
ByLayer
62
256
370
-1
100
AcDbLine
10
0.562670529977
20
3.63228952964
11
0.562670750947
21
3.63228936507
0
LINE
5
168
100
AcDbEntity
8
Group#7
6
ByLayer
62
256
370
-1
100
AcDbLine
10
0.569074112422
20
3.62669621429
11
0.569074333392
21
3.62669604972
0
LINE
5
169
100
AcDbEntity
8
Group#7
6
ByLayer
62
256
370
-1
100
AcDbLine
10
0.576152984047
20
3.62198658742
11
0.576153205017
21
3.62198642285
0
LINE
5
16A
100
AcDbEntity
8
Group#7
6
ByLayer
62
256
370
-1
100
AcDbLine
10
0.583786023396
20
3.61824123205
11
0.583786244365
21
3.61824106748
0
LINE
5
16B
100
AcDbEntity
8
Group#7
6
ByLayer
62
256
370
-1
100
AcDbLine
10
0.591842627049
20
3.61552423225
11
0.591842848018
21
3.61552406767
0
LINE
5
16C
100
AcDbEntity
8
Group#7
6
ByLayer
62
256
370
-1
100
AcDbLine
10
0.600184944283
20
3.61388207663
11
0.600185165253
21
3.61388191206
0
LINE
5
16D
100
AcDbEntity
8
Group#7
6
ByLayer
62
256
370
-1
100
AcDbLine
10
2.14318129396
20
2.14318068421
11
2.14318140723
21
2.14318084879
0
LINE
5
16E
100
AcDbEntity
8
Group#7
6
ByLayer
62
256
370
-1
100
AcDbLine
10
2.14318140723
20
2.14318084879
11
2.14318142969
21
2.48618084879
0
LINE
5
16F
100
AcDbEntity
8
Group#7
6
ByLayer
62
256
370
-1
100
AcDbLine
10
2.14318167626
20
6.25276649654
11
1.64318167626
21
6.25276652927
0
LINE
5
170
100
AcDbEntity
8
Group#7
6
ByLayer
62
256
370
-1
100
AcDbLine
10
2.14318169871
20
6.59576649654
11
5.96352941524e-07
21
6.59576663684
0
LINE
5
171
100
AcDbEntity
8
Group#7
6
ByLayer
62
256
370
-1
100
AcDbLine
10
2.14318167626
20
6.25276649654
11
2.14318169871
21
6.59576649654
0
LINE
5
172
100
AcDbEntity
8
Group#7
6
ByLayer
62
256
370
-1
100
AcDbLine
10
1.64318144206
20
2.67518088152
11
1.64318142969
21
2.48618088152
0
LINE
5
173
100
AcDbEntity
8
Group#7
6
ByLayer
62
256
370
-1
100
AcDbLine
10
1.64318142969
20
2.48618088152
11
2.14318142969
21
2.48618084879
0
LINE
5
174
100
AcDbEntity
8
Group#7
6
ByLayer
62
256
370
-1
100
AcDbLine
10
2.08018144206
20
2.67518085291
11
1.64318144206
21
2.67518088152
0
LINE
5
175
100
AcDbEntity
8
Group#7
6
ByLayer
62
256
370
-1
100
AcDbLine
10
2.08018144206
20
2.67518085291
11
2.08018166389
21
6.06376650066
0
LINE
5
176
100
AcDbEntity
8
Group#7
6
ByLayer
62
256
370
-1
100
AcDbLine
10
1.64318166389
20
6.06376652927
11
1.64318167626
21
6.25276652927
0
LINE
5
177
100
AcDbEntity
8
Group#7
6
ByLayer
62
256
370
-1
100
AcDbLine
10
2.08018166389
20
6.06376650066
11
1.64318166389
21
6.06376652927
0
LINE
5
178
100
AcDbEntity
8
Group#7
6
ByLayer
62
256
370
-1
100
AcDbLine
10
3.04875130475e-07
20
2.14318098909
11
2.14318140723
21
2.14318084879
0
LINE
5
179
100
AcDbEntity
8
Group#7
6
ByLayer
62
256
370
-1
100
AcDbLine
10
1.64318131629
20
2.48618071708
11
2.14318131629
21
2.48618068435
0
LINE
5
17A
100
AcDbEntity
8
Group#7
6
ByLayer
62
256
370
-1
100
AcDbLine
10
2.08018132866
20
2.67518068847
11
1.64318132866
21
2.67518071708
0
LINE
5
17B
100
AcDbEntity
8
Group#7
6
ByLayer
62
256
370
-1
100
AcDbLine
10
1.64318132866
20
2.67518071708
11
1.64318131629
21
2.48618071708
0
LINE
5
17C
100
AcDbEntity
8
Group#7
6
ByLayer
62
256
370
-1
100
AcDbLine
10
1.64318142969
20
2.48618088152
11
1.64318131629
21
2.48618071708
0
LINE
5
17D
100
AcDbEntity
8
Group#7
6
ByLayer
62
256
370
-1
100
AcDbLine
10
2.14318142969
20
2.48618084879
11
2.14318131629
21
2.48618068435
0
LINE
5
17E
100
AcDbEntity
8
Group#7
6
ByLayer
62
256
370
-1
100
AcDbLine
10
2.08018144206
20
2.67518085291
11
2.08018132866
21
2.67518068847
0
LINE
5
17F
100
AcDbEntity
8
Group#7
6
ByLayer
62
256
370
-1
100
AcDbLine
10
1.64318144206
20
2.67518088152
11
1.64318132866
21
2.67518071708
0
LINE
5
180
100
AcDbEntity
8
Group#7
6
ByLayer
62
256
370
-1
100
AcDbLine
10
2.08018132866
20
2.67518068847
11
2.08018155053
21
6.06376633608
0
LINE
5
181
100
AcDbEntity
8
Group#7
6
ByLayer
62
256
370
-1
100
AcDbLine
10
2.14318156291
20
6.25276633195
11
1.64318156291
21
6.25276636468
0
LINE
5
182
100
AcDbEntity
8
Group#7
6
ByLayer
62
256
370
-1
100
AcDbLine
10
1.64318155054
20
6.06376636469
11
1.64318156291
21
6.25276636468
0
LINE
5
183
100
AcDbEntity
8
Group#7
6
ByLayer
62
256
370
-1
100
AcDbLine
10
2.08018155053
20
6.06376633608
11
1.64318155054
21
6.06376636469
0
LINE
5
184
100
AcDbEntity
8
Group#7
6
ByLayer
62
256
370
-1
100
AcDbLine
10
2.14318167626
20
6.25276649654
11
2.14318156291
21
6.25276633195
0
LINE
5
185
100
AcDbEntity
8
Group#7
6
ByLayer
62
256
370
-1
100
AcDbLine
10
1.64318167626
20
6.25276652927
11
1.64318156291
21
6.25276636468
0
LINE
5
186
100
AcDbEntity
8
Group#7
6
ByLayer
62
256
370
-1
100
AcDbLine
10
1.64318166389
20
6.06376652927
11
1.64318155054
21
6.06376636469
0
LINE
5
187
100
AcDbEntity
8
Group#7
6
ByLayer
62
256
370
-1
100
AcDbLine
10
2.08018166389
20
6.06376650066
11
2.08018155053
21
6.06376633608
0
LINE
5
188
100
AcDbEntity
8
Group#7
6
ByLayer
62
256
370
-1
100
AcDbLine
10
2.14318156291
20
6.25276633195
11
2.14318158544
21
6.59576633196
0
LINE
5
189
100
AcDbEntity
8
Group#7
6
ByLayer
62
256
370
-1
100
AcDbLine
10
1.83068145633
20
2.89318086924
11
1.83281109324
21
2.90935705942
0
LINE
5
18A
100
AcDbEntity
8
Group#7
6
ByLayer
62
256
370
-1
100
AcDbLine
10
1.83281109324
20
2.90935705942
11
1.83905487064
21
2.9244308687
0
LINE
5
18B
100
AcDbEntity
8
Group#7
6
ByLayer
62
256
370
-1
100
AcDbLine
10
1.83905487064
20
2.9244308687
11
1.8489872854
21
2.93737504187
0
LINE
5
18C
100
AcDbEntity
8
Group#7
6
ByLayer
62
256
370
-1
100
AcDbLine
10
1.8489872854
20
2.93737504187
11
1.86193145987
21
2.94730745493
0
LINE
5
18D
100
AcDbEntity
8
Group#7
6
ByLayer
62
256
370
-1
100
AcDbLine
10
1.86193145987
20
2.94730745493
11
1.87700526996
21
2.95355123035
0
LINE
5
18E
100
AcDbEntity
8
Group#7
6
ByLayer
62
256
370
-1
100
AcDbLine
10
1.87700526996
20
2.95355123035
11
1.89318146042
21
2.95568086515
0
LINE
5
18F
100
AcDbEntity
8
Group#7
6
ByLayer
62
256
370
-1
100
AcDbLine
10
1.89318146042
20
2.95568086515
11
1.9093576506
21
2.95355122824
0
LINE
5
190
100
AcDbEntity
8
Group#7
6
ByLayer
62
256
370
-1
100
AcDbLine
10
1.9093576506
20
2.95355122824
11
1.92443145987
21
2.94730745084
0
LINE
5
191
100
AcDbEntity
8
Group#7
6
ByLayer
62
256
370
-1
100
AcDbLine
10
1.92443145987
20
2.94730745084
11
1.93737563305
21
2.93737503608
0
LINE
5
192
100
AcDbEntity
8
Group#7
6
ByLayer
62
256
370
-1
100
AcDbLine
10
1.93737563305
20
2.93737503608
11
1.94730804611
21
2.92443086161
0
LINE
5
193
100
AcDbEntity
8
Group#7
6
ByLayer
62
256
370
-1
100
AcDbLine
10
1.94730804611
20
2.92443086161
11
1.95355182153
21
2.90935705152
0
LINE
5
194
100
AcDbEntity
8
Group#7
6
ByLayer
62
256
370
-1
100
AcDbLine
10
1.95355182153
20
2.90935705152
11
1.95568145633
21
2.89318086106
0
LINE
5
195
100
AcDbEntity
8
Group#7
6
ByLayer
62
256
370
-1
100
AcDbLine
10
1.95568145633
20
2.89318086106
11
1.95355181941
21
2.87700467088
0
LINE
5
196
100
AcDbEntity
8
Group#7
6
ByLayer
62
256
370
-1
100
AcDbLine
10
1.95355181941
20
2.87700467088
11
1.94730804202
21
2.86193086161
0
LINE
5
197
100
AcDbEntity
8
Group#7
6
ByLayer
62
256
370
-1
100
AcDbLine
10
1.94730804202
20
2.86193086161
11
1.93737562726
21
2.84898668844
0
LINE
5
198
100
AcDbEntity
8
Group#7
6
ByLayer
62
256
370
-1
100
AcDbLine
10
1.93737562726
20
2.84898668844
11
1.92443145279
21
2.83905427537
0
LINE
5
199
100
AcDbEntity
8
Group#7
6
ByLayer
62
256
370
-1
100
AcDbLine
10
1.92443145279
20
2.83905427537
11
1.9093576427
21
2.83281049995
0
LINE
5
19A
100
AcDbEntity
8
Group#7
6
ByLayer
62
256
370
-1
100
AcDbLine
10
1.9093576427
20
2.83281049995
11
1.89318145224
21
2.83068086515
0
LINE
5
19B
100
AcDbEntity
8
Group#7
6
ByLayer
62
256
370
-1
100
AcDbLine
10
1.89318145224
20
2.83068086515
11
1.87700526206
21
2.83281050207
0
LINE
5
19C
100
AcDbEntity
8
Group#7
6
ByLayer
62
256
370
-1
100
AcDbLine
10
1.87700526206
20
2.83281050207
11
1.86193145279
21
2.83905427946
0
LINE
5
19D
100
AcDbEntity
8
Group#7
6
ByLayer
62
256
370
-1
100
AcDbLine
10
1.86193145279
20
2.83905427946
11
1.84898727961
21
2.84898669422
0
LINE
5
19E
100
AcDbEntity
8
Group#7
6
ByLayer
62
256
370
-1
100
AcDbLine
10
1.84898727961
20
2.84898669422
11
1.83905486655
21
2.8619308687
0
LINE
5
19F
100
AcDbEntity
8
Group#7
6
ByLayer
62
256
370
-1
100
AcDbLine
10
1.83905486655
20
2.8619308687
11
1.83281109113
21
2.87700467879
0
LINE
5
1A0
100
AcDbEntity
8
Group#7
6
ByLayer
62
256
370
-1
100
AcDbLine
10
1.83281109113
20
2.87700467879
11
1.83068145633
21
2.89318086924
0
LINE
5
1A1
100
AcDbEntity
8
Group#7
6
ByLayer
62
256
370
-1
100
AcDbLine
10
1.83068164962
20
5.845766517
11
1.83281128653
21
5.86194270717
0
LINE
5
1A2
100
AcDbEntity
8
Group#7
6
ByLayer
62
256
370
-1
100
AcDbLine
10
1.83281128653
20
5.86194270717
11
1.83905506393
21
5.87701651645
0
LINE
5
1A3
100
AcDbEntity
8
Group#7
6
ByLayer
62
256
370
-1
100
AcDbLine
10
1.83905506393
20
5.87701651645
11
1.84898747869
21
5.88996068962
0
LINE
5
1A4
100
AcDbEntity
8
Group#7
6
ByLayer
62
256
370
-1
100
AcDbLine
10
1.84898747869
20
5.88996068962
11
1.86193165316
21
5.89989310269
0
LINE
5
1A5
100
AcDbEntity
8
Group#7
6
ByLayer
62
256
370
-1
100
AcDbLine
10
1.86193165316
20
5.89989310269
11
1.87700546325
21
5.90613687811
0
LINE
5
1A6
100
AcDbEntity
8
Group#7
6
ByLayer
62
256
370
-1
100
AcDbLine
10
1.87700546325
20
5.90613687811
11
1.89318165371
21
5.9082665129
0
LINE
5
1A7
100
AcDbEntity
8
Group#7
6
ByLayer
62
256
370
-1
100
AcDbLine
10
1.89318165371
20
5.9082665129
11
1.90935784389
21
5.90613687599
0
LINE
5
1A8
100
AcDbEntity
8
Group#7
6
ByLayer
62
256
370
-1
100
AcDbLine
10
1.90935784389
20
5.90613687599
11
1.92443165316
21
5.89989309859
0
LINE
5
1A9
100
AcDbEntity
8
Group#7
6
ByLayer
62
256
370
-1
100
AcDbLine
10
1.92443165316
20
5.89989309859
11
1.93737582633
21
5.88996068383
0
LINE
5
1AA
100
AcDbEntity
8
Group#7
6
ByLayer
62
256
370
-1
100
AcDbLine
10
1.93737582633
20
5.88996068383
11
1.9473082394
21
5.87701650936
0
LINE
5
1AB
100
AcDbEntity
8
Group#7
6
ByLayer
62
256
370
-1
100
AcDbLine
10
1.9473082394
20
5.87701650936
11
1.95355201482
21
5.86194269927
0
LINE
5
1AC
100
AcDbEntity
8
Group#7
6
ByLayer
62
256
370
-1
100
AcDbLine
10
1.95355201482
20
5.86194269927
11
1.95568164962
21
5.84576650881
0
LINE
5
1AD
100
AcDbEntity
8
Group#7
6
ByLayer
62
256
370
-1
100
AcDbLine
10
1.95568164962
20
5.84576650881
11
1.9535520127
21
5.82959031863
0
LINE
5
1AE
100
AcDbEntity
8
Group#7
6
ByLayer
62
256
370
-1
100
AcDbLine
10
1.9535520127
20
5.82959031863
11
1.94730823531
21
5.81451650936
0
LINE
5
1AF
100
AcDbEntity
8
Group#7
6
ByLayer
62
256
370
-1
100
AcDbLine
10
1.94730823531
20
5.81451650936
11
1.93737582055
21
5.80157233619
0
LINE
5
1B0
100
AcDbEntity
8
Group#7
6
ByLayer
62
256
370
-1
100
AcDbLine
10
1.93737582055
20
5.80157233619
11
1.92443164607
21
5.79163992312
0
LINE
5
1B1
100
AcDbEntity
8
Group#7
6
ByLayer
62
256
370
-1
100
AcDbLine
10
1.92443164607
20
5.79163992312
11
1.90935783598
21
5.7853961477
0
LINE
5
1B2
100
AcDbEntity
8
Group#7
6
ByLayer
62
256
370
-1
100
AcDbLine
10
1.90935783598
20
5.7853961477
11
1.89318164553
21
5.7832665129
0
LINE
5
1B3
100
AcDbEntity
8
Group#7
6
ByLayer
62
256
370
-1
100
AcDbLine
10
1.89318164553
20
5.7832665129
11
1.87700545535
21
5.78539614982
0
LINE
5
1B4
100
AcDbEntity
8
Group#7
6
ByLayer
62
256
370
-1
100
AcDbLine
10
1.87700545535
20
5.78539614982
11
1.86193164607
21
5.79163992721
0
LINE
5
1B5
100
AcDbEntity
8
Group#7
6
ByLayer
62
256
370
-1
100
AcDbLine
10
1.86193164607
20
5.79163992721
11
1.8489874729
21
5.80157234197
0
LINE
5
1B6
100
AcDbEntity
8
Group#7
6
ByLayer
62
256
370
-1
100
AcDbLine
10
1.8489874729
20
5.80157234197
11
1.83905505984
21
5.81451651645
0
LINE
5
1B7
100
AcDbEntity
8
Group#7
6
ByLayer
62
256
370
-1
100
AcDbLine
10
1.83905505984
20
5.81451651645
11
1.83281128442
21
5.82959032654
0
LINE
5
1B8
100
AcDbEntity
8
Group#7
6
ByLayer
62
256
370
-1
100
AcDbLine
10
1.83281128442
20
5.82959032654
11
1.83068164962
21
5.845766517
0
LINE
5
1B9
100
AcDbEntity
8
Group#7
6
ByLayer
62
256
370
-1
100
AcDbLine
10
1.8931813398
20
2.83068070187
11
1.87700514962
21
2.83281033879
0
LINE
5
1BA
100
AcDbEntity
8
Group#7
6
ByLayer
62
256
370
-1
100
AcDbLine
10
1.90935753025
20
2.83281033667
11
1.8931813398
21
2.83068070187
0
LINE
5
1BB
100
AcDbEntity
8
Group#7
6
ByLayer
62
256
370
-1
100
AcDbLine
10
1.92443134034
20
2.83905411209
11
1.90935753025
21
2.83281033667
0
LINE
5
1BC
100
AcDbEntity
8
Group#7
6
ByLayer
62
256
370
-1
100
AcDbLine
10
1.93737551482
20
2.84898652516
11
1.92443134034
21
2.83905411209
0
LINE
5
1BD
100
AcDbEntity
8
Group#7
6
ByLayer
62
256
370
-1
100
AcDbLine
10
1.94730792958
20
2.86193069833
11
1.93737551482
21
2.84898652516
0
LINE
5
1BE
100
AcDbEntity
8
Group#7
6
ByLayer
62
256
370
-1
100
AcDbLine
10
1.95355170697
20
2.8770045076
11
1.94730792958
21
2.86193069833
0
LINE
5
1BF
100
AcDbEntity
8
Group#7
6
ByLayer
62
256
370
-1
100
AcDbLine
10
1.95568134389
20
2.89318069778
11
1.95355170697
21
2.8770045076
0
LINE
5
1C0
100
AcDbEntity
8
Group#7
6
ByLayer
62
256
370
-1
100
AcDbLine
10
1.95355170909
20
2.90935688824
11
1.95568134389
21
2.89318069778
0
LINE
5
1C1
100
AcDbEntity
8
Group#7
6
ByLayer
62
256
370
-1
100
AcDbLine
10
1.94730793367
20
2.92443069833
11
1.95355170909
21
2.90935688824
0
LINE
5
1C2
100
AcDbEntity
8
Group#7
6
ByLayer
62
256
370
-1
100
AcDbLine
10
1.9373755206
20
2.93737487281
11
1.94730793367
21
2.92443069833
0
LINE
5
1C3
100
AcDbEntity
8
Group#7
6
ByLayer
62
256
370
-1
100
AcDbLine
10
1.92443134743
20
2.94730728757
11
1.9373755206
21
2.93737487281
0
LINE
5
1C4
100
AcDbEntity
8
Group#7
6
ByLayer
62
256
370
-1
100
AcDbLine
10
1.90935753816
20
2.95355106496
11
1.92443134743
21
2.94730728757
0
LINE
5
1C5
100
AcDbEntity
8
Group#7
6
ByLayer
62
256
370
-1
100
AcDbLine
10
1.89318134798
20
2.95568070187
11
1.90935753816
21
2.95355106496
0
LINE
5
1C6
100
AcDbEntity
8
Group#7
6
ByLayer
62
256
370
-1
100
AcDbLine
10
1.87700515752
20
2.95355106708
11
1.89318134798
21
2.95568070187
0
LINE
5
1C7
100
AcDbEntity
8
Group#7
6
ByLayer
62
256
370
-1
100
AcDbLine
10
1.86193134743
20
2.94730729166
11
1.87700515752
21
2.95355106708
0
LINE
5
1C8
100
AcDbEntity
8
Group#7
6
ByLayer
62
256
370
-1
100
AcDbLine
10
1.84898717296
20
2.93737487859
11
1.86193134743
21
2.94730729166
0
LINE
5
1C9
100
AcDbEntity
8
Group#7
6
ByLayer
62
256
370
-1
100
AcDbLine
10
1.8390547582
20
2.92443070542
11
1.84898717296
21
2.93737487859
0
LINE
5
1CA
100
AcDbEntity
8
Group#7
6
ByLayer
62
256
370
-1
100
AcDbLine
10
1.8328109808
20
2.90935689615
11
1.8390547582
21
2.92443070542
0
LINE
5
1CB
100
AcDbEntity
8
Group#7
6
ByLayer
62
256
370
-1
100
AcDbLine
10
1.83068134389
20
2.89318070597
11
1.8328109808
21
2.90935689615
0
LINE
5
1CC
100
AcDbEntity
8
Group#7
6
ByLayer
62
256
370
-1
100
AcDbLine
10
1.83281097869
20
2.87700451551
11
1.83068134389
21
2.89318070597
0
LINE
5
1CD
100
AcDbEntity
8
Group#7
6
ByLayer
62
256
370
-1
100
AcDbLine
10
1.83905475411
20
2.86193070542
11
1.83281097869
21
2.87700451551
0
LINE
5
1CE
100
AcDbEntity
8
Group#7
6
ByLayer
62
256
370
-1
100
AcDbLine
10
1.84898716717
20
2.84898653094
11
1.83905475411
21
2.86193070542
0
LINE
5
1CF
100
AcDbEntity
8
Group#7
6
ByLayer
62
256
370
-1
100
AcDbLine
10
1.86193134034
20
2.83905411618
11
1.84898716717
21
2.84898653094
0
LINE
5
1D0
100
AcDbEntity
8
Group#7
6
ByLayer
62
256
370
-1
100
AcDbLine
10
1.87700514962
20
2.83281033879
11
1.86193134034
21
2.83905411618
0
LINE
5
1D1
100
AcDbEntity
8
Group#7
6
ByLayer
62
256
370
-1
100
AcDbLine
10
1.89318145224
20
2.83068086515
11
1.8931813398
21
2.83068070187
0
LINE
5
1D2
100
AcDbEntity
8
Group#7
6
ByLayer
62
256
370
-1
100
AcDbLine
10
1.87700526206
20
2.83281050207
11
1.87700514962
21
2.83281033879
0
LINE
5
1D3
100
AcDbEntity
8
Group#7
6
ByLayer
62
256
370
-1
100
AcDbLine
10
1.9093576427
20
2.83281049995
11
1.90935753025
21
2.83281033667
0
LINE
5
1D4
100
AcDbEntity
8
Group#7
6
ByLayer
62
256
370
-1
100
AcDbLine
10
1.92443145279
20
2.83905427537
11
1.92443134034
21
2.83905411209
0
LINE
5
1D5
100
AcDbEntity
8
Group#7
6
ByLayer
62
256
370
-1
100
AcDbLine
10
1.93737562726
20
2.84898668844
11
1.93737551482
21
2.84898652516
0
LINE
5
1D6
100
AcDbEntity
8
Group#7
6
ByLayer
62
256
370
-1
100
AcDbLine
10
1.94730804202
20
2.86193086161
11
1.94730792958
21
2.86193069833
0
LINE
5
1D7
100
AcDbEntity
8
Group#7
6
ByLayer
62
256
370
-1
100
AcDbLine
10
1.95355181941
20
2.87700467088
11
1.95355170697
21
2.8770045076
0
LINE
5
1D8
100
AcDbEntity
8
Group#7
6
ByLayer
62
256
370
-1
100
AcDbLine
10
1.95568145633
20
2.89318086106
11
1.95568134389
21
2.89318069778
0
LINE
5
1D9
100
AcDbEntity
8
Group#7
6
ByLayer
62
256
370
-1
100
AcDbLine
10
1.95355182153
20
2.90935705152
11
1.95355170909
21
2.90935688824
0
LINE
5
1DA
100
AcDbEntity
8
Group#7
6
ByLayer
62
256
370
-1
100
AcDbLine
10
1.94730804611
20
2.92443086161
11
1.94730793367
21
2.92443069833
0
LINE
5
1DB
100
AcDbEntity
8
Group#7
6
ByLayer
62
256
370
-1
100
AcDbLine
10
1.93737563305
20
2.93737503608
11
1.9373755206
21
2.93737487281
0
LINE
5
1DC
100
AcDbEntity
8
Group#7
6
ByLayer
62
256
370
-1
100
AcDbLine
10
1.92443145987
20
2.94730745084
11
1.92443134743
21
2.94730728757
0
LINE
5
1DD
100
AcDbEntity
8
Group#7
6
ByLayer
62
256
370
-1
100
AcDbLine
10
1.9093576506
20
2.95355122824
11
1.90935753816
21
2.95355106496
0
LINE
5
1DE
100
AcDbEntity
8
Group#7
6
ByLayer
62
256
370
-1
100
AcDbLine
10
1.89318146042
20
2.95568086515
11
1.89318134798
21
2.95568070187
0
LINE
5
1DF
100
AcDbEntity
8
Group#7
6
ByLayer
62
256
370
-1
100
AcDbLine
10
1.87700526996
20
2.95355123035
11
1.87700515752
21
2.95355106708
0
LINE
5
1E0
100
AcDbEntity
8
Group#7
6
ByLayer
62
256
370
-1
100
AcDbLine
10
1.86193145987
20
2.94730745493
11
1.86193134743
21
2.94730729166
0
LINE
5
1E1
100
AcDbEntity
8
Group#7
6
ByLayer
62
256
370
-1
100
AcDbLine
10
1.8489872854
20
2.93737504187
11
1.84898717296
21
2.93737487859
0
LINE
5
1E2
100
AcDbEntity
8
Group#7
6
ByLayer
62
256
370
-1
100
AcDbLine
10
1.83905487064
20
2.9244308687
11
1.8390547582
21
2.92443070542
0
LINE
5
1E3
100
AcDbEntity
8
Group#7
6
ByLayer
62
256
370
-1
100
AcDbLine
10
1.83281109324
20
2.90935705942
11
1.8328109808
21
2.90935689615
0
LINE
5
1E4
100
AcDbEntity
8
Group#7
6
ByLayer
62
256
370
-1
100
AcDbLine
10
1.83068145633
20
2.89318086924
11
1.83068134389
21
2.89318070597
0
LINE
5
1E5
100
AcDbEntity
8
Group#7
6
ByLayer
62
256
370
-1
100
AcDbLine
10
1.83281109113
20
2.87700467879
11
1.83281097869
21
2.87700451551
0
LINE
5
1E6
100
AcDbEntity
8
Group#7
6
ByLayer
62
256
370
-1
100
AcDbLine
10
1.83905486655
20
2.8619308687
11
1.83905475411
21
2.86193070542
0
LINE
5
1E7
100
AcDbEntity
8
Group#7
6
ByLayer
62
256
370
-1
100
AcDbLine
10
1.84898727961
20
2.84898669422
11
1.84898716717
21
2.84898653094
0
LINE
5
1E8
100
AcDbEntity
8
Group#7
6
ByLayer
62
256
370
-1
100
AcDbLine
10
1.86193145279
20
2.83905427946
11
1.86193134034
21
2.83905411618
0
LINE
5
1E9
100
AcDbEntity
8
Group#7
6
ByLayer
62
256
370
-1
100
AcDbLine
10
1.89318154127
20
5.90826634963
11
1.90935773145
21
5.90613671271
0
LINE
5
1EA
100
AcDbEntity
8
Group#7
6
ByLayer
62
256
370
-1
100
AcDbLine
10
1.87700535081
20
5.90613671483
11
1.89318154127
21
5.90826634963
0
LINE
5
1EB
100
AcDbEntity
8
Group#7
6
ByLayer
62
256
370
-1
100
AcDbLine
10
1.86193154072
20
5.89989293941
11
1.87700535081
21
5.90613671483
0
LINE
5
1EC
100
AcDbEntity
8
Group#7
6
ByLayer
62
256
370
-1
100
AcDbLine
10
1.84898736625
20
5.88996052634
11
1.86193154072
21
5.89989293941
0
LINE
5
1ED
100
AcDbEntity
8
Group#7
6
ByLayer
62
256
370
-1
100
AcDbLine
10
1.83905495149
20
5.87701635317
11
1.84898736625
21
5.88996052634
0
LINE
5
1EE
100
AcDbEntity
8
Group#7
6
ByLayer
62
256
370
-1
100
AcDbLine
10
1.83281117409
20
5.8619425439
11
1.83905495149
21
5.87701635317
0
LINE
5
1EF
100
AcDbEntity
8
Group#7
6
ByLayer
62
256
370
-1
100
AcDbLine
10
1.83068153718
20
5.84576635372
11
1.83281117409
21
5.8619425439
0
LINE
5
1F0
100
AcDbEntity
8
Group#7
6
ByLayer
62
256
370
-1
100
AcDbLine
10
1.83281117197
20
5.82959016326
11
1.83068153718
21
5.84576635372
0
LINE
5
1F1
100
AcDbEntity
8
Group#7
6
ByLayer
62
256
370
-1
100
AcDbLine
10
1.83905494739
20
5.81451635317
11
1.83281117197
21
5.82959016326
0
LINE
5
1F2
100
AcDbEntity
8
Group#7
6
ByLayer
62
256
370
-1
100
AcDbLine
10
1.84898736046
20
5.8015721787
11
1.83905494739
21
5.81451635317
0
LINE
5
1F3
100
AcDbEntity
8
Group#7
6
ByLayer
62
256
370
-1
100
AcDbLine
10
1.86193153363
20
5.79163976394
11
1.84898736046
21
5.8015721787
0
LINE
5
1F4
100
AcDbEntity
8
Group#7
6
ByLayer
62
256
370
-1
100
AcDbLine
10
1.87700534291
20
5.78539598654
11
1.86193153363
21
5.79163976394
0
LINE
5
1F5
100
AcDbEntity
8
Group#7
6
ByLayer
62
256
370
-1
100
AcDbLine
10
1.89318153309
20
5.78326634963
11
1.87700534291
21
5.78539598654
0
LINE
5
1F6
100
AcDbEntity
8
Group#7
6
ByLayer
62
256
370
-1
100
AcDbLine
10
1.90935772354
20
5.78539598442
11
1.89318153309
21
5.78326634963
0
LINE
5
1F7
100
AcDbEntity
8
Group#7
6
ByLayer
62
256
370
-1
100
AcDbLine
10
1.92443153363
20
5.79163975984
11
1.90935772354
21
5.78539598442
0
LINE
5
1F8
100
AcDbEntity
8
Group#7
6
ByLayer
62
256
370
-1
100
AcDbLine
10
1.93737570811
20
5.80157217291
11
1.92443153363
21
5.79163975984
0
LINE
5
1F9
100
AcDbEntity
8
Group#7
6
ByLayer
62
256
370
-1
100
AcDbLine
10
1.94730812287
20
5.81451634608
11
1.93737570811
21
5.80157217291
0
LINE
5
1FA
100
AcDbEntity
8
Group#7
6
ByLayer
62
256
370
-1
100
AcDbLine
10
1.95355190026
20
5.82959015536
11
1.94730812287
21
5.81451634608
0
LINE
5
1FB
100
AcDbEntity
8
Group#7
6
ByLayer
62
256
370
-1
100
AcDbLine
10
1.95568153718
20
5.84576634553
11
1.95355190026
21
5.82959015536
0
LINE
5
1FC
100
AcDbEntity
8
Group#7
6
ByLayer
62
256
370
-1
100
AcDbLine
10
1.95355190238
20
5.86194253599
11
1.95568153718
21
5.84576634553
0
LINE
5
1FD
100
AcDbEntity
8
Group#7
6
ByLayer
62
256
370
-1
100
AcDbLine
10
1.94730812696
20
5.87701634608
11
1.95355190238
21
5.86194253599
0
LINE
5
1FE
100
AcDbEntity
8
Group#7
6
ByLayer
62
256
370
-1
100
AcDbLine
10
1.93737571389
20
5.88996052056
11
1.94730812696
21
5.87701634608
0
LINE
5
1FF
100
AcDbEntity
8
Group#7
6
ByLayer
62
256
370
-1
100
AcDbLine
10
1.92443154072
20
5.89989293532
11
1.93737571389
21
5.88996052056
0
LINE
5
200
100
AcDbEntity
8
Group#7
6
ByLayer
62
256
370
-1
100
AcDbLine
10
1.90935773145
20
5.90613671271
11
1.92443154072
21
5.89989293532
0
LINE
5
201
100
AcDbEntity
8
Group#7
6
ByLayer
62
256
370
-1
100
AcDbLine
10
1.89318165371
20
5.9082665129
11
1.89318154127
21
5.90826634963
0
LINE
5
202
100
AcDbEntity
8
Group#7
6
ByLayer
62
256
370
-1
100
AcDbLine
10
1.90935784389
20
5.90613687599
11
1.90935773145
21
5.90613671271
0
LINE
5
203
100
AcDbEntity
8
Group#7
6
ByLayer
62
256
370
-1
100
AcDbLine
10
1.87700546325
20
5.90613687811
11
1.87700535081
21
5.90613671483
0
LINE
5
204
100
AcDbEntity
8
Group#7
6
ByLayer
62
256
370
-1
100
AcDbLine
10
1.86193165316
20
5.89989310269
11
1.86193154072
21
5.89989293941
0
LINE
5
205
100
AcDbEntity
8
Group#7
6
ByLayer
62
256
370
-1
100
AcDbLine
10
1.84898747869
20
5.88996068962
11
1.84898736625
21
5.88996052634
0
LINE
5
206
100
AcDbEntity
8
Group#7
6
ByLayer
62
256
370
-1
100
AcDbLine
10
1.83905506393
20
5.87701651645
11
1.83905495149
21
5.87701635317
0
LINE
5
207
100
AcDbEntity
8
Group#7
6
ByLayer
62
256
370
-1
100
AcDbLine
10
1.83281128653
20
5.86194270717
11
1.83281117409
21
5.8619425439
0
LINE
5
208
100
AcDbEntity
8
Group#7
6
ByLayer
62
256
370
-1
100
AcDbLine
10
1.83068164962
20
5.845766517
11
1.83068153718
21
5.84576635372
0
LINE
5
209
100
AcDbEntity
8
Group#7
6
ByLayer
62
256
370
-1
100
AcDbLine
10
1.83281128442
20
5.82959032654
11
1.83281117197
21
5.82959016326
0
LINE
5
20A
100
AcDbEntity
8
Group#7
6
ByLayer
62
256
370
-1
100
AcDbLine
10
1.83905505984
20
5.81451651645
11
1.83905494739
21
5.81451635317
0
LINE
5
20B
100
AcDbEntity
8
Group#7
6
ByLayer
62
256
370
-1
100
AcDbLine
10
1.8489874729
20
5.80157234197
11
1.84898736046
21
5.8015721787
0
LINE
5
20C
100
AcDbEntity
8
Group#7
6
ByLayer
62
256
370
-1
100
AcDbLine
10
1.86193164607
20
5.79163992721
11
1.86193153363
21
5.79163976394
0
LINE
5
20D
100
AcDbEntity
8
Group#7
6
ByLayer
62
256
370
-1
100
AcDbLine
10
1.87700545535
20
5.78539614982
11
1.87700534291
21
5.78539598654
0
LINE
5
20E
100
AcDbEntity
8
Group#7
6
ByLayer
62
256
370
-1
100
AcDbLine
10
1.89318164553
20
5.7832665129
11
1.89318153309
21
5.78326634963
0
LINE
5
20F
100
AcDbEntity
8
Group#7
6
ByLayer
62
256
370
-1
100
AcDbLine
10
1.90935783598
20
5.7853961477
11
1.90935772354
21
5.78539598442
0
LINE
5
210
100
AcDbEntity
8
Group#7
6
ByLayer
62
256
370
-1
100
AcDbLine
10
1.92443164607
20
5.79163992312
11
1.92443153363
21
5.79163975984
0
LINE
5
211
100
AcDbEntity
8
Group#7
6
ByLayer
62
256
370
-1
100
AcDbLine
10
1.93737582055
20
5.80157233619
11
1.93737570811
21
5.80157217291
0
LINE
5
212
100
AcDbEntity
8
Group#7
6
ByLayer
62
256
370
-1
100
AcDbLine
10
1.94730823531
20
5.81451650936
11
1.94730812287
21
5.81451634608
0
LINE
5
213
100
AcDbEntity
8
Group#7
6
ByLayer
62
256
370
-1
100
AcDbLine
10
1.9535520127
20
5.82959031863
11
1.95355190026
21
5.82959015536
0
LINE
5
214
100
AcDbEntity
8
Group#7
6
ByLayer
62
256
370
-1
100
AcDbLine
10
1.95568164962
20
5.84576650881
11
1.95568153718
21
5.84576634553
0
LINE
5
215
100
AcDbEntity
8
Group#7
6
ByLayer
62
256
370
-1
100
AcDbLine
10
1.95355201482
20
5.86194269927
11
1.95355190238
21
5.86194253599
0
LINE
5
216
100
AcDbEntity
8
Group#7
6
ByLayer
62
256
370
-1
100
AcDbLine
10
1.9473082394
20
5.87701650936
11
1.94730812696
21
5.87701634608
0
LINE
5
217
100
AcDbEntity
8
Group#7
6
ByLayer
62
256
370
-1
100
AcDbLine
10
1.93737582633
20
5.88996068383
11
1.93737571389
21
5.88996052056
0
LINE
5
218
100
AcDbEntity
8
Group#7
6
ByLayer
62
256
370
-1
100
AcDbLine
10
1.92443165316
20
5.89989309859
11
1.92443154072
21
5.89989293532
0
LINE
5
219
100
AcDbEntity
8
Group#7
6
ByLayer
62
256
370
-1
100
AcDbLine
10
4.83083928244e-07
20
6.59576647226
11
1.91606118971e-07
21
2.14318082452
0
LINE
5
21A
100
AcDbEntity
8
Group#7
6
ByLayer
62
256
370
-1
100
AcDbLine
10
0.0625003969623
20
3.54997380887
11
0.0625002845162
21
3.54997364561
0
LINE
5
21B
100
AcDbEntity
8
Group#7
6
ByLayer
62
256
370
-1
100
AcDbLine
10
0.362500427711
20
4.01972378923
11
0.0630004277117
21
4.01972380884
0
LINE
5
21C
100
AcDbEntity
8
Group#7
6
ByLayer
62
256
370
-1
100
AcDbLine
10
0.0625004735346
20
4.71972380887
11
0.362500473532
21
4.71972378923
0
LINE
5
21D
100
AcDbEntity
8
Group#7
6
ByLayer
62
256
370
-1
100
AcDbLine
10
0.362500473532
20
4.71972378923
11
0.362500427711
21
4.01972378923
0
LINE
5
21E
100
AcDbEntity
8
Group#7
6
ByLayer
62
256
370
-1
100
AcDbLine
10
0.362500315263
20
4.01972362597
11
0.0630003152635
21
4.01972364558
0
LINE
5
21F
100
AcDbEntity
8
Group#7
6
ByLayer
62
256
370
-1
100
AcDbLine
10
0.362500361084
20
4.71972362597
11
0.362500315263
21
4.01972362597
0
LINE
5
220
100
AcDbEntity
8
Group#7
6
ByLayer
62
256
370
-1
100
AcDbLine
10
0.0625003610864
20
4.71972364561
11
0.362500361084
21
4.71972362597
0
LINE
5
221
100
AcDbEntity
8
Group#7
6
ByLayer
62
256
370
-1
100
AcDbLine
10
0.362500427711
20
4.01972378923
11
0.362500315263
21
4.01972362597
0
LINE
5
222
100
AcDbEntity
8
Group#7
6
ByLayer
62
256
370
-1
100
AcDbLine
10
0.0630004277117
20
4.01972380884
11
0.0630003152635
21
4.01972364558
0
LINE
5
223
100
AcDbEntity
8
Group#7
6
ByLayer
62
256
370
-1
100
AcDbLine
10
0.362500473532
20
4.71972378923
11
0.362500361084
21
4.71972362597
0
LINE
5
224
100
AcDbEntity
8
Group#7
6
ByLayer
62
256
370
-1
100
AcDbLine
10
0.0630004277117
20
4.01972380884
11
0.0625004735346
21
4.71972380887
0
LINE
5
225
100
AcDbEntity
8
Group#7
6
ByLayer
62
256
370
-1
100
AcDbLine
10
0.0630003152635
20
4.01972364558
11
0.0625003610864
21
4.71972364561
0
LINE
5
226
100
AcDbEntity
8
Group#7
6
ByLayer
62
256
370
-1
100
AcDbLine
10
0.0625004735346
20
4.71972380887
11
0.0625003610864
21
4.71972364561
0
LINE
5
227
100
AcDbEntity
8
Group#7
6
ByLayer
62
256
370
-1
100
AcDbLine
10
0.857891122187
20
4.36899383558
11
0.857891343156
21
4.36899367101
0
ENDSEC
0
SECTION
2
OBJECTS
0
DICTIONARY
5
C
330
0
100
AcDbDictionary
281
1
3
ACAD_GROUP
350
D
0
DICTIONARY
5
D
330
C
100
AcDbDictionary
281
1
0
ENDSEC
0
EOF
