 0
SECTION
 2
ENTITIES
  0
LINE
 8
Group#7
10
1.403007532374545e-07
20
2.1431811023586933
30
3.887045320283278e-06
11
8.881784197001252e-16
21
4.1589317710186147e-19
31
-2.220446049250313e-16
  0
LINE
 8
Group#7
10
4.45258578804731
20
2.1431808108808843
30
-7.838269293847233e-06
11
4.452585952621699
21
2.143180697611871
31
0.062492161730394846
  0
LINE
 8
Group#7
10
4.452585952621699
20
2.143180697611871
30
0.062492161730394846
11
3.0487513047461334e-07
21
2.143180989089682
31
0.06250388704501164
  0
LINE
 8
Group#7
10
1.403007532374545e-07
20
2.1431811023586933
30
3.887045320283278e-06
11
3.0487513047461334e-07
21
2.143180989089682
31
0.06250388704501164
  0
LINE
 8
Group#7
10
4.452585647746557
20
-2.914778102598484e-07
30
-1.1725314626787053e-05
11
4.45258578804731
21
2.1431808108808843
31
-7.838269293847233e-06
  0
LINE
 8
Group#7
10
8.881784197001252e-16
20
4.1589317710186147e-19
30
-2.220446049250313e-16
11
0.3430000001351763
21
-2.2323405401641286e-08
31
-9.03494329795862e-07
  0
LINE
 8
Group#7
10
4.452585647746557
20
-2.914778102598484e-07
30
-1.1725314626787053e-05
11
4.45258581232095
21
-4.047468165587276e-07
31
0.062488274685057466
  0
LINE
 8
Group#7
10
3.1999575285781834
20
1.467697127057231
30
0.06249462944580042
11
3.1901301084523164
21
1.4805573153030822
31
0.062494645103152724
  0
LINE
 8
Group#7
10
3.1623681789660925
20
1.4966593341156393
30
0.0624947065852004
11
3.1463255992214605
21
1.4988038387100948
31
0.06249474821986256
  0
LINE
 8
Group#7
10
1.322311555484334
20
1.4967232724658746
30
0.06249955439432964
11
1.337277090738206
21
1.490559191945198
31
0.062499521379394185
  0
LINE
 8
Group#7
10
1.496104982764817
20
1.340078056696723
30
0.062499243539613
11
1.4701621787268793
21
1.5345110582257075
31
0.062499144063188794
  0
LINE
 8
Group#7
10
3.086282996494985
20
1.420876301973178
30
0.062494977351247316
11
3.0924470871643837
21
1.4059107955340344
31
0.06249497341435584
  0
LINE
 8
Group#7
10
1.543833635024833
20
1.28587187821679
30
0.062499167710690084
11
1.5357770154285326
21
1.2885888726911454
31
0.062499185997020756
  0
LINE
 8
Group#7
10
2.9548058495501897
20
1.3317422406525645
30
0.0624954095753294
11
2.956481169587673
21
1.3400779611019449
31
0.06249539792737746
  0
LINE
 8
Group#7
10
1.2443838571309724
20
1.4366807990674326
30
0.06249980488863294
11
1.2464645478527077
21
1.4527317488952975
31
0.06249978587865357
  0
LINE
 8
Group#7
10
3.1153090813142326
20
1.4905590755569862
30
0.06249483928338151
11
3.102448867589793
21
1.4807316747931807
31
0.06249488250636559
  0
LINE
 8
Group#7
10
1.5025502462048048
20
1.5908672221627493
30
0.06249901317301276
11
1.5101683455403374
21
1.59464289602171
31
0.06249899047089724
  0
LINE
 8
Group#7
10
3.1899557481527707
20
1.3928762477980818
30
0.06249472035375847
11
3.1998342372280075
21
1.4056972496427633
31
0.06249468265602354
  0
LINE
 8
Group#7
10
3.1463255992214605
20
1.4988038387100948
30
0.06249474821986256
11
3.130274617375067
21
1.4967231541184032
31
0.062494793480724065
  0
LINE
 8
Group#7
10
3.084202307874544
20
1.4369272520734429
30
0.06249496929944365
11
3.086282996494985
21
1.420876301973178
31
0.062494977351247316
  0
LINE
 8
Group#7
10
3.206057798948536
20
1.420638122480315
30
0.062494653052510785
11
3.2082023078680244
21
1.4366806705178226
31
0.06249463356064178
  0
LINE
 8
Group#7
10
3.102448867589793
20
1.4807316747931807
30
0.06249488250636559
11
3.092570378514562
21
1.467910672948501
31
0.06249492020413938
  0
LINE
 8
Group#7
10
1.5265498334323024
20
1.5990672245222237
30
0.06249894480463203
11
2.226235803772686
21
1.6004585011060264
31
0.062497154284483214
  0
LINE
 8
Group#7
10
3.092570378514562
20
1.467910672948501
30
0.06249492020413938
11
3.0863468167940336
21
1.4529698001109497
31
0.06249494980765369
  0
LINE
 8
Group#7
10
1.3501373031761146
20
1.4807317894977603
30
0.0624994968727175
11
1.3600157905729024
21
1.4679107863598093
31
0.06249948254438564
  0
LINE
 8
Group#7
10
1.5090427428494007
20
1.3090184306819679
30
0.06249923694237913
11
1.5043050014642252
21
1.3160785168763778
31
0.06249924303723953
  0
LINE
 8
Group#7
10
2.9634773384017556
20
1.5805106674771656
30
0.062495173921443214
11
2.9570960384872595
21
1.5861293945069543
31
0.06249518641819174
  0
LINE
 8
Group#7
10
3.146079016521105
20
1.3748040838811648
30
0.06249485464025417
11
3.162129998367502
21
1.3768847684728607
31
0.06249480937936469
  0
LINE
 8
Group#7
10
1.4750605478354326
20
1.5593952705689988
30
0.062499110314107265
11
1.478805903207054
21
1.5670283099176587
31
0.06249909422618183
  0
LINE
 8
Group#7
10
2.900410176278971
20
1.284229637549763
30
0.06249559746853284
11
2.9087525102313583
21
1.2858717888705553
31
0.062495573466502696
  0
LINE
 8
Group#7
10
1.252751923714841
20
1.4056973770968437
30
0.06249980991266035
11
1.2465283639502744
21
1.420638250749173
31
0.06249981308618535
  0
LINE
 8
Group#7
10
1.4977803017110443
20
1.331742336028012
30
0.062499246364351
11
1.496104982764817
21
1.340078056696723
31
0.062499243539613
  0
LINE
 8
Group#7
10
2.9482811477464033
20
1.3160784223551296
30
0.06249544061130785
11
2.9520568301081527
21
1.3236965061543005
31
0.062495423884943335
  0
LINE
 8
Group#7
10
3.1773090813109772
20
1.490435784779175
30
0.06249467141398668
11
3.1623681789660925
21
1.4966593341156393
31
0.0624947065852004
  0
LINE
 8
Group#7
10
3.206121619247583
20
1.4527316206180863
30
0.062494625508838775
11
3.1999575285781834
21
1.467697127057231
31
0.06249462944580042
  0
LINE
 8
Group#7
10
1.5005293200997842
20
1.3236966011698528
30
0.06249924619590219
11
1.4977803017110443
21
1.331742336028012
31
0.062499246364351
  0
LINE
 8
Group#7
10
3.130274617375067
20
1.4967231541184032
30
0.062494793480724065
11
3.1153090813142326
21
1.4905590755569862
31
0.06249483928338151
  0
LINE
 8
Group#7
10
3.0924470871643837
20
1.4059107955340344
30
0.06249497341435584
11
3.102274507290252
21
1.3930506072881754
31
0.06249495775696601
  0
LINE
 8
Group#7
10
1.337277090738206
20
1.490559191945198
30
0.062499521379394185
11
1.3501373031761146
21
1.4807317894977603
31
0.0624994968727175
  0
LINE
 8
Group#7
10
1.2754906235495471
20
1.3830489715114553
30
0.062499771077659805
11
1.2626304111116404
21
1.3928763739588859
31
0.06249979558433649
  0
LINE
 8
Group#7
10
1.4954901460766927
20
1.5861294901822272
30
0.06249903526865341
11
1.5025502462048048
21
1.5908672221627493
31
0.06249901317301276
  0
LINE
 8
Group#7
10
1.252628640481284
20
1.467697254527449
30
0.06249975735175184
11
1.2624560622907248
21
1.4805574414867184
31
0.06249972125195358
  0
LINE
 8
Group#7
10
3.115095534431588
20
1.3831721378120954
30
0.06249493144617624
11
3.130036436776474
21
1.3769485884756298
31
0.06249489627499494
  0
LINE
 8
Group#7
10
1.3065071403774282
20
1.3748042042977189
30
0.06249969878943462
11
1.2904561588034178
21
1.3768848909907776
31
0.06249973806272657
  0
LINE
 8
Group#7
10
1.478805903207054
20
1.5670283099176587
30
0.06249909422618183
11
1.4835155300779563
21
1.57410718154266
31
0.06249907614490713
  0
LINE
 8
Group#7
10
1.4701621787268793
20
1.5345110582257075
30
0.062499144063188794
11
1.4707013924164491
21
1.5429963496815142
31
0.06249913544765118
  0
LINE
 8
Group#7
10
2.9379246672643062
20
1.3026370494534474
30
0.06249548013312589
11
2.9435434054369702
21
1.309018336780978
31
0.062495459468254744
  0
LINE
 8
Group#7
10
2.9087525102313583
20
1.2858717888705553
30
0.062495573466502696
11
2.91680913018335
21
1.2885887822901514
31
0.06249554932175694
  0
LINE
 8
Group#7
10
3.1901301084523164
20
1.4805573153030822
30
0.062494645103152724
11
3.1773090813109772
21
1.490435784779175
31
0.06249467141398668
  0
LINE
 8
Group#7
10
1.48910884542663
20
1.5805107639878657
30
0.06249905637965614
11
1.4954901460766927
21
1.5861294901822272
31
0.06249903526865341
  0
LINE
 8
Group#7
10
2.956481169587673
20
1.3400779611019449
30
0.06249539792737746
11
2.9824239990795123
21
1.5345109592345483
31
0.06249516182046344
  0
LINE
 8
Group#7
10
1.3601390738064714
20
1.4059109089292037
30
0.06249953510526707
11
1.3503116519970186
21
1.3930507219699277
31
0.06249957120506666
  0
LINE
 8
Group#7
10
3.162129998367502
20
1.3768847684728607
30
0.06249480937936469
11
3.177095534428333
21
1.3830488470342823
31
0.06249476357678052
  0
LINE
 8
Group#7
10
3.0863468167940336
20
1.4529698001109497
30
0.06249494980765369
11
3.084202307874544
21
1.4369272520734429
31
0.06249496929944365
  0
LINE
 8
Group#7
10
1.2626304111116404
20
1.3928763739588859
30
0.06249979558433649
11
1.252751923714841
21
1.4056973770968437
31
0.06249980991266035
  0
LINE
 8
Group#7
10
1.5357770154285326
20
1.2885888726911454
30
0.062499185997020756
11
1.5281439609683543
21
1.2923342206981412
31
0.06249920232312589
  0
LINE
 8
Group#7
10
2.9520568301081527
20
1.3236965061543005
30
0.062495423884943335
11
2.9548058495501897
21
1.3317422406525645
31
0.0624954095753294
  0
LINE
 8
Group#7
10
1.5521759687622376
20
1.2842297258038404
30
0.0624991477770116
11
1.543833635024833
21
1.28587187821679
31
0.062499167710690084
  0
LINE
 8
Group#7
10
2.9824239990795123
20
1.5345109592345483
30
0.06249516182046344
11
2.9818847865007885
21
1.5429962507609458
31
0.062495156044676925
  0
LINE
 8
Group#7
10
1.3662393503374757
20
1.4529699127074827
30
0.0624994793708713
11
1.36838385715678
21
1.4369273643892198
31
0.06249948756842372
  0
LINE
 8
Group#7
10
2.9500359389793855
20
1.5908671274117694
30
0.06249520150537924
11
2.942417840138148
21
1.594642802268078
31
0.06249521892478138
  0
LINE
 8
Group#7
10
1.290217993884939
20
1.4966594566647375
30
0.062499636522839186
11
1.3062605739103286
21
1.4988039591589275
31
0.062499593667613595
  0
LINE
 8
Group#7
10
2.9690706529121185
20
1.574107084299693
30
0.0624951642289131
11
2.9634773384017556
21
1.5805106674771656
31
0.062495173921443214
  0
LINE
 8
Group#7
10
3.177095534428333
20
1.3830488470342823
30
0.06249476357678052
11
3.1899557481527707
21
1.3928762477980818
31
0.06249472035375847
  0
LINE
 8
Group#7
10
1.3374906235624495
20
1.3831722541723512
30
0.062499612417519446
11
1.3225497204028156
21
1.3769487067919182
31
0.06249965593420659
  0
LINE
 8
Group#7
10
1.2464645478527077
20
1.4527317488952975
30
0.06249978587865357
11
1.252628640481284
21
1.467697254527449
31
0.06249975735175184
  0
LINE
 8
Group#7
10
2.225813151366023
20
1.2852901717782164
30
0.062497424154578374
11
2.900410176278971
21
1.284229637549763
31
0.06249559746853284
  0
LINE
 8
Group#7
10
1.4835155300779563
20
1.57410718154266
30
0.06249907614490713
11
1.48910884542663
21
1.5805107639878657
31
0.06249905637965614
  0
LINE
 8
Group#7
10
3.130036436776474
20
1.3769485884756298
30
0.06249489627499494
11
3.146079016521105
21
1.3748040838811648
31
0.06249485464025417
  0
LINE
 8
Group#7
10
1.5281439609683543
20
1.2923342206981412
30
0.06249920232312589
11
1.5210650753223782
21
1.2970438382949887
31
0.06249921640970313
  0
LINE
 8
Group#7
10
2.9818847865007885
20
1.5429962507609458
30
0.062495156044676925
11
2.980242631977438
21
1.5513385682106329
31
0.062495153379057866
  0
LINE
 8
Group#7
10
2.9775256332286433
20
1.559395172219125
30
0.06249515386910609
11
2.9737802788562995
21
1.5670282120581196
31
0.062495157506486265
  0
LINE
 8
Group#7
10
1.3503116519970186
20
1.3930507219699277
30
0.06249957120506666
11
1.3374906235624495
21
1.3831722541723512
31
0.062499612417519446
  0
LINE
 8
Group#7
10
3.1998342372280075
20
1.4056972496427633
30
0.06249468265602354
11
3.206057798948536
21
1.420638122480315
31
0.062494653052510785
  0
LINE
 8
Group#7
10
1.3062605739103286
20
1.4988039591589275
30
0.062499593667613595
11
1.322311555484334
21
1.4967232724658746
31
0.06249955439432964
  0
LINE
 8
Group#7
10
2.980242631977438
20
1.5513385682106329
30
0.062495153379057866
11
2.9775256332286433
21
1.559395172219125
31
0.06249515386910609
  0
LINE
 8
Group#7
10
1.2624560622907248
20
1.4805574414867184
30
0.06249972125195358
11
1.275277090725306
21
1.4904359092843034
31
0.06249968003949813
  0
LINE
 8
Group#7
10
3.102274507290252
20
1.3930506072881754
30
0.06249495775696601
11
3.115095534431588
21
1.3831721378120954
31
0.06249493144617624
  0
LINE
 8
Group#7
10
1.2465283639502744
20
1.420638250749173
30
0.06249981308618535
11
1.2443838571309724
21
1.4366807990674326
31
0.06249980488863294
  0
LINE
 8
Group#7
10
2.9737802788562995
20
1.5670282120581196
30
0.062495157506486265
11
2.9690706529121185
21
1.574107084299693
31
0.0624951642289131
  0
LINE
 8
Group#7
10
1.36838385715678
20
1.4369273643892198
30
0.06249948756842372
11
1.3663031664350505
21
1.4208764145613555
31
0.06249950657839287
  0
LINE
 8
Group#7
10
3.2082023078680244
20
1.4366806705178226
30
0.06249463356064178
11
3.206121619247583
21
1.4527316206180863
31
0.062494625508838775
  0
LINE
 8
Group#7
10
1.3225497204028156
20
1.3769487067919182
30
0.06249965593420659
11
1.3065071403774282
21
1.3748042042977189
31
0.06249969878943462
  0
LINE
 8
Group#7
10
1.4707013924164491
20
1.5429963496815142
30
0.06249913544765118
11
1.472343548031923
21
1.5513386669162161
31
0.06249912413341918
  0
LINE
 8
Group#7
10
1.472343548031923
20
1.5513386669162161
30
0.06249912413341918
11
1.4750605478354326
21
1.5593952705689988
31
0.062499110314107265
  0
LINE
 8
Group#7
10
1.3663031664350505
20
1.4208764145613555
30
0.06249950657839287
11
1.3601390738064714
21
1.4059109089292037
31
0.06249953510526707
  0
LINE
 8
Group#7
10
2.91680913018335
20
1.2885887822901514
30
0.06249554932175694
11
2.924442185133845
21
1.292334129297844
31
0.062495525447546996
  0
LINE
 8
Group#7
10
1.275277090725306
20
1.4904359092843034
30
0.06249968003949813
11
1.290217993884939
21
1.4966594566647375
31
0.062499636522839186
  0
LINE
 8
Group#7
10
1.3600157905729024
20
1.4679107863598093
30
0.06249948254438564
11
1.3662393503374757
21
1.4529699127074827
31
0.0624994793708713
  0
LINE
 8
Group#7
10
2.9435434054369702
20
1.309018336780978
30
0.062495459468254744
11
2.9482811477464033
21
1.3160784223551296
31
0.06249544061130785
  0
LINE
 8
Group#7
10
2.942417840138148
20
1.594642802268078
30
0.06249521892478138
11
2.934372089746845
21
1.597391816232258
31
0.0624952383783548
  0
LINE
 8
Group#7
10
2.926036352825389
20
1.5990671329132224
30
0.06249525953334634
11
2.226235803772686
21
1.6004585011060264
31
0.062497154284483214
  0
LINE
 8
Group#7
10
1.5146614801866778
20
1.3026371426188423
30
0.06249922801560803
11
1.5090427428494007
21
1.3090184306819679
31
0.06249923694237913
  0
LINE
 8
Group#7
10
1.5043050014642252
20
1.3160785168763778
30
0.06249924303723953
11
1.5005293200997842
21
1.3236966011698528
31
0.06249924619590219
  0
LINE
 8
Group#7
10
1.5101683455403374
20
1.59464289602171
30
0.06249899047089724
11
1.5182140962915214
21
1.5973919089325552
31
0.062498967550718376
  0
LINE
 8
Group#7
10
2.225813151366023
20
1.2852901717782164
30
0.062497424154578374
11
1.5521759687622376
21
1.2842297258038404
31
0.0624991477770116
  0
LINE
 8
Group#7
10
2.931521071396359
20
1.2970437459679385
30
0.06249550225242495
11
2.9379246672643062
21
1.3026370494534474
31
0.06249548013312589
  0
LINE
 8
Group#7
10
1.2904561588034178
20
1.3768848909907776
30
0.06249973806272657
11
1.2754906235495471
21
1.3830489715114553
31
0.062499771077659805
  0
LINE
 8
Group#7
10
1.5210650753223782
20
1.2970438382949887
30
0.06249921640970313
11
1.5146614801866778
21
1.3026371426188423
31
0.06249922801560803
  0
LINE
 8
Group#7
10
2.9570960384872595
20
1.5861293945069543
30
0.06249518641819174
11
2.9500359389793855
21
1.5908671274117694
31
0.06249520150537924
  0
LINE
 8
Group#7
10
1.5182140962915214
20
1.5973919089325552
30
0.062498967550718376
11
1.5265498334323024
21
1.5990672245222237
31
0.06249894480463203
  0
LINE
 8
Group#7
10
2.934372089746845
20
1.597391816232258
30
0.0624952383783548
11
2.926036352825389
21
1.5990671329132224
31
0.06249525953334634
  0
LINE
 8
Group#7
10
2.924442185133845
20
1.292334129297844
30
0.062495525447546996
11
2.931521071396359
21
1.2970437459679385
31
0.06249550225242495
  0
LINE
 8
Group#7
10
1.322311400405468
20
1.4967230524193962
30
-4.456055369139733e-07
11
1.337276935659351
21
1.4905589718987233
31
-4.786205052287329e-07
  0
LINE
 8
Group#7
10
1.306260418831466
20
1.4988037391124505
30
-4.063322096570232e-07
11
1.322311400405468
21
1.4967230524193962
31
-4.456055369139733e-07
  0
LINE
 8
Group#7
10
1.2902178388060785
20
1.4966592366182592
30
-3.634770211480287e-07
11
1.306260418831466
21
1.4988037391124505
31
-4.063322096570232e-07
  0
LINE
 8
Group#7
10
1.275276935646438
20
1.490435689237829
30
-3.1996037064274674e-07
11
1.2902178388060785
21
1.4966592366182592
31
-3.634770211480287e-07
  0
LINE
 8
Group#7
10
1.2624559072118635
20
1.480557221440241
30
-2.7874787789095024e-07
11
1.275276935646438
21
1.490435689237829
31
-3.1996037064274674e-07
  0
LINE
 8
Group#7
10
1.2526284854024348
20
1.4676970344809745
30
-2.4264811337992853e-07
11
1.2624559072118635
21
1.480557221440241
31
-2.7874787789095024e-07
  0
LINE
 8
Group#7
10
1.2464643927738468
20
1.4527315288488187
30
-2.1412120809749524e-07
11
1.2526284854024348
21
1.4676970344809745
31
-2.4264811337992853e-07
  0
LINE
 8
Group#7
10
1.2443837020521036
20
1.4366805790209596
30
-1.9511123539039943e-07
11
1.2464643927738468
21
1.4527315288488187
31
-2.1412120809749524e-07
  0
LINE
 8
Group#7
10
1.2465282088714065
20
1.420638030702696
30
-1.8691367764667177e-07
11
1.2443837020521036
21
1.4366805790209596
31
-1.9511123539039943e-07
  0
LINE
 8
Group#7
10
1.2527517686359846
20
1.4056971570503665
30
-1.9008720419932956e-07
11
1.2465282088714065
21
1.420638030702696
31
-1.8691367764667177e-07
  0
LINE
 8
Group#7
10
1.2626302560327782
20
1.3928761539124104
30
-2.0441555270700462e-07
11
1.2527517686359846
21
1.4056971570503665
31
-1.9008720419932956e-07
  0
LINE
 8
Group#7
10
1.2754904684706836
20
1.3830487514649792
30
-2.2892224382786708e-07
11
1.2626302560327782
21
1.3928761539124104
31
-2.0441555270700462e-07
  0
LINE
 8
Group#7
10
1.2904560037245596
20
1.3768846709442986
30
-2.6193714353084374e-07
11
1.2754904684706836
21
1.3830487514649792
31
-2.2892224382786708e-07
  0
LINE
 8
Group#7
10
1.3065069852985696
20
1.3748039842512416
30
-3.0121043148589877e-07
11
1.2904560037245596
21
1.3768846709442986
31
-2.6193714353084374e-07
  0
LINE
 8
Group#7
10
1.322549565323944
20
1.3769484867454393
30
-3.440656564102085e-07
11
1.3065069852985696
21
1.3748039842512416
31
-3.0121043148589877e-07
  0
LINE
 8
Group#7
10
1.3374904684835789
20
1.3831720341258726
30
-3.8758231157842715e-07
11
1.322549565323944
21
1.3769484867454393
31
-3.440656564102085e-07
  0
LINE
 8
Group#7
10
1.3503114969181556
20
1.393050501923451
30
-4.28794838969182e-07
11
1.3374904684835789
21
1.3831720341258726
31
-3.8758231157842715e-07
  0
LINE
 8
Group#7
10
1.360138918727603
20
1.4059106888827255
30
-4.648945652885317e-07
11
1.3503114969181556
21
1.393050501923451
31
-4.28794838969182e-07
  0
LINE
 8
Group#7
10
1.3663030113561874
20
1.4208761945148771
30
-4.934214687946081e-07
11
1.360138918727603
21
1.4059106888827255
31
-4.648945652885317e-07
  0
LINE
 8
Group#7
10
1.3683837020779182
20
1.4369271443427445
30
-5.124314441662392e-07
11
1.3663030113561874
21
1.4208761945148771
31
-4.934214687946081e-07
  0
LINE
 8
Group#7
10
1.3662391952586095
20
1.452969692661007
30
-5.206289974690748e-07
11
1.3683837020779182
21
1.4369271443427445
31
-5.124314441662392e-07
  0
LINE
 8
Group#7
10
1.360015635494043
20
1.4679105663133345
30
-5.174554777997997e-07
11
1.3662391952586095
21
1.452969692661007
31
-5.206289974690748e-07
  0
LINE
 8
Group#7
10
1.3501371480972604
20
1.480731569451285
30
-5.03127188133945e-07
11
1.360015635494043
21
1.4679105663133345
31
-5.174554777997997e-07
  0
LINE
 8
Group#7
10
1.337276935659351
20
1.4905589718987233
30
-4.786205052287329e-07
11
1.3501371480972604
21
1.480731569451285
31
-5.03127188133945e-07
  0
LINE
 8
Group#7
10
1.322311555484334
20
1.4967232724658746
30
0.06249955439432964
11
1.322311400405468
21
1.4967230524193962
31
-4.456055369139733e-07
  0
LINE
 8
Group#7
10
1.337277090738206
20
1.490559191945198
30
0.062499521379394185
11
1.337276935659351
21
1.4905589718987233
31
-4.786205052287329e-07
  0
LINE
 8
Group#7
10
1.3062605739103286
20
1.4988039591589275
30
0.062499593667613595
11
1.306260418831466
21
1.4988037391124505
31
-4.063322096570232e-07
  0
LINE
 8
Group#7
10
1.290217993884939
20
1.4966594566647375
30
0.062499636522839186
11
1.2902178388060785
21
1.4966592366182592
31
-3.634770211480287e-07
  0
LINE
 8
Group#7
10
1.275277090725306
20
1.4904359092843034
30
0.06249968003949813
11
1.275276935646438
21
1.490435689237829
31
-3.1996037064274674e-07
  0
LINE
 8
Group#7
10
1.2624560622907248
20
1.4805574414867184
30
0.06249972125195358
11
1.2624559072118635
21
1.480557221440241
31
-2.7874787789095024e-07
  0
LINE
 8
Group#7
10
1.252628640481284
20
1.467697254527449
30
0.06249975735175184
11
1.2526284854024348
21
1.4676970344809745
31
-2.4264811337992853e-07
  0
LINE
 8
Group#7
10
1.2464645478527077
20
1.4527317488952975
30
0.06249978587865357
11
1.2464643927738468
21
1.4527315288488187
31
-2.1412120809749524e-07
  0
LINE
 8
Group#7
10
1.2443838571309724
20
1.4366807990674326
30
0.06249980488863294
11
1.2443837020521036
21
1.4366805790209596
31
-1.9511123539039943e-07
  0
LINE
 8
Group#7
10
1.2465283639502744
20
1.420638250749173
30
0.06249981308618535
11
1.2465282088714065
21
1.420638030702696
31
-1.8691367764667177e-07
  0
LINE
 8
Group#7
10
1.252751923714841
20
1.4056973770968437
30
0.06249980991266035
11
1.2527517686359846
21
1.4056971570503665
31
-1.9008720419932956e-07
  0
LINE
 8
Group#7
10
1.2626304111116404
20
1.3928763739588859
30
0.06249979558433649
11
1.2626302560327782
21
1.3928761539124104
31
-2.0441555270700462e-07
  0
LINE
 8
Group#7
10
1.2754906235495471
20
1.3830489715114553
30
0.062499771077659805
11
1.2754904684706836
21
1.3830487514649792
31
-2.2892224382786708e-07
  0
LINE
 8
Group#7
10
1.2904561588034178
20
1.3768848909907776
30
0.06249973806272657
11
1.2904560037245596
21
1.3768846709442986
31
-2.6193714353084374e-07
  0
LINE
 8
Group#7
10
1.3065071403774282
20
1.3748042042977189
30
0.06249969878943462
11
1.3065069852985696
21
1.3748039842512416
31
-3.0121043148589877e-07
  0
LINE
 8
Group#7
10
1.3225497204028156
20
1.3769487067919182
30
0.06249965593420659
11
1.322549565323944
21
1.3769484867454393
31
-3.440656564102085e-07
  0
LINE
 8
Group#7
10
1.3374906235624495
20
1.3831722541723512
30
0.062499612417519446
11
1.3374904684835789
21
1.3831720341258726
31
-3.8758231157842715e-07
  0
LINE
 8
Group#7
10
1.3503116519970186
20
1.3930507219699277
30
0.06249957120506666
11
1.3503114969181556
21
1.393050501923451
31
-4.28794838969182e-07
  0
LINE
 8
Group#7
10
1.3601390738064714
20
1.4059109089292037
30
0.06249953510526707
11
1.360138918727603
21
1.4059106888827255
31
-4.648945652885317e-07
  0
LINE
 8
Group#7
10
1.3663031664350505
20
1.4208764145613555
30
0.06249950657839287
11
1.3663030113561874
21
1.4208761945148771
31
-4.934214687946081e-07
  0
LINE
 8
Group#7
10
1.36838385715678
20
1.4369273643892198
30
0.06249948756842372
11
1.3683837020779182
21
1.4369271443427445
31
-5.124314441662392e-07
  0
LINE
 8
Group#7
10
1.3662393503374757
20
1.4529699127074827
30
0.0624994793708713
11
1.3662391952586095
21
1.452969692661007
31
-5.206289974690748e-07
  0
LINE
 8
Group#7
10
1.3600157905729024
20
1.4679107863598093
30
0.06249948254438564
11
1.360015635494043
21
1.4679105663133345
31
-5.174554777997997e-07
  0
LINE
 8
Group#7
10
1.3501373031761146
20
1.4807317894977603
30
0.0624994968727175
11
1.3501371480972604
21
1.480731569451285
31
-5.03127188133945e-07
  0
LINE
 8
Group#7
10
3.1999573545082187
20
1.4676969070107566
30
-5.37055404681297e-06
11
3.1901299343823526
21
1.4805570952566123
31
-5.354896628562145e-06
  0
LINE
 8
Group#7
10
3.1901299343823526
20
1.4805570952566123
30
-5.354896628562145e-06
11
3.177308907241015
21
1.4904355647326994
31
-5.328585829911248e-06
  0
LINE
 8
Group#7
10
3.177308907241015
20
1.4904355647326994
30
-5.328585829911248e-06
11
3.1623680048961322
21
1.4966591140691645
31
-5.293414652163264e-06
  0
LINE
 8
Group#7
10
3.1623680048961322
20
1.4966591140691645
30
-5.293414652163264e-06
11
3.1463254251515003
21
1.4988036186636224
31
-5.251779986004124e-06
  0
LINE
 8
Group#7
10
3.1463254251515003
20
1.4988036186636224
30
-5.251779986004124e-06
11
3.1302744433051015
21
1.4967229340719257
31
-5.206519055223069e-06
  0
LINE
 8
Group#7
10
3.1302744433051015
20
1.4967229340719257
30
-5.206519055223069e-06
11
3.1153089072442715
21
1.4905588555105114
31
-5.1607164297529096e-06
  0
LINE
 8
Group#7
10
3.1153089072442715
20
1.4905588555105114
30
-5.1607164297529096e-06
11
3.102448693519833
21
1.480731454746705
31
-5.117493484751989e-06
  0
LINE
 8
Group#7
10
3.102448693519833
20
1.480731454746705
30
-5.117493484751989e-06
11
3.0925702044446033
21
1.4679104529020288
31
-5.079795679874266e-06
  0
LINE
 8
Group#7
10
3.0925702044446033
20
1.4679104529020288
30
-5.079795679874266e-06
11
3.0863466427240827
21
1.4529695800644724
31
-5.050192163569278e-06
  0
LINE
 8
Group#7
10
3.0863466427240827
20
1.4529695800644724
30
-5.050192163569278e-06
11
3.0842021338045873
21
1.4369270320269707
31
-5.030700374497599e-06
  0
LINE
 8
Group#7
10
3.0842021338045873
20
1.4369270320269707
30
-5.030700374497599e-06
11
3.0862828224250323
21
1.4208760819267061
31
-5.022648564834142e-06
  0
LINE
 8
Group#7
10
3.0862828224250323
20
1.4208760819267061
30
-5.022648564834142e-06
11
3.092446913094421
21
1.4059105754875596
31
-5.02658546519541e-06
  0
LINE
 8
Group#7
10
3.092446913094421
20
1.4059105754875596
30
-5.02658546519541e-06
11
3.1022743332202922
21
1.393050387241704
31
-5.0422428798935215e-06
  0
LINE
 8
Group#7
10
3.1022743332202922
20
1.393050387241704
30
-5.0422428798935215e-06
11
3.1150953603616376
21
1.383171917765618
31
-5.068553643461371e-06
  0
LINE
 8
Group#7
10
3.1150953603616376
20
1.383171917765618
30
-5.068553643461371e-06
11
3.1300362627065175
21
1.3769483684291541
31
-5.103724815880284e-06
  0
LINE
 8
Group#7
10
3.1300362627065175
20
1.3769483684291541
30
-5.103724815880284e-06
11
3.1460788424511517
21
1.3748038638346907
31
-5.1453595606432145e-06
  0
LINE
 8
Group#7
10
3.1460788424511517
20
1.3748038638346907
30
-5.1453595606432145e-06
11
3.162129824297543
21
1.376884548426389
31
-5.190620452344419e-06
  0
LINE
 8
Group#7
10
3.162129824297543
20
1.376884548426389
30
-5.190620452344419e-06
11
3.177095360358379
21
1.3830486269878066
31
-5.236423034293836e-06
  0
LINE
 8
Group#7
10
3.177095360358379
20
1.3830486269878066
30
-5.236423034293836e-06
11
3.1899555740828136
21
1.3928760277516048
31
-5.2796460228154984e-06
  0
LINE
 8
Group#7
10
3.1899555740828136
20
1.3928760277516048
30
-5.2796460228154984e-06
11
3.199834063158047
21
1.4056970295962856
31
-5.317343788613371e-06
  0
LINE
 8
Group#7
10
3.199834063158047
20
1.4056970295962856
30
-5.317343788613371e-06
11
3.206057624878577
21
1.4206379024338431
31
-5.3469473098033404e-06
  0
LINE
 8
Group#7
10
3.206057624878577
20
1.4206379024338431
30
-5.3469473098033404e-06
11
3.2082021337980673
21
1.4366804504713453
31
-5.366439173482007e-06
  0
LINE
 8
Group#7
10
3.2082021337980673
20
1.4366804504713453
30
-5.366439173482007e-06
11
3.2061214451776245
21
1.4527314005716099
31
-5.3744909769282145e-06
  0
LINE
 8
Group#7
10
3.2061214451776245
20
1.4527314005716099
30
-5.3744909769282145e-06
11
3.1999573545082187
21
1.4676969070107566
31
-5.37055404681297e-06
  0
LINE
 8
Group#7
10
3.1901301084523164
20
1.4805573153030822
30
0.062494645103152724
11
3.1901299343823526
21
1.4805570952566123
31
-5.354896628562145e-06
  0
LINE
 8
Group#7
10
3.1999575285781834
20
1.467697127057231
30
0.06249462944580042
11
3.1999573545082187
21
1.4676969070107566
31
-5.37055404681297e-06
  0
LINE
 8
Group#7
10
3.1773090813109772
20
1.490435784779175
30
0.06249467141398668
11
3.177308907241015
21
1.4904355647326994
31
-5.328585829911248e-06
  0
LINE
 8
Group#7
10
3.1623681789660925
20
1.4966593341156393
30
0.0624947065852004
11
3.1623680048961322
21
1.4966591140691645
31
-5.293414652163264e-06
  0
LINE
 8
Group#7
10
3.1463255992214605
20
1.4988038387100948
30
0.06249474821986256
11
3.1463254251515003
21
1.4988036186636224
31
-5.251779986004124e-06
  0
LINE
 8
Group#7
10
3.130274617375067
20
1.4967231541184032
30
0.062494793480724065
11
3.1302744433051015
21
1.4967229340719257
31
-5.206519055223069e-06
  0
LINE
 8
Group#7
10
3.1153090813142326
20
1.4905590755569862
30
0.06249483928338151
11
3.1153089072442715
21
1.4905588555105114
31
-5.1607164297529096e-06
  0
LINE
 8
Group#7
10
3.102448867589793
20
1.4807316747931807
30
0.06249488250636559
11
3.102448693519833
21
1.480731454746705
31
-5.117493484751989e-06
  0
LINE
 8
Group#7
10
3.092570378514562
20
1.467910672948501
30
0.06249492020413938
11
3.0925702044446033
21
1.4679104529020288
31
-5.079795679874266e-06
  0
LINE
 8
Group#7
10
3.0863468167940336
20
1.4529698001109497
30
0.06249494980765369
11
3.0863466427240827
21
1.4529695800644724
31
-5.050192163569278e-06
  0
LINE
 8
Group#7
10
3.084202307874544
20
1.4369272520734429
30
0.06249496929944365
11
3.0842021338045873
21
1.4369270320269707
31
-5.030700374497599e-06
  0
LINE
 8
Group#7
10
3.086282996494985
20
1.420876301973178
30
0.062494977351247316
11
3.0862828224250323
21
1.4208760819267061
31
-5.022648564834142e-06
  0
LINE
 8
Group#7
10
3.0924470871643837
20
1.4059107955340344
30
0.06249497341435584
11
3.092446913094421
21
1.4059105754875596
31
-5.02658546519541e-06
  0
LINE
 8
Group#7
10
3.102274507290252
20
1.3930506072881754
30
0.06249495775696601
11
3.1022743332202922
21
1.393050387241704
31
-5.0422428798935215e-06
  0
LINE
 8
Group#7
10
3.115095534431588
20
1.3831721378120954
30
0.06249493144617624
11
3.1150953603616376
21
1.383171917765618
31
-5.068553643461371e-06
  0
LINE
 8
Group#7
10
3.130036436776474
20
1.3769485884756298
30
0.06249489627499494
11
3.1300362627065175
21
1.3769483684291541
31
-5.103724815880284e-06
  0
LINE
 8
Group#7
10
3.146079016521105
20
1.3748040838811648
30
0.06249485464025417
11
3.1460788424511517
21
1.3748038638346907
31
-5.1453595606432145e-06
  0
LINE
 8
Group#7
10
3.162129998367502
20
1.3768847684728607
30
0.06249480937936469
11
3.162129824297543
21
1.376884548426389
31
-5.190620452344419e-06
  0
LINE
 8
Group#7
10
3.177095534428333
20
1.3830488470342823
30
0.06249476357678052
11
3.177095360358379
21
1.3830486269878066
31
-5.236423034293836e-06
  0
LINE
 8
Group#7
10
3.1899557481527707
20
1.3928762477980818
30
0.06249472035375847
11
3.1899555740828136
21
1.3928760277516048
31
-5.2796460228154984e-06
  0
LINE
 8
Group#7
10
3.1998342372280075
20
1.4056972496427633
30
0.06249468265602354
11
3.199834063158047
21
1.4056970295962856
31
-5.317343788613371e-06
  0
LINE
 8
Group#7
10
3.206057798948536
20
1.420638122480315
30
0.062494653052510785
11
3.206057624878577
21
1.4206379024338431
31
-5.3469473098033404e-06
  0
LINE
 8
Group#7
10
3.2082023078680244
20
1.4366806705178226
30
0.06249463356064178
11
3.2082021337980673
21
1.4366804504713453
31
-5.366439173482007e-06
  0
LINE
 8
Group#7
10
3.206121619247583
20
1.4527316206180863
30
0.062494625508838775
11
3.2061214451776245
21
1.4527314005716099
31
-5.3744909769282145e-06
  0
LINE
 8
Group#7
10
1.496104818190271
20
1.340077835727075
30
-7.564602315657254e-07
11
1.4701620141523217
21
1.534510837256058
31
-8.559366451166284e-07
  0
LINE
 8
Group#7
10
1.497780137136484
20
1.3317421150583628
30
-7.536355228765501e-07
11
1.496104818190271
21
1.340077835727075
31
-7.564602315657254e-07
  0
LINE
 8
Group#7
10
1.5005291555252245
20
1.323696380200202
30
-7.538039770160765e-07
11
1.497780137136484
21
1.3317421150583628
31
-7.536355228765501e-07
  0
LINE
 8
Group#7
10
1.5043048368896623
20
1.3160782959067283
30
-7.569626321313194e-07
11
1.5005291555252245
21
1.323696380200202
31
-7.538039770160765e-07
  0
LINE
 8
Group#7
10
1.5090425782748484
20
1.3090182097123164
30
-7.630574587746963e-07
11
1.5043048368896623
21
1.3160782959067283
31
-7.569626321313194e-07
  0
LINE
 8
Group#7
10
1.514661315612122
20
1.3026369216491918
30
-7.71984273839621e-07
11
1.5090425782748484
21
1.3090182097123164
31
-7.630574587746963e-07
  0
LINE
 8
Group#7
10
1.5210649107478287
20
1.2970436173253408
30
-7.835902187114385e-07
11
1.514661315612122
21
1.3026369216491918
31
-7.71984273839621e-07
  0
LINE
 8
Group#7
10
1.5281437963937918
20
1.2923339997284917
30
-7.976767182338307e-07
11
1.5210649107478287
21
1.2970436173253408
31
-7.835902187114385e-07
  0
LINE
 8
Group#7
10
1.5357768508539738
20
1.288588651721493
30
-8.140028220360307e-07
11
1.5281437963937918
21
1.2923339997284917
31
-7.976767182338307e-07
  0
LINE
 8
Group#7
10
1.5438334704502754
20
1.2858716572471396
30
-8.322891500434082e-07
11
1.5357768508539738
21
1.288588651721493
31
-8.140028220360307e-07
  0
LINE
 8
Group#7
10
1.5521758041876863
20
1.2842295048341916
30
-8.522228209795202e-07
11
1.5438334704502754
21
1.2858716572471396
31
-8.322891500434082e-07
  0
LINE
 8
Group#7
10
2.2258129867914676
20
1.2852899508085662
30
-2.5758452657509423e-06
11
1.5521758041876863
21
1.2842295048341916
31
-8.522228209795202e-07
  0
LINE
 8
Group#7
10
2.2258129867914676
20
1.2852899508085662
30
-2.5758452657509423e-06
11
2.9004100117044165
21
1.2842294165801151
31
-4.402531306624269e-06
  0
LINE
 8
Group#7
10
2.9004100117044165
20
1.2842294165801151
30
-4.402531306624269e-06
11
2.908752345656806
21
1.285871567900902
31
-4.426533376511443e-06
  0
LINE
 8
Group#7
10
2.908752345656806
20
1.285871567900902
30
-4.426533376511443e-06
11
2.9168089656087903
21
1.2885885613205015
31
-4.450678117384754e-06
  0
LINE
 8
Group#7
10
2.9168089656087903
20
1.2885885613205015
30
-4.450678117384754e-06
11
2.9244420205592916
21
1.2923339083281946
31
-4.474552297573098e-06
  0
LINE
 8
Group#7
10
2.9244420205592916
20
1.2923339083281946
30
-4.474552297573098e-06
11
2.9315209068218078
21
1.297043524998289
31
-4.4977474187302136e-06
  0
LINE
 8
Group#7
10
2.9315209068218078
20
1.297043524998289
30
-4.4977474187302136e-06
11
2.9379245026897527
21
1.3026368284837941
31
-4.519866680485762e-06
  0
LINE
 8
Group#7
10
2.9379245026897527
20
1.3026368284837941
30
-4.519866680485762e-06
11
2.9435432408624145
21
1.309018115811324
31
-4.540531580499163e-06
  0
LINE
 8
Group#7
10
2.9435432408624145
20
1.309018115811324
30
-4.540531580499163e-06
11
2.9482809831718533
21
1.3160782013854806
31
-4.559388532721087e-06
  0
LINE
 8
Group#7
10
2.9482809831718533
20
1.3160782013854806
30
-4.559388532721087e-06
11
2.952056665533597
21
1.3236962851846514
31
-4.576114896348571e-06
  0
LINE
 8
Group#7
10
2.952056665533597
20
1.3236962851846514
30
-4.576114896348571e-06
11
2.954805684975628
21
1.3317420196829148
31
-4.590424480532818e-06
  0
LINE
 8
Group#7
10
2.954805684975628
20
1.3317420196829148
30
-4.590424480532818e-06
11
2.9564810050131154
21
1.340077740132297
31
-4.602072469772622e-06
  0
LINE
 8
Group#7
10
2.9564810050131154
20
1.340077740132297
30
-4.602072469772622e-06
11
2.9824238345049605
21
1.5345107382648955
31
-4.838179375799001e-06
  0
LINE
 8
Group#7
10
2.9824238345049605
20
1.5345107382648955
30
-4.838179375799001e-06
11
2.9818846219262296
21
1.5429960297912948
31
-4.843955167199709e-06
  0
LINE
 8
Group#7
10
2.9818846219262296
20
1.5429960297912948
30
-4.843955167199709e-06
11
2.980242467402884
21
1.5513383472409843
31
-4.846620783149902e-06
  0
LINE
 8
Group#7
10
2.980242467402884
20
1.5513383472409843
30
-4.846620783149902e-06
11
2.9775254686540853
21
1.5593949512494716
31
-4.846130732705234e-06
  0
LINE
 8
Group#7
10
2.9775254686540853
20
1.5593949512494716
30
-4.846130732705234e-06
11
2.9737801142817437
21
1.56702799108847
31
-4.842493316559171e-06
  0
LINE
 8
Group#7
10
2.9737801142817437
20
1.56702799108847
30
-4.842493316559171e-06
11
2.969070488337556
21
1.5741068633300437
31
-4.835770928357519e-06
  0
LINE
 8
Group#7
10
2.969070488337556
20
1.5741068633300437
30
-4.835770928357519e-06
11
2.9634771738271963
21
1.580510446507516
31
-4.826078400022027e-06
  0
LINE
 8
Group#7
10
2.9634771738271963
20
1.580510446507516
30
-4.826078400022027e-06
11
2.957095873912708
21
1.5861291735373049
31
-4.8135816479444316e-06
  0
LINE
 8
Group#7
10
2.957095873912708
20
1.5861291735373049
30
-4.8135816479444316e-06
11
2.9500357744048245
21
1.5908669064421206
31
-4.798494500413142e-06
  0
LINE
 8
Group#7
10
2.9500357744048245
20
1.5908669064421206
30
-4.798494500413142e-06
11
2.9424176755635854
21
1.5946425812984286
31
-4.781075059634432e-06
  0
LINE
 8
Group#7
10
2.9424176755635854
20
1.5946425812984286
30
-4.781075059634432e-06
11
2.934371925172283
21
1.5973915952626088
31
-4.761621479998368e-06
  0
LINE
 8
Group#7
10
2.934371925172283
20
1.5973915952626088
30
-4.761621479998368e-06
11
2.9260361882508272
21
1.5990669119435683
31
-4.740466495567475e-06
  0
LINE
 8
Group#7
10
2.9260361882508272
20
1.5990669119435683
30
-4.740466495567475e-06
11
2.2262356391981335
21
1.6004582801363767
31
-2.845715355137557e-06
  0
LINE
 8
Group#7
10
1.526549668857748
20
1.599067003552576
30
-1.0551952076554016e-06
11
2.2262356391981335
21
1.6004582801363767
31
-2.845715355137557e-06
  0
LINE
 8
Group#7
10
1.5182139317169665
20
1.5973916879629046
30
-1.032449168825167e-06
11
1.526549668857748
21
1.599067003552576
31
-1.0551952076554016e-06
  0
LINE
 8
Group#7
10
1.5101681809657785
20
1.59464267505206
30
-1.0095289819656017e-06
11
1.5182139317169665
21
1.5973916879629046
31
-1.032449168825167e-06
  0
LINE
 8
Group#7
10
1.5025500816302548
20
1.5908670011931025
30
-9.868268300294858e-07
11
1.5101681809657785
21
1.59464267505206
31
-1.0095289819656017e-06
  0
LINE
 8
Group#7
10
1.4954899815021419
20
1.5861292692125772
30
-9.647312599891933e-07
11
1.5025500816302548
21
1.5908670011931025
31
-9.868268300294858e-07
  0
LINE
 8
Group#7
10
1.489108680852072
20
1.580510543018216
30
-9.436201879875483e-07
11
1.4954899815021419
21
1.5861292692125772
31
-9.647312599891933e-07
  0
LINE
 8
Group#7
10
1.4835153655033984
20
1.5741069605730105
30
-9.238549742995872e-07
11
1.489108680852072
21
1.580510543018216
31
-9.436201879875483e-07
  0
LINE
 8
Group#7
10
1.4788057386324995
20
1.5670280889480095
30
-9.057736565232233e-07
11
1.4835153655033984
21
1.5741069605730105
31
-9.238549742995872e-07
  0
LINE
 8
Group#7
10
1.4750603832608795
20
1.5593950495993494
30
-8.896857324192098e-07
11
1.4788057386324995
21
1.5670280889480095
31
-9.057736565232233e-07
  0
LINE
 8
Group#7
10
1.4723433834573627
20
1.5513384459465662
30
-8.7586642139037e-07
11
1.4750603832608795
21
1.5593950495993494
31
-8.896857324192098e-07
  0
LINE
 8
Group#7
10
1.4707012278418965
20
1.5429961287118648
30
-8.645522227013203e-07
11
1.4723433834573627
21
1.5513384459465662
31
-8.7586642139037e-07
  0
LINE
 8
Group#7
10
1.4701620141523217
20
1.534510837256058
30
-8.559366451166284e-07
11
1.4707012278418965
21
1.5429961287118648
31
-8.645522227013203e-07
  0
LINE
 8
Group#7
10
1.496104982764817
20
1.340078056696723
30
0.062499243539613
11
1.496104818190271
21
1.340077835727075
31
-7.564602315657254e-07
  0
LINE
 8
Group#7
10
1.4701621787268793
20
1.5345110582257075
30
0.062499144063188794
11
1.4701620141523217
21
1.534510837256058
31
-8.559366451166284e-07
  0
LINE
 8
Group#7
10
1.4977803017110443
20
1.331742336028012
30
0.062499246364351
11
1.497780137136484
21
1.3317421150583628
31
-7.536355228765501e-07
  0
LINE
 8
Group#7
10
1.5005293200997842
20
1.3236966011698528
30
0.06249924619590219
11
1.5005291555252245
21
1.323696380200202
31
-7.538039770160765e-07
  0
LINE
 8
Group#7
10
1.5043050014642252
20
1.3160785168763778
30
0.06249924303723953
11
1.5043048368896623
21
1.3160782959067283
31
-7.569626321313194e-07
  0
LINE
 8
Group#7
10
1.5090427428494007
20
1.3090184306819679
30
0.06249923694237913
11
1.5090425782748484
21
1.3090182097123164
31
-7.630574587746963e-07
  0
LINE
 8
Group#7
10
1.5146614801866778
20
1.3026371426188423
30
0.06249922801560803
11
1.514661315612122
21
1.3026369216491918
31
-7.71984273839621e-07
  0
LINE
 8
Group#7
10
1.5210650753223782
20
1.2970438382949887
30
0.06249921640970313
11
1.5210649107478287
21
1.2970436173253408
31
-7.835902187114385e-07
  0
LINE
 8
Group#7
10
1.5281439609683543
20
1.2923342206981412
30
0.06249920232312589
11
1.5281437963937918
21
1.2923339997284917
31
-7.976767182338307e-07
  0
LINE
 8
Group#7
10
1.5357770154285326
20
1.2885888726911454
30
0.062499185997020756
11
1.5357768508539738
21
1.288588651721493
31
-8.140028220360307e-07
  0
LINE
 8
Group#7
10
1.543833635024833
20
1.28587187821679
30
0.062499167710690084
11
1.5438334704502754
21
1.2858716572471396
31
-8.322891500434082e-07
  0
LINE
 8
Group#7
10
1.5521759687622376
20
1.2842297258038404
30
0.0624991477770116
11
1.5521758041876863
21
1.2842295048341916
31
-8.522228209795202e-07
  0
LINE
 8
Group#7
10
2.900410176278971
20
1.284229637549763
30
0.06249559746853284
11
2.9004100117044165
21
1.2842294165801151
31
-4.402531306624269e-06
  0
LINE
 8
Group#7
10
2.9087525102313583
20
1.2858717888705553
30
0.062495573466502696
11
2.908752345656806
21
1.285871567900902
31
-4.426533376511443e-06
  0
LINE
 8
Group#7
10
2.91680913018335
20
1.2885887822901514
30
0.06249554932175694
11
2.9168089656087903
21
1.2885885613205015
31
-4.450678117384754e-06
  0
LINE
 8
Group#7
10
2.924442185133845
20
1.292334129297844
30
0.062495525447546996
11
2.9244420205592916
21
1.2923339083281946
31
-4.474552297573098e-06
  0
LINE
 8
Group#7
10
2.931521071396359
20
1.2970437459679385
30
0.06249550225242495
11
2.9315209068218078
21
1.297043524998289
31
-4.4977474187302136e-06
  0
LINE
 8
Group#7
10
2.9379246672643062
20
1.3026370494534474
30
0.06249548013312589
11
2.9379245026897527
21
1.3026368284837941
31
-4.519866680485762e-06
  0
LINE
 8
Group#7
10
2.9435434054369702
20
1.309018336780978
30
0.062495459468254744
11
2.9435432408624145
21
1.309018115811324
31
-4.540531580499163e-06
  0
LINE
 8
Group#7
10
2.9482811477464033
20
1.3160784223551296
30
0.06249544061130785
11
2.9482809831718533
21
1.3160782013854806
31
-4.559388532721087e-06
  0
LINE
 8
Group#7
10
2.9520568301081527
20
1.3236965061543005
30
0.062495423884943335
11
2.952056665533597
21
1.3236962851846514
31
-4.576114896348571e-06
  0
LINE
 8
Group#7
10
2.9548058495501897
20
1.3317422406525645
30
0.0624954095753294
11
2.954805684975628
21
1.3317420196829148
31
-4.590424480532818e-06
  0
LINE
 8
Group#7
10
2.956481169587673
20
1.3400779611019449
30
0.06249539792737746
11
2.9564810050131154
21
1.340077740132297
31
-4.602072469772622e-06
  0
LINE
 8
Group#7
10
2.9824239990795123
20
1.5345109592345483
30
0.06249516182046344
11
2.9824238345049605
21
1.5345107382648955
31
-4.838179375799001e-06
  0
LINE
 8
Group#7
10
2.9818847865007885
20
1.5429962507609458
30
0.062495156044676925
11
2.9818846219262296
21
1.5429960297912948
31
-4.843955167199709e-06
  0
LINE
 8
Group#7
10
2.980242631977438
20
1.5513385682106329
30
0.062495153379057866
11
2.980242467402884
21
1.5513383472409843
31
-4.846620783149902e-06
  0
LINE
 8
Group#7
10
2.9775256332286433
20
1.559395172219125
30
0.06249515386910609
11
2.9775254686540853
21
1.5593949512494716
31
-4.846130732705234e-06
  0
LINE
 8
Group#7
10
2.9737802788562995
20
1.5670282120581196
30
0.062495157506486265
11
2.9737801142817437
21
1.56702799108847
31
-4.842493316559171e-06
  0
LINE
 8
Group#7
10
2.9690706529121185
20
1.574107084299693
30
0.0624951642289131
11
2.969070488337556
21
1.5741068633300437
31
-4.835770928357519e-06
  0
LINE
 8
Group#7
10
2.9634773384017556
20
1.5805106674771656
30
0.062495173921443214
11
2.9634771738271963
21
1.580510446507516
31
-4.826078400022027e-06
  0
LINE
 8
Group#7
10
2.9570960384872595
20
1.5861293945069543
30
0.06249518641819174
11
2.957095873912708
21
1.5861291735373049
31
-4.8135816479444316e-06
  0
LINE
 8
Group#7
10
2.9500359389793855
20
1.5908671274117694
30
0.06249520150537924
11
2.9500357744048245
21
1.5908669064421206
31
-4.798494500413142e-06
  0
LINE
 8
Group#7
10
2.942417840138148
20
1.594642802268078
30
0.06249521892478138
11
2.9424176755635854
21
1.5946425812984286
31
-4.781075059634432e-06
  0
LINE
 8
Group#7
10
2.934372089746845
20
1.597391816232258
30
0.0624952383783548
11
2.934371925172283
21
1.5973915952626088
31
-4.761621479998368e-06
  0
LINE
 8
Group#7
10
2.926036352825389
20
1.5990671329132224
30
0.06249525953334634
11
2.9260361882508272
21
1.5990669119435683
31
-4.740466495567475e-06
  0
LINE
 8
Group#7
10
2.226235803772686
20
1.6004585011060264
30
0.062497154284483214
11
2.2262356391981335
21
1.6004582801363767
31
-2.845715355137557e-06
  0
LINE
 8
Group#7
10
1.5265498334323024
20
1.5990672245222237
30
0.06249894480463203
11
1.526549668857748
21
1.599067003552576
31
-1.0551952076554016e-06
  0
LINE
 8
Group#7
10
1.5182140962915214
20
1.5973919089325552
30
0.062498967550718376
11
1.5182139317169665
21
1.5973916879629046
31
-1.032449168825167e-06
  0
LINE
 8
Group#7
10
1.5101683455403374
20
1.59464289602171
30
0.06249899047089724
11
1.5101681809657785
21
1.59464267505206
31
-1.0095289819656017e-06
  0
LINE
 8
Group#7
10
1.5025502462048048
20
1.5908672221627493
30
0.06249901317301276
11
1.5025500816302548
21
1.5908670011931025
31
-9.868268300294858e-07
  0
LINE
 8
Group#7
10
1.4954901460766927
20
1.5861294901822272
30
0.06249903526865341
11
1.4954899815021419
21
1.5861292692125772
31
-9.647312599891933e-07
  0
LINE
 8
Group#7
10
1.48910884542663
20
1.5805107639878657
30
0.06249905637965614
11
1.489108680852072
21
1.580510543018216
31
-9.436201879875483e-07
  0
LINE
 8
Group#7
10
1.4835155300779563
20
1.57410718154266
30
0.06249907614490713
11
1.4835153655033984
21
1.5741069605730105
31
-9.238549742995872e-07
  0
LINE
 8
Group#7
10
1.478805903207054
20
1.5670283099176587
30
0.06249909422618183
11
1.4788057386324995
21
1.5670280889480095
31
-9.057736565232233e-07
  0
LINE
 8
Group#7
10
1.4750605478354326
20
1.5593952705689988
30
0.062499110314107265
11
1.4750603832608795
21
1.5593950495993494
31
-8.896857324192098e-07
  0
LINE
 8
Group#7
10
1.472343548031923
20
1.5513386669162161
30
0.06249912413341918
11
1.4723433834573627
21
1.5513384459465662
31
-8.7586642139037e-07
  0
LINE
 8
Group#7
10
1.4707013924164491
20
1.5429963496815142
30
0.06249913544765118
11
1.4707012278418965
21
1.5429961287118648
31
-8.645522227013203e-07
  0
LINE
 8
Group#7
10
8.881784197001252e-16
20
4.1589317710186147e-19
30
-2.220446049250313e-16
11
1.645743887834783e-07
21
-1.1326900629847054e-07
31
0.06249999999967737
  0
LINE
 8
Group#7
10
1.645743887834783e-07
20
-1.1326900629847054e-07
30
0.06249999999967737
11
0.3430001645732035
21
-1.3572144645260348e-07
31
0.06249909670350817
  0
LINE
 8
Group#7
10
4.109585812322136
20
-3.822943764503429e-07
30
0.062489177906364546
11
4.109585845054031
21
0.4999996177048002
31
0.06249008471113382
  0
LINE
 8
Group#7
10
4.45258581232095
20
-4.047468165587276e-07
30
0.062488274685057466
11
4.452585952621699
21
2.143180697611871
31
0.062492161730394846
  0
LINE
 8
Group#7
10
4.109585812322136
20
-3.822943764503429e-07
30
0.062489177906364546
11
4.45258581232095
21
-4.047468165587276e-07
31
0.062488274685057466
  0
LINE
 8
Group#7
10
0.5320001973044368
20
0.49999985190597657
30
0.06249950668449822
11
0.3430001973050931
21
0.4999998642777293
31
0.06250000423185864
  0
LINE
 8
Group#7
10
0.3430001973050931
20
0.4999998642777293
30
0.06250000423185864
11
0.3430001645732035
21
-1.3572144645260348e-07
31
0.06249909670350817
  0
LINE
 8
Group#7
10
0.5320001686974702
20
0.06299985190669574
30
0.062498714126775434
11
0.5320001973044368
21
0.49999985190597657
31
0.06249950668449822
  0
LINE
 8
Group#7
10
0.5320001686974702
20
0.06299985190669574
30
0.062498714126775434
11
3.9205858164477174
21
0.06299963007722392
31
0.06248978987485798
  0
LINE
 8
Group#7
10
3.920585845054687
20
0.49999963007650433
30
0.06249058243258676
11
4.109585845054031
21
0.4999996177048002
31
0.06249008471113382
  0
LINE
 8
Group#7
10
3.9205858164477174
20
0.06299963007722392
30
0.06248978987485798
11
3.920585845054687
21
0.49999963007650433
31
0.06249058243258676
  0
LINE
 8
Group#7
10
3.0487513047461334e-07
20
2.143180989089682
30
0.06250388704501164
11
1.645743887834783e-07
21
-1.1326900629847054e-07
31
0.06249999999967737
  0
LINE
 8
Group#7
10
0.34300003286706815
20
0.4999999776757705
30
4.0340215612388874e-09
11
0.3430000001351763
21
-2.2323405401641286e-08
31
-9.03494329795862e-07
  0
LINE
 8
Group#7
10
0.5320000042594417
20
0.06299996530473684
30
-1.2860710612017101e-06
11
0.5320000328664101
21
0.4999999653040175
31
-4.935133350869592e-07
  0
LINE
 8
Group#7
10
0.5320000328664101
20
0.4999999653040175
30
-4.935133350869592e-07
11
0.34300003286706815
21
0.4999999776757705
31
4.0340215612388874e-09
  0
LINE
 8
Group#7
10
0.3430001973050931
20
0.4999998642777293
30
0.06250000423185864
11
0.34300003286706815
21
0.4999999776757705
31
4.0340215612388874e-09
  0
LINE
 8
Group#7
10
0.3430001645732035
20
-1.3572144645260348e-07
30
0.06249909670350817
11
0.3430000001351763
21
-2.2323405401641286e-08
31
-9.03494329795862e-07
  0
LINE
 8
Group#7
10
0.5320001686974702
20
0.06299985190669574
30
0.062498714126775434
11
0.5320000042594417
21
0.06299996530473684
31
-1.2860710612017101e-06
  0
LINE
 8
Group#7
10
0.5320001973044368
20
0.49999985190597657
30
0.06249950668449822
11
0.5320000328664101
21
0.4999999653040175
31
-4.935133350869592e-07
  0
LINE
 8
Group#7
10
0.5320000042594417
20
0.06299996530473684
30
-1.2860710612017101e-06
11
3.920585651863517
21
0.0629997434300415
31
-1.0210020398249142e-05
  0
LINE
 8
Group#7
10
4.109585647737936
20
-2.689415588752483e-07
30
-1.0821988887910194e-05
11
4.109585680469832
21
0.4999997310576177
31
-9.915184104869468e-06
  0
LINE
 8
Group#7
10
3.9205856804704897
20
0.4999997434293228
30
-9.417462665695098e-06
11
4.109585680469832
21
0.4999997310576177
31
-9.915184104869468e-06
  0
LINE
 8
Group#7
10
3.920585651863517
20
0.0629997434300415
30
-1.0210020398249142e-05
11
3.9205856804704897
21
0.4999997434293228
31
-9.417462665695098e-06
  0
LINE
 8
Group#7
10
4.109585812322136
20
-3.822943764503429e-07
30
0.062489177906364546
11
4.109585647737936
21
-2.689415588752483e-07
31
-1.0821988887910194e-05
  0
LINE
 8
Group#7
10
4.109585845054031
20
0.4999996177048002
30
0.06249008471113382
11
4.109585680469832
21
0.4999997310576177
31
-9.915184104869468e-06
  0
LINE
 8
Group#7
10
3.920585845054687
20
0.49999963007650433
30
0.06249058243258676
11
3.9205856804704897
21
0.4999997434293228
31
-9.417462665695098e-06
  0
LINE
 8
Group#7
10
3.9205858164477174
20
0.06299963007722392
30
0.06248978987485798
11
3.920585651863517
21
0.0629997434300415
31
-1.0210020398249142e-05
  0
LINE
 8
Group#7
10
4.109585647737936
20
-2.689415588752483e-07
30
-1.0821988887910194e-05
11
4.452585647746557
21
-2.914778102598484e-07
31
-1.1725314626787053e-05
  0
LINE
 8
Group#7
10
0.7500001850292226
20
0.31249983763622285
30
0.0624985921347605
11
0.7661763752086608
21
0.31037020072041593
31
0.06249854567233459
  0
LINE
 8
Group#7
10
0.7661763752086608
20
0.31037020072041593
30
0.06249854567233459
11
0.7812501844809612
21
0.3041264233271696
31
0.06249849465184765
  0
LINE
 8
Group#7
10
0.7812501844809612
20
0.3041264233271696
30
0.06249849465184765
11
0.7941943576548605
21
0.29419400856750544
31
0.06249844255011139
  0
LINE
 8
Group#7
10
0.7941943576548605
20
0.29419400856750544
30
0.06249844255011139
11
0.8041267707198192
21
0.28124983409320153
31
0.062498392917925916
  0
LINE
 8
Group#7
10
0.8041267707198192
20
0.28124983409320153
30
0.062498392917925916
11
0.8103705461395494
21
0.2661760240034224
31
0.062498349137541265
  0
LINE
 8
Group#7
10
0.8103705461395494
20
0.2661760240034224
30
0.062498349137541265
11
0.8125001809375227
21
0.2499998335451375
31
0.06249831419254015
  0
LINE
 8
Group#7
10
0.8125001809375227
20
0.2499998335451375
30
0.06249831419254015
11
0.8103705440216369
21
0.23382364336566042
31
0.06249829046441624
  0
LINE
 8
Group#7
10
0.8103705440216369
20
0.23382364336566042
30
0.06249829046441624
11
0.8041267666283338
21
0.21874983409330412
31
0.06249827957014076
  0
LINE
 8
Group#7
10
0.8041267666283338
20
0.21874983409330412
30
0.06249827957014076
11
0.7941943518686245
21
0.20580566091933206
31
0.06249828225214604
  0
LINE
 8
Group#7
10
0.7941943518686245
20
0.20580566091933206
30
0.06249828225214604
11
0.7812501773942948
21
0.1958732478542929
31
0.062498298327691826
  0
LINE
 8
Group#7
10
0.7812501773942948
20
0.1958732478542929
30
0.062498298327691826
11
0.766176367304519
21
0.18962947243448064
31
0.062498326701240225
  0
LINE
 8
Group#7
10
0.766176367304519
20
0.18962947243448064
30
0.062498326701240225
11
0.7500001768462514
21
0.1874998376364282
31
0.062498365439177306
  0
LINE
 8
Group#7
10
0.7500001768462514
20
0.1874998376364282
30
0.062498365439177306
11
0.7338239866668137
21
0.1896294745522354
31
0.06249841190160765
  0
LINE
 8
Group#7
10
0.7338239866668137
20
0.1896294745522354
30
0.06249841190160765
11
0.7187501773945133
21
0.19587325194548105
31
0.06249846292213013
  0
LINE
 8
Group#7
10
0.7187501773945133
20
0.19587325194548105
30
0.06249846292213013
11
0.7058060042206136
21
0.20580566670514572
31
0.062498515023844625
  0
LINE
 8
Group#7
10
0.7058060042206136
20
0.20580566670514572
30
0.062498515023844625
11
0.6958735911556553
21
0.21874984117944946
31
0.06249856465603565
  0
LINE
 8
Group#7
10
0.6958735911556553
20
0.21874984117944946
30
0.06249856465603565
11
0.6896298157359246
21
0.23382365126922872
31
0.06249860843641519
  0
LINE
 8
Group#7
10
0.6896298157359246
20
0.23382365126922872
30
0.06249860843641519
11
0.6875001809379544
21
0.2499998417275135
31
0.0624986433814152
  0
LINE
 8
Group#7
10
0.6875001809379544
20
0.2499998417275135
30
0.0624986433814152
11
0.6896298178538371
21
0.2661760319069909
31
0.06249866710954022
  0
LINE
 8
Group#7
10
0.6896298178538371
20
0.2661760319069909
30
0.06249866710954022
11
0.6958735952471415
21
0.281249841179347
31
0.062498678003817476
  0
LINE
 8
Group#7
10
0.6958735952471415
20
0.281249841179347
30
0.062498678003817476
11
0.70580601000685
21
0.294194014353319
31
0.06249867532177156
  0
LINE
 8
Group#7
10
0.70580601000685
20
0.294194014353319
30
0.06249867532177156
11
0.7187501844811792
21
0.30412642741835766
31
0.062498659246247534
  0
LINE
 8
Group#7
10
0.7187501844811792
20
0.30412642741835766
30
0.062498659246247534
11
0.7338239945709555
21
0.3103702028381701
31
0.06249863087269847
  0
LINE
 8
Group#7
10
0.7338239945709555
20
0.3103702028381701
30
0.06249863087269847
11
0.7500001850292226
21
0.31249983763622285
31
0.0624985921347605
  0
LINE
 8
Group#7
10
3.7025858327809846
20
0.3124996443469266
30
0.062490816412035244
11
3.7187620229604224
21
0.31037000743111937
31
0.062490769949631764
  0
LINE
 8
Group#7
10
3.7187620229604224
20
0.31037000743111937
30
0.062490769949631764
11
3.7338358322327183
21
0.30412623003787365
31
0.06249071892910729
  0
LINE
 8
Group#7
10
3.7338358322327183
20
0.30412623003787365
30
0.06249071892910729
11
3.746780005406622
21
0.2941938152782089
31
0.06249066682739346
  0
LINE
 8
Group#7
10
3.746780005406622
20
0.2941938152782089
30
0.06249066682739346
11
3.75671241847158
21
0.281249640803905
31
0.06249061719522153
  0
LINE
 8
Group#7
10
3.75671241847158
20
0.281249640803905
30
0.06249061719522153
11
3.7629561938913083
21
0.2661758307141267
31
0.06249057341482489
  0
LINE
 8
Group#7
10
3.7629561938913083
20
0.2661758307141267
30
0.06249057341482489
11
3.7650858286892785
21
0.24999964025584154
31
0.062490538469822
  0
LINE
 8
Group#7
10
3.7650858286892785
20
0.24999964025584154
30
0.062490538469822
11
3.762956191773401
21
0.23382345007636468
31
0.06249051474169742
  0
LINE
 8
Group#7
10
3.762956191773401
20
0.23382345007636468
30
0.06249051474169742
11
3.756712414380094
21
0.21874964080400827
31
0.062490503847399514
  0
LINE
 8
Group#7
10
3.756712414380094
20
0.21874964080400827
30
0.062490503847399514
11
3.7467799996203857
21
0.20580546763003632
31
0.06249050652944432
  0
LINE
 8
Group#7
10
3.7467799996203857
20
0.20580546763003632
30
0.06249050652944432
11
3.733835825146058
21
0.19587305456499682
31
0.062490522604990995
  0
LINE
 8
Group#7
10
3.733835825146058
20
0.19587305456499682
30
0.062490522604990995
11
3.7187620150562744
21
0.18962927914518457
31
0.06249055097853917
  0
LINE
 8
Group#7
10
3.7187620150562744
20
0.18962927914518457
30
0.06249055097853917
11
3.7025858245980086
21
0.18749964434713223
31
0.06249058971647803
  0
LINE
 8
Group#7
10
3.7025858245980086
20
0.18749964434713223
30
0.06249058971647803
11
3.6864096344185717
21
0.1896292812629395
31
0.0624906361788824
  0
LINE
 8
Group#7
10
3.6864096344185717
20
0.1896292812629395
30
0.0624906361788824
11
3.6713358251462758
21
0.19587305865618493
31
0.062490687199411754
  0
LINE
 8
Group#7
10
3.6713358251462758
20
0.19587305865618493
30
0.062490687199411754
11
3.6583916519723716
21
0.20580547341584976
31
0.0624907393011056
  0
LINE
 8
Group#7
10
3.6583916519723716
20
0.20580547341584976
30
0.0624907393011056
11
3.648459238907415
21
0.21874964789015372
31
0.06249078893333837
  0
LINE
 8
Group#7
10
3.648459238907415
20
0.21874964789015372
30
0.06249078893333837
11
3.6422154634876858
21
0.23382345797993276
31
0.062490832713674616
  0
LINE
 8
Group#7
10
3.6422154634876858
20
0.23382345797993276
30
0.062490832713674616
11
3.640085828689715
21
0.24999964843821754
31
0.06249086765867573
  0
LINE
 8
Group#7
10
3.640085828689715
20
0.24999964843821754
30
0.06249086765867573
11
3.642215465605593
21
0.26617583861769517
31
0.06249089138681985
  0
LINE
 8
Group#7
10
3.642215465605593
20
0.26617583861769517
30
0.06249089138681985
11
3.648459242998902
21
0.2812496478900504
31
0.062490902281098215
  0
LINE
 8
Group#7
10
3.648459242998902
20
0.2812496478900504
30
0.062490902281098215
11
3.6583916577586084
21
0.2941938210640224
31
0.06249089959907028
  0
LINE
 8
Group#7
10
3.6583916577586084
20
0.2941938210640224
30
0.06249089959907028
11
3.6713358322329355
21
0.3041262341290616
31
0.06249088352354537
  0
LINE
 8
Group#7
10
3.6713358322329355
20
0.3041262341290616
30
0.06249088352354537
11
3.686409642322719
21
0.31037000954887456
31
0.06249085514997654
  0
LINE
 8
Group#7
10
3.686409642322719
20
0.31037000954887456
30
0.06249085514997654
11
3.7025858327809846
21
0.3124996443469266
31
0.062490816412035244
  0
LINE
 8
Group#7
10
0.6875000176603012
20
0.24999995416852222
30
0.0004986433817242286
11
0.6896296545761822
21
0.2661761443479996
31
0.0004986671098674567
  0
LINE
 8
Group#7
10
0.6896296524582701
20
0.2338237637102379
30
0.000498608436700021
11
0.6875000176603012
21
0.24999995416852222
31
0.0004986433817242286
  0
LINE
 8
Group#7
10
0.6958734278780021
20
0.21874995362045851
30
0.000498564656339795
11
0.6896296524582701
21
0.2338237637102379
31
0.000498608436700021
  0
LINE
 8
Group#7
10
0.7058058409429608
20
0.20580577914615483
30
0.0004985150241318959
11
0.6958734278780021
21
0.21874995362045851
31
0.000498564656339795
  0
LINE
 8
Group#7
10
0.7187500141168623
20
0.1958733643864899
30
0.0004984629224562553
11
0.7058058409429608
21
0.20580577914615483
31
0.0004985150241318959
  0
LINE
 8
Group#7
10
0.7338238233891605
20
0.18962958699324423
30
0.000498411901929563
11
0.7187500141168623
21
0.1958733643864899
31
0.0004984629224562553
  0
LINE
 8
Group#7
10
0.7500000135685969
20
0.1874999500774373
30
0.0004983654395047665
11
0.7338238233891605
21
0.18962958699324423
31
0.000498411901929563
  0
LINE
 8
Group#7
10
0.766176204026864
20
0.18962958487548953
30
0.0004983267015654658
11
0.7500000135685969
21
0.1874999500774373
31
0.0004983654395047665
  0
LINE
 8
Group#7
10
0.7812500141166439
20
0.19587336029530183
30
0.000498298328016844
11
0.766176204026864
21
0.18962958487548953
31
0.0004983267015654658
  0
LINE
 8
Group#7
10
0.7941941885909674
20
0.20580577336034123
30
0.0004982822524719488
11
0.7812500141166439
21
0.19587336029530183
31
0.000498298328016844
  0
LINE
 8
Group#7
10
0.8041266033506793
20
0.21874994653431296
30
0.0004982795704626675
11
0.7941941885909674
21
0.20580577336034123
31
0.0004982822524719488
  0
LINE
 8
Group#7
10
0.8103703807439819
20
0.23382375580666942
30
0.0004982904647232722
11
0.8041266033506793
21
0.21874994653431296
31
0.0004982795704626675
  0
LINE
 8
Group#7
10
0.8125000176598665
20
0.2499999459861465
30
0.0004983141928585066
11
0.8103703807439819
21
0.23382375580666942
31
0.0004982904647232722
  0
LINE
 8
Group#7
10
0.810370382861894
20
0.26617613644443133
30
0.0004983491378507399
11
0.8125000176598665
21
0.2499999459861465
31
0.0004983141928585066
  0
LINE
 8
Group#7
10
0.8041266074421625
20
0.2812499465342099
30
0.0004983929182504898
11
0.810370382861894
21
0.26617613644443133
31
0.0004983491378507399
  0
LINE
 8
Group#7
10
0.7941941943772051
20
0.29419412100851433
30
0.0004984425504366286
11
0.8041266074421625
21
0.2812499465342099
31
0.0004983929182504898
  0
LINE
 8
Group#7
10
0.7812500212033062
20
0.30412653576817894
30
0.0004984946521553457
11
0.7941941943772051
21
0.29419412100851433
31
0.0004984425504366286
  0
LINE
 8
Group#7
10
0.7661762119310058
20
0.31037031316142477
30
0.00049854567266161
11
0.7812500212033062
21
0.30412653576817894
31
0.0004984946521553457
  0
LINE
 8
Group#7
10
0.7500000217515659
20
0.3124999500772322
30
0.0004985921350637579
11
0.7661762119310058
21
0.31037031316142477
31
0.00049854567266161
  0
LINE
 8
Group#7
10
0.7338238312933005
20
0.3103703152791794
30
0.000498630873024819
11
0.7500000217515659
21
0.3124999500772322
31
0.0004985921350637579
  0
LINE
 8
Group#7
10
0.7187500212035247
20
0.30412653985936683
30
0.0004986592465725526
11
0.7338238312933005
21
0.3103703152791794
31
0.000498630873024819
  0
LINE
 8
Group#7
10
0.7058058467291954
20
0.29419412679432794
30
0.0004986753220974638
11
0.7187500212035247
21
0.30412653985936683
31
0.0004986592465725526
  0
LINE
 8
Group#7
10
0.6958734319694848
20
0.28124995362035543
30
0.0004986780041240646
11
0.7058058467291954
21
0.29419412679432794
31
0.0004986753220974638
  0
LINE
 8
Group#7
10
0.6896296545761822
20
0.2661761443479996
30
0.0004986671098674567
11
0.6958734319694848
21
0.28124995362035543
31
0.0004986780041240646
  0
LINE
 8
Group#7
10
0.6875001809379544
20
0.2499998417275135
30
0.0624986433814152
11
0.6875000176603012
21
0.24999995416852222
31
0.0004986433817242286
  0
LINE
 8
Group#7
10
0.6896298178538371
20
0.2661760319069909
30
0.06249866710954022
11
0.6896296545761822
21
0.2661761443479996
31
0.0004986671098674567
  0
LINE
 8
Group#7
10
0.6896298157359246
20
0.23382365126922872
30
0.06249860843641519
11
0.6896296524582701
21
0.2338237637102379
31
0.000498608436700021
  0
LINE
 8
Group#7
10
0.6958735911556553
20
0.21874984117944946
30
0.06249856465603565
11
0.6958734278780021
21
0.21874995362045851
31
0.000498564656339795
  0
LINE
 8
Group#7
10
0.7058060042206136
20
0.20580566670514572
30
0.062498515023844625
11
0.7058058409429608
21
0.20580577914615483
31
0.0004985150241318959
  0
LINE
 8
Group#7
10
0.7187501773945133
20
0.19587325194548105
30
0.06249846292213013
11
0.7187500141168623
21
0.1958733643864899
31
0.0004984629224562553
  0
LINE
 8
Group#7
10
0.7338239866668137
20
0.1896294745522354
30
0.06249841190160765
11
0.7338238233891605
21
0.18962958699324423
31
0.000498411901929563
  0
LINE
 8
Group#7
10
0.7500001768462514
20
0.1874998376364282
30
0.062498365439177306
11
0.7500000135685969
21
0.1874999500774373
31
0.0004983654395047665
  0
LINE
 8
Group#7
10
0.766176367304519
20
0.18962947243448064
30
0.062498326701240225
11
0.766176204026864
21
0.18962958487548953
31
0.0004983267015654658
  0
LINE
 8
Group#7
10
0.7812501773942948
20
0.1958732478542929
30
0.062498298327691826
11
0.7812500141166439
21
0.19587336029530183
31
0.000498298328016844
  0
LINE
 8
Group#7
10
0.7941943518686245
20
0.20580566091933206
30
0.06249828225214604
11
0.7941941885909674
21
0.20580577336034123
31
0.0004982822524719488
  0
LINE
 8
Group#7
10
0.8041267666283338
20
0.21874983409330412
30
0.06249827957014076
11
0.8041266033506793
21
0.21874994653431296
31
0.0004982795704626675
  0
LINE
 8
Group#7
10
0.8103705440216369
20
0.23382364336566042
30
0.06249829046441624
11
0.8103703807439819
21
0.23382375580666942
31
0.0004982904647232722
  0
LINE
 8
Group#7
10
0.8125001809375227
20
0.2499998335451375
30
0.06249831419254015
11
0.8125000176598665
21
0.2499999459861465
31
0.0004983141928585066
  0
LINE
 8
Group#7
10
0.8103705461395494
20
0.2661760240034224
30
0.062498349137541265
11
0.810370382861894
21
0.26617613644443133
31
0.0004983491378507399
  0
LINE
 8
Group#7
10
0.8041267707198192
20
0.28124983409320153
30
0.062498392917925916
11
0.8041266074421625
21
0.2812499465342099
31
0.0004983929182504898
  0
LINE
 8
Group#7
10
0.7941943576548605
20
0.29419400856750544
30
0.06249844255011139
11
0.7941941943772051
21
0.29419412100851433
31
0.0004984425504366286
  0
LINE
 8
Group#7
10
0.7812501844809612
20
0.3041264233271696
30
0.06249849465184765
11
0.7812500212033062
21
0.30412653576817894
31
0.0004984946521553457
  0
LINE
 8
Group#7
10
0.7661763752086608
20
0.31037020072041593
30
0.06249854567233459
11
0.7661762119310058
21
0.31037031316142477
31
0.00049854567266161
  0
LINE
 8
Group#7
10
0.7500001850292226
20
0.31249983763622285
30
0.0624985921347605
11
0.7500000217515659
21
0.3124999500772322
31
0.0004985921350637579
  0
LINE
 8
Group#7
10
0.7338239945709555
20
0.3103702028381701
30
0.06249863087269847
11
0.7338238312933005
21
0.3103703152791794
31
0.000498630873024819
  0
LINE
 8
Group#7
10
0.7187501844811792
20
0.30412642741835766
30
0.062498659246247534
11
0.7187500212035247
21
0.30412653985936683
31
0.0004986592465725526
  0
LINE
 8
Group#7
10
0.70580601000685
20
0.294194014353319
30
0.06249867532177156
11
0.7058058467291954
21
0.29419412679432794
31
0.0004986753220974638
  0
LINE
 8
Group#7
10
0.6958735952471415
20
0.281249841179347
30
0.062498678003817476
11
0.6958734319694848
21
0.28124995362035543
31
0.0004986780041240646
  0
LINE
 8
Group#7
10
3.765085665411623
20
0.24999975269684976
30
0.0004905384701472393
11
3.7629560284957453
21
0.23382356251737324
31
0.0004905147420051215
  0
LINE
 8
Group#7
10
3.7629560306136574
20
0.26617594315513543
30
0.0004905734151492425
11
3.765085665411623
21
0.24999975269684976
31
0.0004905384701472393
  0
LINE
 8
Group#7
10
3.7567122551939245
20
0.2812497532449141
30
0.0004906171955290084
11
3.7629560306136574
21
0.26617594315513543
31
0.0004905734151492425
  0
LINE
 8
Group#7
10
3.7467798421289666
20
0.29419392771921765
30
0.000490666827719366
11
3.7567122551939245
21
0.2812497532449141
31
0.0004906171955290084
  0
LINE
 8
Group#7
10
3.733835668955063
20
0.3041263424788823
30
0.0004907189293943404
11
3.7467798421289666
21
0.29419392771921765
31
0.000490666827719366
  0
LINE
 8
Group#7
10
3.718761859682767
20
0.3103701198721281
30
0.0004907699499430151
11
3.733835668955063
21
0.3041263424788823
31
0.0004907189293943404
  0
LINE
 8
Group#7
10
3.7025856695033283
20
0.31249975678793557
30
0.0004908164123462733
11
3.718761859682767
21
0.3103701198721281
31
0.0004907699499430151
  0
LINE
 8
Group#7
10
3.686409479045063
20
0.31037012198988284
30
0.0004908551502860181
11
3.7025856695033283
21
0.31249975678793557
31
0.0004908164123462733
  0
LINE
 8
Group#7
10
3.67133566895528
20
0.30412634657007037
30
0.0004908835238324194
11
3.686409479045063
21
0.31037012198988284
31
0.0004908551502860181
  0
LINE
 8
Group#7
10
3.6583914944809517
20
0.29419393350503115
30
0.0004908995993786469
11
3.67133566895528
21
0.30412634657007037
31
0.0004908835238324194
  0
LINE
 8
Group#7
10
3.648459079721245
20
0.28124976033105914
30
0.0004909022814134634
11
3.6583914944809517
21
0.29419393350503115
31
0.0004908995993786469
  0
LINE
 8
Group#7
10
3.642215302327937
20
0.26617595105870395
30
0.0004908913871268794
11
3.648459079721245
21
0.28124976033105914
31
0.0004909022814134634
  0
LINE
 8
Group#7
10
3.6400856654120592
20
0.24999976087922582
30
0.0004908676589956418
11
3.642215302327937
21
0.26617595105870395
31
0.0004908913871268794
  0
LINE
 8
Group#7
10
3.64221530021003
20
0.23382357042094143
30
0.000490832714000522
11
3.6400856654120592
21
0.24999976087922582
31
0.0004908676589956418
  0
LINE
 8
Group#7
10
3.6484590756297592
20
0.21874976033116222
30
0.0004907889336240867
11
3.64221530021003
21
0.23382357042094143
31
0.000490832714000522
  0
LINE
 8
Group#7
10
3.658391488694716
20
0.2058055858568585
30
0.0004907393014121908
11
3.6484590756297592
21
0.21874976033116222
31
0.0004907889336240867
  0
LINE
 8
Group#7
10
3.671335661868617
20
0.19587317109719365
30
0.0004906871997159001
11
3.658391488694716
21
0.2058055858568585
31
0.0004907393014121908
  0
LINE
 8
Group#7
10
3.6864094711409163
20
0.1896293937039482
30
0.0004906361791885416
11
3.671335661868617
21
0.19587317109719365
31
0.0004906871997159001
  0
LINE
 8
Group#7
10
3.702585661320356
20
0.18749975678814101
30
0.0004905897167857276
11
3.6864094711409163
21
0.1896293937039482
31
0.0004906361791885416
  0
LINE
 8
Group#7
10
3.7187618517786216
20
0.18962939158619346
30
0.0004905509788455387
11
3.702585661320356
21
0.18749975678814101
31
0.0004905897167857276
  0
LINE
 8
Group#7
10
3.7338356618684005
20
0.1958731670060057
30
0.0004905226052989153
11
3.7187618517786216
21
0.18962939158619346
31
0.0004905509788455387
  0
LINE
 8
Group#7
10
3.7467798363427276
20
0.20580558007104488
30
0.0004905065297526878
11
3.7338356618684005
21
0.1958731670060057
31
0.0004905226052989153
  0
LINE
 8
Group#7
10
3.7567122511024382
20
0.21874975324501678
30
0.0004905038477256429
11
3.7467798363427276
21
0.20580558007104488
31
0.0004905065297526878
  0
LINE
 8
Group#7
10
3.7629560284957453
20
0.23382356251737324
30
0.0004905147420051215
11
3.7567122511024382
21
0.21874975324501678
31
0.0004905038477256429
  0
LINE
 8
Group#7
10
3.7650858286892785
20
0.24999964025584154
30
0.062490538469822
11
3.765085665411623
21
0.24999975269684976
31
0.0004905384701472393
  0
LINE
 8
Group#7
10
3.762956191773401
20
0.23382345007636468
30
0.06249051474169742
11
3.7629560284957453
21
0.23382356251737324
31
0.0004905147420051215
  0
LINE
 8
Group#7
10
3.7629561938913083
20
0.2661758307141267
30
0.06249057341482489
11
3.7629560306136574
21
0.26617594315513543
31
0.0004905734151492425
  0
LINE
 8
Group#7
10
3.75671241847158
20
0.281249640803905
30
0.06249061719522153
11
3.7567122551939245
21
0.2812497532449141
31
0.0004906171955290084
  0
LINE
 8
Group#7
10
3.746780005406622
20
0.2941938152782089
30
0.06249066682739346
11
3.7467798421289666
21
0.29419392771921765
31
0.000490666827719366
  0
LINE
 8
Group#7
10
3.7338358322327183
20
0.30412623003787365
30
0.06249071892910729
11
3.733835668955063
21
0.3041263424788823
31
0.0004907189293943404
  0
LINE
 8
Group#7
10
3.7187620229604224
20
0.31037000743111937
30
0.062490769949631764
11
3.718761859682767
21
0.3103701198721281
31
0.0004907699499430151
  0
LINE
 8
Group#7
10
3.7025858327809846
20
0.3124996443469266
30
0.062490816412035244
11
3.7025856695033283
21
0.31249975678793557
31
0.0004908164123462733
  0
LINE
 8
Group#7
10
3.686409642322719
20
0.31037000954887456
30
0.06249085514997654
11
3.686409479045063
21
0.31037012198988284
31
0.0004908551502860181
  0
LINE
 8
Group#7
10
3.6713358322329355
20
0.3041262341290616
30
0.06249088352354537
11
3.67133566895528
21
0.30412634657007037
31
0.0004908835238324194
  0
LINE
 8
Group#7
10
3.6583916577586084
20
0.2941938210640224
30
0.06249089959907028
11
3.6583914944809517
21
0.29419393350503115
31
0.0004908995993786469
  0
LINE
 8
Group#7
10
3.648459242998902
20
0.2812496478900504
30
0.062490902281098215
11
3.648459079721245
21
0.28124976033105914
31
0.0004909022814134634
  0
LINE
 8
Group#7
10
3.642215465605593
20
0.26617583861769517
30
0.06249089138681985
11
3.642215302327937
21
0.26617595105870395
31
0.0004908913871268794
  0
LINE
 8
Group#7
10
3.640085828689715
20
0.24999964843821754
30
0.06249086765867573
11
3.6400856654120592
21
0.24999976087922582
31
0.0004908676589956418
  0
LINE
 8
Group#7
10
3.6422154634876858
20
0.23382345797993276
30
0.062490832713674616
11
3.64221530021003
21
0.23382357042094143
31
0.000490832714000522
  0
LINE
 8
Group#7
10
3.648459238907415
20
0.21874964789015372
30
0.06249078893333837
11
3.6484590756297592
21
0.21874976033116222
31
0.0004907889336240867
  0
LINE
 8
Group#7
10
3.6583916519723716
20
0.20580547341584976
30
0.0624907393011056
11
3.658391488694716
21
0.2058055858568585
31
0.0004907393014121908
  0
LINE
 8
Group#7
10
3.6713358251462758
20
0.19587305865618493
30
0.062490687199411754
11
3.671335661868617
21
0.19587317109719365
31
0.0004906871997159001
  0
LINE
 8
Group#7
10
3.6864096344185717
20
0.1896292812629395
30
0.0624906361788824
11
3.6864094711409163
21
0.1896293937039482
31
0.0004906361791885416
  0
LINE
 8
Group#7
10
3.7025858245980086
20
0.18749964434713223
30
0.06249058971647803
11
3.702585661320356
21
0.18749975678814101
31
0.0004905897167857276
  0
LINE
 8
Group#7
10
3.7187620150562744
20
0.18962927914518457
30
0.06249055097853917
11
3.7187618517786216
21
0.18962939158619346
31
0.0004905509788455387
  0
LINE
 8
Group#7
10
3.733835825146058
20
0.19587305456499682
30
0.062490522604990995
11
3.7338356618684005
21
0.1958731670060057
31
0.0004905226052989153
  0
LINE
 8
Group#7
10
3.7467799996203857
20
0.20580546763003632
30
0.06249050652944432
11
3.7467798363427276
21
0.20580558007104488
31
0.0004905065297526878
  0
LINE
 8
Group#7
10
3.756712414380094
20
0.21874964080400827
30
0.062490503847399514
11
3.7567122511024382
21
0.21874975324501678
31
0.0004905038477256429
  0
LINE
 8
Group#7
10
4.45258578804731
20
2.1431808108808843
30
-7.838269293847233e-06
11
1.403007532374545e-07
21
2.1431811023586933
31
3.887045320283278e-06
  0
LINE
 8
Group#7
10
1.4067931246597696
20
2.0806808970025266
30
0.06250006917897188
11
1.4067929613950234
21
2.0806810094485764
31
0.000500069179279583
  0
LINE
 8
Group#7
10
1.8765431050190071
20
1.7806808662536469
30
0.06249828808321056
11
1.876543124625269
21
2.080180866253152
31
0.06249883127937972
  0
LINE
 8
Group#7
10
2.5765431246558554
20
2.0806808204302447
30
0.06249698887451016
11
2.576543105016581
21
1.7806808204323399
31
0.06249644477150662
  0
LINE
 8
Group#7
10
2.576543105016581
20
1.7806808204323399
30
0.06249644477150662
11
1.8765431050190071
21
1.7806808662536469
31
0.06249828808321056
  0
LINE
 8
Group#7
10
1.876542941754261
20
1.780680978701835
30
0.0004982880835227022
11
1.8765429613605247
21
2.08018097870134
31
0.0004988312796883054
  0
LINE
 8
Group#7
10
2.5765429417518355
20
1.7806809328805284
30
0.0004964447718147635
11
1.876542941754261
21
1.780680978701835
31
0.0004982880835227022
  0
LINE
 8
Group#7
10
2.5765429613911106
20
2.0806809328784337
30
0.0004969888748229678
11
2.5765429417518355
21
1.7806809328805284
31
0.0004964447718147635
  0
LINE
 8
Group#7
10
1.8765431050190071
20
1.7806808662536469
30
0.06249828808321056
11
1.876542941754261
21
1.780680978701835
31
0.0004982880835227022
  0
LINE
 8
Group#7
10
1.876543124625269
20
2.080180866253152
30
0.06249883127937972
11
1.8765429613605247
21
2.08018097870134
31
0.0004988312796883054
  0
LINE
 8
Group#7
10
2.576543105016581
20
1.7806808204323399
30
0.06249644477150662
11
2.5765429417518355
21
1.7806809328805284
31
0.0004964447718147635
  0
LINE
 8
Group#7
10
1.876543124625269
20
2.080180866253152
30
0.06249883127937972
11
2.5765431246558554
21
2.0806808204302447
31
0.06249698887451016
  0
LINE
 8
Group#7
10
1.8765429613605247
20
2.08018097870134
30
0.0004988312796883054
11
2.5765429613911106
21
2.0806809328784337
31
0.0004969888748229678
  0
LINE
 8
Group#7
10
2.5765431246558554
20
2.0806808204302447
30
0.06249698887451016
11
2.5765429613911106
21
2.0806809328784337
31
0.0004969888748229678
  0
LINE
 8
Group#7
10
2.225813151366023
20
1.2852901717782164
30
0.062497424154578374
11
2.2258129867914676
21
1.2852899508085662
31
-2.5758452657509423e-06
 0
ENDSEC
 0
EOF
